SplineFontDB: 3.2
FontName: Pointless-Regular
FullName: Pointless Regular
FamilyName: Pointless
Weight: Regular
Copyright: Based on Pointfree by wrp, whoever he/she/they is/are, I thank you.\nTadhg O'Brien 2020 released under the terms of the Unlicense.
Version: 1.0
ItalicAngle: 0
UnderlinePosition: -143
UnderlineWidth: 20
Ascent: 656
Descent: 164
InvalidEm: 0
sfntRevision: 0x00010000
LayerCount: 2
Layer: 0 1 "Back" 1
Layer: 1 1 "Fore" 0
XUID: [1021 796 -163880829 2966828]
StyleMap: 0x0040
FSType: 0
OS2Version: 3
OS2_WeightWidthSlopeOnly: 0
OS2_UseTypoMetrics: 0
CreationTime: 1316413706
ModificationTime: 1606909923
PfmFamily: 17
TTFWeight: 400
TTFWidth: 5
LineGap: 0
VLineGap: 0
Panose: 2 0 5 3 0 0 0 0 0 0
OS2TypoAscent: 891
OS2TypoAOffset: 0
OS2TypoDescent: -256
OS2TypoDOffset: 0
OS2TypoLinegap: 0
OS2WinAscent: 891
OS2WinAOffset: 0
OS2WinDescent: 256
OS2WinDOffset: 0
HheadAscent: 891
HheadAOffset: 0
HheadDescent: -256
HheadDOffset: 0
OS2SubXSize: 585
OS2SubYSize: 543
OS2SubXOff: 0
OS2SubYOff: 120
OS2SupXSize: 585
OS2SupYSize: 543
OS2SupXOff: 0
OS2SupYOff: 379
OS2StrikeYSize: 42
OS2StrikeYPos: 209
OS2CapHeight: 613
OS2XHeight: 454
OS2Vendor: '    '
OS2CodePages: 00000001.00000000
OS2UnicodeRanges: 00000001.00000000.00000000.00000000
MarkAttachClasses: 1
DEI: 91125
ShortTable: maxp 16
  1
  0
  98
  112
  5
  0
  0
  0
  0
  0
  0
  0
  0
  0
  0
  0
EndShort
LangName: 1033 "" "" "" "" "" "1.0"
Encoding: UnicodeBmp
UnicodeInterp: none
NameList: AGL For New Fonts
DisplaySize: -48
AntiAlias: 1
FitToEm: 0
WinInfo: 22 22 6
BeginPrivate: 0
EndPrivate
TeXData: 1 0 0 639376 319687 213126 549863 1048576 213126 783286 444596 497025 792723 393216 433062 380633 303038 157286 324010 404750 52429 2506097 1059062 262144
BeginChars: 65539 94

StartChar: exclam
Encoding: 33 33 0
Width: 500
Flags: W
LayerCount: 2
Fore
SplineSet
198 580 m 1,0,1
 202 600 202 600 219 610 c 0,2,3
 237 619 237 619 252 619 c 0,4,5
 264 619 264 619 276 612 c 0,6,7
 297 601 297 601 300 583 c 2,8,-1
 300 238 l 2,9,10
 298 216 298 216 281.5 204.5 c 128,-1,11
 265 193 265 193 248.5 192.5 c 128,-1,12
 232 192 232 192 220 200 c 0,13,14
 200 214 200 214 198 235 c 2,15,-1
 198 580 l 1,16,-1
 198 580 l 1,0,1
250 125 m 256,17,18
 274 125 274 125 294.5 106 c 128,-1,19
 315 87 315 87 315 60 c 256,20,21
 315 33 315 33 294.5 14.5 c 128,-1,22
 274 -4 274 -4 250 -4 c 256,23,24
 226 -4 226 -4 206 14.5 c 128,-1,25
 186 33 186 33 186 60 c 256,26,27
 186 87 186 87 206 106 c 128,-1,28
 226 125 226 125 250 125 c 256,17,18
EndSplineSet
EndChar

StartChar: quotedbl
Encoding: 34 34 1
Width: 500
Flags: W
LayerCount: 2
Fore
SplineSet
298 575 m 1,0,1
 302 595 302 595 318.5 605 c 128,-1,2
 335 615 335 615 349 615 c 0,3,4
 364 615 364 615 378 607 c 0,5,6
 396 597 396 597 400 578 c 1,7,-1
 400 435 l 2,8,9
 398 413 398 413 381 401 c 128,-1,10
 364 389 364 389 349 389 c 0,11,12
 332 390 332 390 320 400 c 0,13,14
 299 414 299 414 298 432 c 2,15,-1
 298 575 l 1,16,-1
 298 575 l 1,0,1
97 576 m 1,17,18
 101 596 101 596 117.5 606 c 128,-1,19
 134 616 134 616 148 616 c 0,20,21
 166 617 166 617 176 609 c 0,22,23
 194 595 194 595 199 579 c 1,24,-1
 199 436 l 2,25,26
 197 414 197 414 180 402 c 128,-1,27
 163 390 163 390 148 390 c 0,28,29
 128 393 128 393 118 402 c 0,30,31
 98 416 98 416 97 433 c 2,32,-1
 97 576 l 1,33,-1
 97 576 l 1,17,18
EndSplineSet
EndChar

StartChar: numbersign
Encoding: 35 35 2
Width: 500
Flags: W
LayerCount: 2
Fore
SplineSet
327 574 m 0,0,1
 332 596 332 596 345.5 605.5 c 128,-1,2
 359 615 359 615 373 613 c 128,-1,3
 387 611 387 611 398 598.5 c 128,-1,4
 409 586 409 586 408 564 c 0,5,6
 403 531 403 531 399 498.5 c 128,-1,7
 395 466 395 466 390 434 c 1,8,-1
 439 434 l 1,9,10
 458 428 458 428 467 416 c 128,-1,11
 476 404 476 404 475.5 391.5 c 128,-1,12
 475 379 475 379 465 367.5 c 128,-1,13
 455 356 455 356 436 352 c 1,14,-1
 379 352 l 1,15,16
 374 320 374 320 370.5 289 c 128,-1,17
 367 258 367 258 362 227 c 1,18,-1
 412 227 l 1,19,20
 431 221 431 221 440 209 c 128,-1,21
 449 197 449 197 448.5 184.5 c 128,-1,22
 448 172 448 172 438 160.5 c 128,-1,23
 428 149 428 149 409 145 c 1,24,-1
 351 145 l 1,25,26
 346 107 346 107 341 69.5 c 128,-1,27
 336 32 336 32 331 -6 c 1,28,29
 324 -24 324 -24 311 -32 c 128,-1,30
 298 -40 298 -40 285.5 -38.5 c 128,-1,31
 273 -37 273 -37 262.5 -26.5 c 128,-1,32
 252 -16 252 -16 250 4 c 1,33,34
 255 39 255 39 259.5 74.5 c 128,-1,35
 264 110 264 110 269 145 c 1,36,-1
 184 145 l 1,37,38
 179 107 179 107 173.5 69.5 c 128,-1,39
 168 32 168 32 163 -6 c 1,40,41
 156 -24 156 -24 143 -32 c 128,-1,42
 130 -40 130 -40 117.5 -38.5 c 128,-1,43
 105 -37 105 -37 94.5 -26.5 c 128,-1,44
 84 -16 84 -16 82 4 c 1,45,46
 87 39 87 39 91.5 74.5 c 128,-1,47
 96 110 96 110 101 145 c 1,48,-1
 67 145 l 2,49,50
 45 148 45 148 34.5 160.5 c 128,-1,51
 24 173 24 173 24.5 187.5 c 128,-1,52
 25 202 25 202 36.5 214 c 128,-1,53
 48 226 48 226 70 227 c 2,54,-1
 112 227 l 1,55,56
 117 258 117 258 120.5 289 c 128,-1,57
 124 320 124 320 129 352 c 1,58,-1
 98 352 l 2,59,60
 76 355 76 355 65.5 367.5 c 128,-1,61
 55 380 55 380 55.5 394.5 c 128,-1,62
 56 409 56 409 67.5 421 c 128,-1,63
 79 433 79 433 101 434 c 2,64,-1
 140 434 l 1,65,66
 145 469 145 469 149.5 503.5 c 128,-1,67
 154 538 154 538 159 573 c 0,68,69
 164 595 164 595 177.5 604.5 c 128,-1,70
 191 614 191 614 205 612 c 128,-1,71
 219 610 219 610 230 597.5 c 128,-1,72
 241 585 241 585 240 563 c 2,73,-1
 222 434 l 1,74,-1
 307 434 l 1,75,76
 312 469 312 469 317 504 c 128,-1,77
 322 539 322 539 327 574 c 0,0,1
280 227 m 1,78,79
 285 258 285 258 288.5 289 c 128,-1,80
 292 320 292 320 296 352 c 1,81,-1
 211 352 l 1,82,83
 207 320 207 320 203 289 c 128,-1,84
 199 258 199 258 195 227 c 1,85,-1
 280 227 l 1,86,-1
 280 227 l 1,78,79
EndSplineSet
EndChar

StartChar: dollar
Encoding: 36 36 3
Width: 500
Flags: W
LayerCount: 2
Fore
SplineSet
49 105 m 1,0,1
 42 120 42 120 40 128 c 128,-1,2
 38 136 38 136 41 149 c 128,-1,3
 44 162 44 162 51.5 167.5 c 128,-1,4
 59 173 59 173 73 172 c 0,5,6
 79 170 79 170 89 163 c 128,-1,7
 99 156 99 156 107 148 c 128,-1,8
 115 140 115 140 137 124 c 128,-1,9
 159 108 159 108 172 103 c 2,10,-1
 199 92 l 1,11,-1
 200 287 l 1,12,13
 181 296 181 296 153 309 c 128,-1,14
 125 322 125 322 100 341.5 c 128,-1,15
 75 361 75 361 57 387.5 c 128,-1,16
 39 414 39 414 39 448 c 0,17,18
 39 475 39 475 50 500.5 c 128,-1,19
 61 526 61 526 81.5 547 c 128,-1,20
 102 568 102 568 132 582 c 128,-1,21
 162 596 162 596 200 601 c 1,22,-1
 200 635 l 2,23,24
 200 669 200 669 207 694.5 c 128,-1,25
 214 720 214 720 242 720 c 0,26,27
 269 720 269 720 276 696.5 c 128,-1,28
 283 673 283 673 283 641 c 0,29,30
 283 630 283 630 282.5 620 c 128,-1,31
 282 610 282 610 282 599 c 1,32,33
 295 597 295 597 318.5 590 c 128,-1,34
 342 583 342 583 365.5 572.5 c 128,-1,35
 389 562 389 562 425.5 533 c 128,-1,36
 462 504 462 504 462 486 c 0,37,38
 464 473 464 473 449.5 462.5 c 128,-1,39
 435 452 435 452 417 454 c 1,40,41
 399 462 399 462 378.5 478 c 128,-1,42
 358 494 358 494 333.5 506.5 c 128,-1,43
 309 519 309 519 280 525 c 1,44,45
 279 481 279 481 280 431 c 128,-1,46
 281 381 281 381 280 336 c 1,47,48
 312 324 312 324 344.5 312.5 c 128,-1,49
 377 301 377 301 403 282 c 128,-1,50
 429 263 429 263 445.5 237 c 128,-1,51
 462 211 462 211 462 175 c 0,52,53
 462 133 462 133 445.5 104 c 128,-1,54
 429 75 429 75 403 55.5 c 128,-1,55
 377 36 377 36 344.5 25 c 128,-1,56
 312 14 312 14 280 8 c 1,57,58
 280 -9 280 -9 280 -26.5 c 128,-1,59
 280 -44 280 -44 281 -62 c 1,60,61
 276 -81 276 -81 264.5 -90 c 128,-1,62
 253 -99 253 -99 240 -99 c 0,63,64
 222 -99 222 -99 213.5 -88.5 c 128,-1,65
 205 -78 205 -78 202 -62 c 128,-1,66
 199 -46 199 -46 199 -26 c 128,-1,67
 199 -6 199 -6 198 12 c 1,68,-1
 197 13 l 1,69,70
 166 21 166 21 143.5 30 c 128,-1,71
 121 39 121 39 104.5 50.5 c 128,-1,72
 88 62 88 62 75 75.5 c 128,-1,73
 62 89 62 89 49 105 c 1,0,1
280 262 m 1,74,75
 280 221 280 221 280 172.5 c 128,-1,76
 280 124 280 124 280 84 c 1,77,78
 297 83 297 83 317.5 91.5 c 128,-1,79
 338 100 338 100 361 116 c 0,80,81
 388 141 388 141 389.5 162.5 c 128,-1,82
 391 184 391 184 378 204 c 0,83,84
 361 225 361 225 340 237 c 128,-1,85
 319 249 319 249 280 262 c 1,74,75
202 526 m 1,86,87
 177 522 177 522 168 519 c 128,-1,88
 159 516 159 516 144 507 c 128,-1,89
 129 498 129 498 120 489 c 128,-1,90
 111 480 111 480 109 459 c 0,91,92
 112 425 112 425 139.5 403.5 c 128,-1,93
 167 382 167 382 201 362 c 1,94,-1
 202 526 l 1,86,87
EndSplineSet
EndChar

StartChar: percent
Encoding: 37 37 4
Width: 500
Flags: W
LayerCount: 2
Fore
SplineSet
395 590 m 1,0,1
 411 603 411 603 428 603 c 0,2,3
 444 603 444 603 455 592 c 128,-1,4
 466 581 466 581 466 564 c 0,5,6
 466 555 466 555 461 542 c 0,7,8
 401 457 401 457 381 426 c 128,-1,9
 361 395 361 395 306.5 316.5 c 128,-1,10
 252 238 252 238 196.5 158.5 c 128,-1,11
 141 79 141 79 108 32 c 0,12,13
 100 21 100 21 89.5 17 c 128,-1,14
 79 13 79 13 71 13 c 0,15,16
 56 13 56 13 44.5 23.5 c 128,-1,17
 33 34 33 34 33 51 c 0,18,19
 33 65 33 65 42 80 c 0,20,21
 102 165 102 165 143.5 225.5 c 128,-1,22
 185 286 185 286 239.5 364 c 128,-1,23
 294 442 294 442 349.5 521.5 c 128,-1,24
 405 601 405 601 395 590 c 1,0,1
349 171 m 0,25,26
 330 171 330 171 314 156 c 128,-1,27
 298 141 298 141 298 120 c 256,28,29
 298 99 298 99 314 84 c 128,-1,30
 330 69 330 69 349 69 c 0,31,32
 367 69 367 69 383 84 c 128,-1,33
 399 99 399 99 399 120 c 256,34,35
 399 141 399 141 383 156 c 128,-1,36
 367 171 367 171 349 171 c 0,25,26
349 247 m 256,37,38
 396 247 396 247 435 210.5 c 128,-1,39
 474 174 474 174 474 123 c 0,40,41
 474 71 474 71 435 34 c 128,-1,42
 396 -3 396 -3 349 -3 c 256,43,44
 302 -3 302 -3 262 34 c 128,-1,45
 222 71 222 71 222 125 c 0,46,47
 222 176 222 176 262 211.5 c 128,-1,48
 302 247 302 247 349 247 c 256,37,38
159 544 m 0,49,50
 140 544 140 544 124 529 c 128,-1,51
 108 514 108 514 108 493 c 256,52,53
 108 472 108 472 124 457 c 128,-1,54
 140 442 140 442 159 442 c 0,55,56
 177 442 177 442 193 457 c 128,-1,57
 209 472 209 472 209 493 c 256,58,59
 209 514 209 514 193 529 c 128,-1,60
 177 544 177 544 159 544 c 0,49,50
159 620 m 256,61,62
 206 620 206 620 245 583.5 c 128,-1,63
 284 547 284 547 284 496 c 0,64,65
 284 444 284 444 245 407 c 128,-1,66
 206 370 206 370 159 370 c 256,67,68
 112 370 112 370 72 407 c 128,-1,69
 32 444 32 444 32 496 c 0,70,71
 32 547 32 547 72 583.5 c 128,-1,72
 112 620 112 620 159 620 c 256,61,62
EndSplineSet
EndChar

StartChar: ampersand
Encoding: 38 38 5
Width: 500
Flags: W
LayerCount: 2
Fore
SplineSet
439 57 m 0,0,1
 461 41 461 41 457 23 c 0,2,3
 457 8 457 8 445.5 -3.5 c 128,-1,4
 434 -15 434 -15 413 -15 c 0,5,6
 407 -15 407 -15 404 -14 c 0,7,8
 380 1 380 1 361 25.5 c 128,-1,9
 342 50 342 50 324 72 c 1,10,11
 291 22 291 22 255.5 2 c 128,-1,12
 220 -18 220 -18 195 -17 c 0,13,14
 157 -17 157 -17 134.5 -3.5 c 128,-1,15
 112 10 112 10 87 36 c 128,-1,16
 62 62 62 62 45.5 96 c 128,-1,17
 29 130 29 130 29 171 c 0,18,19
 29 203 29 203 38 228 c 128,-1,20
 47 253 47 253 62 273 c 128,-1,21
 77 293 77 293 90.5 306 c 128,-1,22
 104 319 104 319 123 331 c 1,23,24
 103 361 103 361 92.5 403.5 c 128,-1,25
 82 446 82 446 82 486 c 0,26,27
 82 516 82 516 95 539 c 128,-1,28
 108 562 108 562 128.5 578.5 c 128,-1,29
 149 595 149 595 166 602.5 c 128,-1,30
 183 610 183 610 197 610 c 0,31,32
 219 605 219 605 237 598 c 128,-1,33
 255 591 255 591 273 575 c 128,-1,34
 291 559 291 559 305 533 c 128,-1,35
 319 507 319 507 314 477 c 1,36,37
 314 452 314 452 306.5 427 c 128,-1,38
 299 402 299 402 285 380.5 c 128,-1,39
 271 359 271 359 252.5 341.5 c 128,-1,40
 234 324 234 324 211 313 c 1,41,-1
 271 244 l 2,42,43
 288 225 288 225 293 214 c 128,-1,44
 298 203 298 203 316 187 c 1,45,46
 342 228 342 228 365 259.5 c 128,-1,47
 388 291 388 291 397 319 c 0,48,49
 405 333 405 333 415.5 339 c 128,-1,50
 426 345 426 345 436 345 c 0,51,52
 451 345 451 345 463 333.5 c 128,-1,53
 475 322 475 322 473 307 c 0,54,55
 471 293 471 293 449 262 c 128,-1,56
 427 231 427 231 426.5 229.5 c 128,-1,57
 426 228 426 228 396 184.5 c 128,-1,58
 366 141 366 141 365 129 c 1,59,60
 385 101 385 101 398 91.5 c 128,-1,61
 411 82 411 82 439 57 c 0,0,1
221 74 m 0,62,63
 236 81 236 81 248 95 c 128,-1,64
 260 109 260 109 276 123 c 1,65,66
 242 161 242 161 226 186.5 c 128,-1,67
 210 212 210 212 165 265 c 1,68,69
 150 256 150 256 146 250 c 128,-1,70
 142 244 142 244 131 232.5 c 128,-1,71
 120 221 120 221 113 205.5 c 128,-1,72
 106 190 106 190 106 169 c 0,73,74
 106 146 106 146 115.5 127 c 128,-1,75
 125 108 125 108 137 92 c 128,-1,76
 149 76 149 76 170 68.5 c 128,-1,77
 191 61 191 61 195 65 c 1,78,79
 207 65 207 65 221 74 c 0,62,63
149 461 m 0,80,81
 157 429 157 429 163 409 c 128,-1,82
 169 389 169 389 190 373 c 1,83,84
 217 389 217 389 228.5 413.5 c 128,-1,85
 240 438 240 438 238 478 c 0,86,87
 236 511 236 511 220 524 c 128,-1,88
 204 537 204 537 194 537 c 0,89,90
 182 537 182 537 168.5 526.5 c 128,-1,91
 155 516 155 516 149.5 498 c 128,-1,92
 144 480 144 480 149 461 c 0,80,81
EndSplineSet
EndChar

StartChar: quotesingle
Encoding: 39 39 6
Width: 500
Flags: W
LayerCount: 2
Fore
SplineSet
199 573 m 1,0,1
 203 595 203 595 215 603 c 0,2,3
 232 613 232 613 250 613 c 0,4,5
 265 612 265 612 280 604 c 0,6,7
 298 595 298 595 301 576 c 2,8,-1
 301 424 l 2,9,10
 303 402 303 402 287 390 c 256,11,12
 271 378 271 378 250 378 c 0,13,14
 232 379 232 379 218 389 c 0,15,16
 201 399 201 399 199 421 c 2,17,-1
 199 573 l 1,18,-1
 199 573 l 1,0,1
EndSplineSet
EndChar

StartChar: parenleft
Encoding: 40 40 7
Width: 500
Flags: W
LayerCount: 2
Fore
SplineSet
355 -22 m 0,0,1
 366 -38 366 -38 366 -53 c 128,-1,2
 366 -68 366 -68 357.5 -77.5 c 128,-1,3
 349 -87 349 -87 334.5 -90 c 128,-1,4
 320 -93 320 -93 302 -84 c 1,5,6
 290 -73 290 -73 277 -63 c 128,-1,7
 264 -53 264 -53 255 -40 c 0,8,9
 212 7 212 7 180.5 94 c 128,-1,10
 149 181 149 181 149 239 c 128,-1,11
 149 297 149 297 153.5 317 c 128,-1,12
 158 337 158 337 176 402 c 0,13,14
 186 431 186 431 198 456.5 c 128,-1,15
 210 482 210 482 224 506 c 128,-1,16
 238 530 238 530 254 553.5 c 128,-1,17
 270 577 270 577 287 602 c 1,18,19
 302 614 302 614 316.5 615 c 128,-1,20
 331 616 331 616 341.5 608.5 c 128,-1,21
 352 601 352 601 356 586.5 c 128,-1,22
 360 572 360 572 353 554 c 0,23,24
 337 529 337 529 322.5 508.5 c 128,-1,25
 308 488 308 488 296 467.5 c 128,-1,26
 284 447 284 447 273 425 c 128,-1,27
 262 403 262 403 253 375 c 0,28,29
 230 289 230 289 228 256 c 128,-1,30
 226 223 226 223 231 197 c 128,-1,31
 236 171 236 171 254.5 118 c 128,-1,32
 273 65 273 65 318 12 c 0,33,34
 326 3 326 3 336 -5.5 c 128,-1,35
 346 -14 346 -14 355 -22 c 0,0,1
EndSplineSet
EndChar

StartChar: parenright
Encoding: 41 41 8
Width: 500
Flags: W
LayerCount: 2
Fore
SplineSet
152 -23 m 0,0,1
 161 -15 161 -15 171 -6.5 c 128,-1,2
 181 2 181 2 189 11 c 0,3,4
 220 60 220 60 249.5 124 c 128,-1,5
 279 188 279 188 277.5 263.5 c 128,-1,6
 276 339 276 339 257 375 c 1,7,8
 248 402 248 402 236.5 423 c 128,-1,9
 225 444 225 444 213 464.5 c 128,-1,10
 201 485 201 485 187 505.5 c 128,-1,11
 173 526 173 526 156 551 c 1,12,13
 149 569 149 569 153 583.5 c 128,-1,14
 157 598 157 598 167.5 605.5 c 128,-1,15
 178 613 178 613 192.5 612 c 128,-1,16
 207 611 207 611 222 599 c 1,17,18
 239 574 239 574 255 550.5 c 128,-1,19
 271 527 271 527 285 503 c 128,-1,20
 299 479 299 479 311 453.5 c 128,-1,21
 323 428 323 428 333 399 c 0,22,23
 361 306 361 306 359.5 262.5 c 128,-1,24
 358 219 358 219 353.5 192 c 128,-1,25
 349 165 349 165 326.5 100.5 c 128,-1,26
 304 36 304 36 252 -41 c 0,27,28
 243 -54 243 -54 230 -64 c 128,-1,29
 217 -74 217 -74 205 -85 c 1,30,31
 187 -94 187 -94 172.5 -91 c 128,-1,32
 158 -88 158 -88 149.5 -78.5 c 128,-1,33
 141 -69 141 -69 141 -54 c 128,-1,34
 141 -39 141 -39 152 -23 c 0,0,1
EndSplineSet
EndChar

StartChar: asterisk
Encoding: 42 42 9
Width: 500
Flags: W
LayerCount: 2
Fore
SplineSet
83 355 m 0,0,1
 67 372 67 372 67 390 c 0,2,3
 67 406 67 406 77.5 417 c 128,-1,4
 88 428 88 428 105 428 c 0,5,6
 117 427 117 427 130.5 419 c 128,-1,7
 144 411 144 411 157 400.5 c 128,-1,8
 170 390 170 390 182.5 378 c 128,-1,9
 195 366 195 366 206 356 c 1,10,11
 206 358 206 358 205.5 360 c 128,-1,12
 205 362 205 362 205 364 c 0,13,14
 209 385 209 385 212.5 410.5 c 128,-1,15
 216 436 216 436 217.5 460 c 128,-1,16
 219 484 219 484 229.5 499 c 128,-1,17
 240 514 240 514 258 514 c 0,18,19
 273 514 273 514 285 502.5 c 128,-1,20
 297 491 297 491 297 469 c 0,21,22
 297 434 297 434 292.5 401.5 c 128,-1,23
 288 369 288 369 286.5 358 c 128,-1,24
 285 347 285 347 286 342 c 128,-1,25
 287 337 287 337 300 349 c 0,26,27
 313 356 313 356 323 360.5 c 128,-1,28
 333 365 333 365 347 371.5 c 128,-1,29
 361 378 361 378 375.5 383.5 c 128,-1,30
 390 389 390 389 400 389 c 0,31,32
 418 389 418 389 429 377 c 128,-1,33
 440 365 440 365 440 350 c 0,34,35
 440 336 440 336 427 323.5 c 128,-1,36
 414 311 414 311 395 300 c 128,-1,37
 376 289 376 289 356.5 282 c 128,-1,38
 337 275 337 275 320 267 c 0,39,40
 317 266 317 266 311 266 c 1,41,-1
 349 207 l 2,42,43
 360 193 360 193 360 176 c 256,44,45
 360 159 360 159 349 148.5 c 128,-1,46
 338 138 338 138 322 138 c 0,47,48
 315 138 315 138 300 147.5 c 128,-1,49
 285 157 285 157 274.5 172.5 c 128,-1,50
 264 188 264 188 250.5 205 c 128,-1,51
 237 222 237 222 232 237 c 1,52,53
 230 233 230 233 224 225 c 2,54,-1
 146 159 l 2,55,56
 131 150 131 150 117 150 c 0,57,58
 100 150 100 150 89.5 161.5 c 128,-1,59
 79 173 79 173 79 188 c 0,60,61
 79 197 79 197 83.5 207 c 128,-1,62
 88 217 88 217 98 225 c 2,63,-1
 171 287 l 1,64,65
 162 289 162 289 150.5 297 c 128,-1,66
 139 305 139 305 127.5 315 c 128,-1,67
 116 325 116 325 104.5 336 c 128,-1,68
 93 347 93 347 83 355 c 0,0,1
EndSplineSet
EndChar

StartChar: plus
Encoding: 43 43 10
Width: 500
Flags: W
LayerCount: 2
Fore
SplineSet
80 262 m 1,0,1
 58 265 58 265 47.5 277 c 128,-1,2
 37 289 37 289 37 303 c 0,3,4
 37 318 37 318 48.5 330.5 c 128,-1,5
 60 343 60 343 83 344 c 2,6,-1
 205 345 l 1,7,-1
 205 473 l 1,8,9
 210 493 210 493 221 503 c 128,-1,10
 232 513 232 513 246 513 c 0,11,12
 259 513 259 513 270.5 504 c 128,-1,13
 282 495 282 495 287 476 c 1,14,-1
 287 345 l 1,15,-1
 423 345 l 1,16,17
 442 340 442 340 451 328.5 c 128,-1,18
 460 317 460 317 460 304 c 0,19,20
 460 290 460 290 450 279 c 128,-1,21
 440 268 440 268 420 263 c 1,22,-1
 287 263 l 1,23,-1
 287 137 l 2,24,25
 286 114 286 114 273.5 102.5 c 128,-1,26
 261 91 261 91 246 91 c 0,27,28
 232 91 232 91 220 101.5 c 128,-1,29
 208 112 208 112 205 134 c 2,30,-1
 205 263 l 1,31,-1
 80 262 l 1,32,-1
 80 262 l 1,0,1
EndSplineSet
EndChar

StartChar: comma
Encoding: 44 44 11
Width: 500
Flags: W
LayerCount: 2
Fore
SplineSet
235 88 m 0,0,1
 215 50 215 50 197 11 c 128,-1,2
 179 -28 179 -28 141 -109 c 0,3,4
 140 -113 140 -113 140 -116.5 c 128,-1,5
 140 -120 140 -120 140 -123 c 0,6,7
 140 -143 140 -143 154 -153.5 c 128,-1,8
 168 -164 168 -164 183 -166 c 256,9,10
 198 -168 198 -168 212.5 -160 c 128,-1,11
 227 -152 227 -152 231 -142 c 0,12,13
 251 -104 251 -104 279 -45 c 128,-1,14
 307 14 307 14 326 52 c 0,15,16
 331 65 331 65 331 74 c 0,17,18
 331 92 331 92 311.5 105 c 128,-1,19
 292 118 292 118 274 114 c 0,20,21
 249 112 249 112 235 88 c 0,0,1
EndSplineSet
EndChar

StartChar: hyphen
Encoding: 45 45 12
Width: 500
Flags: W
LayerCount: 2
Fore
SplineSet
82 262 m 4,0,1
 60 265 60 265 49.5 277 c 132,-1,2
 39 289 39 289 39 303 c 260,3,4
 39 317 39 317 50.5 330.5 c 132,-1,5
 62 344 62 344 85 344 c 4,6,7
 97 344 97 344 125.5 344 c 132,-1,8
 154 344 154 344 198.5 344.5 c 132,-1,9
 243 345 243 345 281.5 345 c 132,-1,10
 320 345 320 345 421 345 c 5,11,12
 440 340 440 340 449 328.5 c 132,-1,13
 458 317 458 317 458 304 c 4,14,15
 458 290 458 290 448 279 c 132,-1,16
 438 268 438 268 418 263 c 5,17,18
 351 263 351 263 240 262.5 c 132,-1,19
 129 262 129 262 82 262 c 4,0,1
EndSplineSet
EndChar

StartChar: period
Encoding: 46 46 13
Width: 500
Flags: W
LayerCount: 2
Fore
SplineSet
248 143 m 0,0,1
 276 143 276 143 300.5 120.5 c 128,-1,2
 325 98 325 98 325 68 c 0,3,4
 325 37 325 37 300.5 15 c 128,-1,5
 276 -7 276 -7 248 -7 c 0,6,7
 219 -7 219 -7 196 15 c 128,-1,8
 173 37 173 37 173 68 c 0,9,10
 173 98 173 98 196 120.5 c 128,-1,11
 219 143 219 143 248 143 c 0,0,1
EndSplineSet
EndChar

StartChar: slash
Encoding: 47 47 14
Width: 500
Flags: W
LayerCount: 2
Fore
SplineSet
361 682 m 1,0,1
 377 708 377 708 400 708 c 0,2,3
 415 708 415 708 427 697 c 128,-1,4
 439 686 439 686 439 668 c 0,5,6
 439 659 439 659 434 646 c 0,7,8
 359 471 359 471 283.5 298 c 128,-1,9
 208 125 208 125 132 -50 c 0,10,11
 124 -61 124 -61 114 -65.5 c 128,-1,12
 104 -70 104 -70 95 -70 c 0,13,14
 80 -70 80 -70 69 -59 c 128,-1,15
 58 -48 58 -48 58 -28 c 0,16,17
 58 -25 58 -25 58 -21.5 c 128,-1,18
 58 -18 58 -18 59 -14 c 0,19,20
 134 161 134 161 209.5 334 c 128,-1,21
 285 507 285 507 361 682 c 1,0,1
EndSplineSet
EndChar

StartChar: zero
Encoding: 48 48 15
Width: 500
Flags: W
LayerCount: 2
Fore
SplineSet
253 247 m 0,0,1
 196 204 196 204 133 155 c 1,2,3
 142 135 142 135 157 107 c 1,4,5
 189 63 189 63 236 56 c 1,6,7
 281 56 281 56 312 102 c 1,8,9
 356 153 356 153 366 197 c 0,10,11
 390 288 390 288 384 345 c 1,12,13
 350 321 350 321 253 247 c 0,0,1
259 527 m 0,14,15
 209 521 209 521 182 491 c 1,16,17
 155 470 155 470 134 400 c 0,18,19
 112 328 112 328 118 234 c 1,20,21
 323 391 323 391 367 423 c 1,22,23
 359 453 359 453 328 493 c 1,24,25
 286 529 286 529 259 527 c 0,14,15
459 231 m 1,26,27
 450 194 450 194 432.5 151.5 c 128,-1,28
 415 109 415 109 389 72 c 128,-1,29
 363 35 363 35 328 8.5 c 128,-1,30
 293 -18 293 -18 274 -23 c 0,31,32
 245 -27 245 -27 217.5 -23 c 128,-1,33
 190 -19 190 -19 170 -10 c 0,34,35
 149 0 149 0 132 12.5 c 128,-1,36
 115 25 115 25 101 45 c 0,37,38
 77 77 77 77 62.5 114 c 0,39,40
 62.4154202362 114.215824225 62.4154202362 114.215824225 62.3311126717 114.431733512 c 0,41,42
 61.6896973134 114.185477538 61.6896973134 114.185477538 61.0439453125 113.950195312 c 0,43,44
 40.8740234375 106.6015625 40.8740234375 106.6015625 26.107421875 112.525390625 c 128,-1,45
 11.33984375 118.448242188 11.33984375 118.448242188 11.3017578125 133.903320312 c 128,-1,46
 11.263671875 149.358398438 11.263671875 149.358398438 26.7822265625 166.936523438 c 0,47,48
 34.4771863853 175.653251166 34.4771863853 175.653251166 43.0163885769 181.895609555 c 0,49,50
 42.2104132694 186.182873209 42.2104132694 186.182873209 41.5 190.5 c 0,51,52
 35 230 35 230 35.5 270.5 c 128,-1,53
 36 311 36 311 42 350 c 0,54,55
 48 392 48 392 64.5 437 c 128,-1,56
 81 482 81 482 108 520 c 128,-1,57
 135 558 135 558 168 582.5 c 128,-1,58
 201 607 201 607 250 609 c 0,59,60
 273 610 273 610 290 606.5 c 128,-1,61
 307 603 307 603 316 599 c 0,62,63
 337 589 337 589 355 576 c 128,-1,64
 373 563 373 563 389 546 c 0,65,66
 418 515 418 515 434 476.5 c 0,67,68
 436.923377222 469.46562356 436.923377222 469.46562356 439.546304407 462.331097107 c 1,69,70
 441.411041267 463.121807181 441.411041267 463.121807181 443.309570312 463.813476562 c 0,71,72
 463.478515625 471.162109375 463.478515625 471.162109375 478.24609375 465.23828125 c 128,-1,73
 493.012695312 459.314453125 493.012695312 459.314453125 493.05078125 443.860351562 c 128,-1,74
 493.088867188 428.405273438 493.088867188 428.405273438 477.151367188 410.352539062 c 0,75,76
 468.039049849 400.030903707 468.039049849 400.030903707 457.543954239 393.208348548 c 1,77,78
 464 353.3153204 464 353.3153204 464 312.5 c 0,79,80
 464 270 464 270 459 231 c 1,26,27
EndSplineSet
EndChar

StartChar: one
Encoding: 49 49 16
Width: 500
Flags: W
LayerCount: 2
Fore
SplineSet
449 5 m 0,0,1
 431 -10 431 -10 341 -1 c 1,2,3
 341 -1 341 -1 292.5 -1 c 128,-1,4
 244 -1 244 -1 163 4 c 0,5,6
 97 5 97 5 47 3 c 0,7,8
 29 4 29 4 27 31 c 0,9,10
 27 59 27 59 49 67 c 0,11,12
 67 76 67 76 123.5 75.5 c 128,-1,13
 180 75 180 75 232 72 c 1,14,15
 236 201 236 201 232 259 c 128,-1,16
 228 317 228 317 233 480 c 1,17,18
 150 403 150 403 126 394 c 1,19,20
 106 392 106 392 94.5 404 c 128,-1,21
 83 416 83 416 83 431 c 0,22,23
 83 440 83 440 87.5 450 c 128,-1,24
 92 460 92 460 188 547 c 1,25,-1
 253 601 l 1,26,27
 266 606 266 606 275 606 c 0,28,29
 306 606 306 606 315 571 c 1,30,31
 309 385 309 385 314.5 284.5 c 128,-1,32
 320 184 320 184 314 73 c 1,33,34
 356 69 356 69 389 72 c 0,35,36
 450 73 450 73 458 61 c 0,37,38
 466 51 466 51 467.5 39 c 128,-1,39
 469 27 469 27 449 5 c 0,0,1
EndSplineSet
EndChar

StartChar: two
Encoding: 50 50 17
Width: 500
Flags: W
LayerCount: 2
Fore
SplineSet
330 481 m 0,0,1
 322 499 322 499 308.5 511 c 128,-1,2
 295 523 295 523 281 525 c 0,3,4
 237 525 237 525 201 501.5 c 128,-1,5
 165 478 165 478 135 446 c 0,6,7
 121 436 121 436 105 436 c 0,8,9
 88 436 88 436 77.5 447.5 c 128,-1,10
 67 459 67 459 67 477 c 0,11,12
 67 493 67 493 76 508 c 0,13,14
 95 528 95 528 117 547.5 c 128,-1,15
 139 567 139 567 164 582 c 128,-1,16
 189 597 189 597 215.5 606 c 128,-1,17
 242 615 242 615 270 615 c 0,18,19
 302 615 302 615 330 601.5 c 128,-1,20
 358 588 358 588 378.5 563.5 c 128,-1,21
 399 539 399 539 411 505 c 128,-1,22
 423 471 423 471 423 431 c 0,23,24
 423 418 423 418 420 404 c 0,25,26
 409 358 409 358 386.5 329 c 128,-1,27
 364 300 364 300 336.5 279.5 c 128,-1,28
 309 259 309 259 284 240.5 c 128,-1,29
 259 222 259 222 239.5 200 c 128,-1,30
 220 178 220 178 196.5 151.5 c 128,-1,31
 173 125 173 125 155 85 c 1,32,-1
 345 85 l 2,33,34
 357 85 357 85 375.5 85.5 c 128,-1,35
 394 86 394 86 399 86 c 0,36,37
 417 86 417 86 425.5 70.5 c 128,-1,38
 434 55 434 55 434 38 c 1,39,40
 425 11 425 11 422.5 5 c 128,-1,41
 420 -1 420 -1 348 -4 c 2,42,-1
 110 -4 l 1,43,44
 71 0 71 0 67 43 c 1,45,46
 75 79 75 79 81 107 c 128,-1,47
 87 135 87 135 105 165 c 128,-1,48
 123 195 123 195 141 215 c 128,-1,49
 159 235 159 235 182 257 c 0,50,51
 202 278 202 278 224.5 299 c 128,-1,52
 247 320 247 320 274 339.5 c 128,-1,53
 301 359 301 359 320 385 c 128,-1,54
 339 411 339 411 339 448 c 0,55,56
 339 458 339 458 335 469 c 128,-1,57
 331 480 331 480 330 481 c 0,0,1
EndSplineSet
EndChar

StartChar: three
Encoding: 51 51 18
Width: 500
Flags: W
LayerCount: 2
Fore
SplineSet
63 71 m 0,0,1
 52 86 52 86 52 102 c 0,2,3
 52 119 52 119 63 129.5 c 128,-1,4
 74 140 74 140 91 140 c 0,5,6
 98 139 98 139 117.5 129 c 128,-1,7
 137 119 137 119 147 109 c 128,-1,8
 157 99 157 99 178 87 c 128,-1,9
 199 75 199 75 234 72 c 0,10,11
 261 72 261 72 282.5 83.5 c 128,-1,12
 304 95 304 95 318.5 114 c 128,-1,13
 333 133 333 133 340.5 157 c 128,-1,14
 348 181 348 181 348 206 c 0,15,16
 348 232 348 232 330.5 249 c 128,-1,17
 313 266 313 266 287.5 276 c 128,-1,18
 262 286 262 286 235 290 c 128,-1,19
 208 294 208 294 188 294 c 1,20,21
 169 299 169 299 160 310.5 c 128,-1,22
 151 322 151 322 151 335 c 256,23,24
 151 348 151 348 161 359.5 c 128,-1,25
 171 371 171 371 191 376 c 0,26,27
 209 378 209 378 229 382.5 c 128,-1,28
 249 387 249 387 268 394.5 c 128,-1,29
 287 402 287 402 302.5 413.5 c 128,-1,30
 318 425 318 425 326 442 c 1,31,-1
 327 467 l 1,32,-1
 323 488 l 2,33,34
 321 499 321 499 313 506 c 128,-1,35
 305 513 305 513 293.5 517 c 128,-1,36
 282 521 282 521 269 522.5 c 128,-1,37
 256 524 256 524 244 524 c 0,38,39
 221 524 221 524 194 519.5 c 128,-1,40
 167 515 167 515 140 500 c 0,41,42
 129 492 129 492 120 486.5 c 128,-1,43
 111 481 111 481 100 481 c 0,44,45
 84 481 84 481 72.5 493.5 c 128,-1,46
 61 506 61 506 61 530 c 0,47,48
 64 547 64 547 78 559 c 128,-1,49
 92 571 92 571 109.5 579.5 c 128,-1,50
 127 588 127 588 155.5 596 c 128,-1,51
 184 604 184 604 203 604.5 c 128,-1,52
 222 605 222 605 231.5 605 c 128,-1,53
 241 605 241 605 237 605 c 1,54,55
 273 605 273 605 304 596.5 c 128,-1,56
 335 588 335 588 358.5 570.5 c 128,-1,57
 382 553 382 553 395.5 526 c 128,-1,58
 409 499 409 499 409 462 c 0,59,60
 409 455 409 455 408 441 c 128,-1,61
 407 427 407 427 401 410.5 c 128,-1,62
 395 394 395 394 380.5 375.5 c 128,-1,63
 366 357 366 357 339 339 c 1,64,65
 357 329 357 329 374.5 314.5 c 128,-1,66
 392 300 392 300 405.5 281.5 c 128,-1,67
 419 263 419 263 427 241 c 128,-1,68
 435 219 435 219 435 194 c 0,69,70
 435 156 435 156 417.5 119 c 128,-1,71
 400 82 400 82 372.5 53.5 c 128,-1,72
 345 25 345 25 310 7.5 c 128,-1,73
 275 -10 275 -10 240 -10 c 0,74,75
 191 -12 191 -12 142 14 c 128,-1,76
 93 40 93 40 63 71 c 0,0,1
EndSplineSet
EndChar

StartChar: four
Encoding: 52 52 19
Width: 500
InSpiro: 1
Flags: W
LayerCount: 2
Fore
SplineSet
341 18 m 1,0,-1
 337.125 -2.25 l 1,1,-1
 327.5 -17 l 1,2,-1
 314.125 -26 l 1,3,-1
 299 -29 l 1,4,-1
 285.625 -26.375 l 1,5,-1
 273.5 -18.5 l 1,6,-1
 264.125 -4.875 l 1,7,-1
 259 15 l 1,8,-1
 259 181 l 1,9,-1
 209.375 182.125 l 1,10,-1
 174.5 183.5 l 1,11,-1
 141.875 186.125 l 1,12,-1
 99 191 l 1,13,-1
 66.75 216.25 l 1,14,-1
 60 246 l 1,15,-1
 53 319 l 1,16,-1
 48 419 l 1,17,-1
 54 495 l 1,18,-1
 77.125 576.75 l 1,19,-1
 89.5 584 l 1,20,-1
 100.125 586.25 l 1,21,-1
 111 587 l 1,22,-1
 125.625 585.375 l 1,23,-1
 137.5 578.5 l 1,24,-1
 144.875 566.375 l 1,25,-1
 140 529 l 1,26,-1
 136 477 l 1,27,-1
 136 429 l 1,28,-1
 136 375 l 1,29,-1
 141 303 l 1,30,-1
 143 268 l 1,31,-1
 172.25 263.875 l 1,32,-1
 206 263.5 l 1,33,-1
 237.25 264.375 l 1,34,-1
 259 264 l 1,35,-1
 259 343 l 1,36,-1
 265.375 360.375 l 1,37,-1
 274.5 372.5 l 1,38,-1
 285.875 379.625 l 1,39,-1
 299 382 l 1,40,-1
 312.375 379.875 l 1,41,-1
 324.5 373.5 l 1,42,-1
 334.375 362.375 l 1,43,-1
 341 346 l 1,44,-1
 341 263 l 1,45,-1
 423 263 l 1,46,-1
 440.25 255 l 1,47,-1
 452 245 l 1,48,-1
 458.75 233.5 l 1,49,-1
 461 221 l 1,50,-1
 458.375 207.625 l 1,51,-1
 450.5 195.5 l 1,52,-1
 437.625 185.625 l 1,53,-1
 420 179 l 1,54,-1
 393 179 l 1,55,-1
 373 179.25 l 1,56,-1
 341 180 l 1,57,-1
 341 18 l 1,0,-1
  Spiro
    341 18 v
    337.125 -2.25 o
    327.5 -17 o
    314.125 -26 o
    299 -29 o
    285.625 -26.375 o
    273.5 -18.5 o
    264.125 -4.875 o
    259 15 [
    259 181 v
    209.375 182.125 o
    174.5 183.5 o
    141.875 186.125 o
    99 191 v
    66.75 216.25 o
    60 246 o
    53 319 o
    53 319 v
    48 419 o
    54 495 o
    77.125 576.75 o
    89.5 584 o
    100.125 586.25 o
    111 587 o
    125.625 585.375 o
    137.5 578.5 o
    144.875 566.375 o
    140 529 o
    136 477 o
    136 429 o
    136 375 o
    141 303 o
    143 268 v
    172.25 263.875 o
    206 263.5 o
    237.25 264.375 o
    259 264 v
    259 343 v
    265.375 360.375 o
    274.5 372.5 o
    285.875 379.625 o
    299 382 o
    312.375 379.875 o
    324.5 373.5 o
    334.375 362.375 o
    341 346 v
    341 263 v
    423 263 v
    440.25 255 o
    452 245 o
    458.75 233.5 o
    461 221 o
    458.375 207.625 o
    450.5 195.5 o
    437.625 185.625 o
    420 179 o
    393 179 o
    373 179.25 o
    341 180 v
    341 18 v
    0 0 z
  EndSpiro
EndSplineSet
EndChar

StartChar: five
Encoding: 53 53 20
Width: 500
Flags: W
LayerCount: 2
Fore
SplineSet
74 39 m 1,0,1
 58 56 58 56 58 76 c 0,2,3
 58 93 58 93 69 104.5 c 128,-1,4
 80 116 80 116 99 116 c 0,5,6
 109 116 109 116 118 113 c 0,7,8
 144 96 144 96 172 86 c 128,-1,9
 200 76 200 76 231 76 c 0,10,11
 257 76 257 76 280 85 c 128,-1,12
 303 94 303 94 321 110.5 c 128,-1,13
 339 127 339 127 349.5 150 c 128,-1,14
 360 173 360 173 360 201 c 256,15,16
 360 229 360 229 347 248.5 c 128,-1,17
 334 268 334 268 314.5 280 c 128,-1,18
 295 292 295 292 272 297.5 c 128,-1,19
 249 303 249 303 229 303 c 0,20,21
 212 303 212 303 195.5 300.5 c 128,-1,22
 179 298 179 298 162 293 c 0,23,24
 155 289 155 289 150.5 284.5 c 128,-1,25
 146 280 146 280 141.5 276 c 128,-1,26
 137 272 137 272 131.5 269.5 c 128,-1,27
 126 267 126 267 118 267 c 0,28,29
 103 267 103 267 90.5 278 c 128,-1,30
 78 289 78 289 75 313 c 0,31,32
 73 364 73 364 72 415 c 128,-1,33
 71 466 71 466 69 519 c 1,34,35
 54 533 54 533 54 552 c 0,36,37
 54 568 54 568 66 582 c 128,-1,38
 78 596 78 596 101 596 c 0,39,40
 109 596 109 596 130 596.5 c 128,-1,41
 151 597 151 597 179.5 597.5 c 128,-1,42
 208 598 208 598 239.5 598.5 c 128,-1,43
 271 599 271 599 299 599.5 c 128,-1,44
 327 600 327 600 348.5 600.5 c 128,-1,45
 370 601 370 601 377 601 c 0,46,47
 397 596 397 596 406 584 c 128,-1,48
 415 572 415 572 415 558 c 0,49,50
 415 543 415 543 404.5 531 c 128,-1,51
 394 519 394 519 374 514 c 1,52,53
 318 512 318 512 263.5 512 c 128,-1,54
 209 512 209 512 154 510 c 1,55,56
 155 478 155 478 156 445.5 c 128,-1,57
 157 413 157 413 158 380 c 1,58,59
 176 385 176 385 195 387.5 c 128,-1,60
 214 390 214 390 233 390 c 0,61,62
 282 390 282 390 321.5 373.5 c 128,-1,63
 361 357 361 357 388.5 329 c 128,-1,64
 416 301 416 301 431 266 c 128,-1,65
 446 231 446 231 446 193 c 0,66,67
 446 157 446 157 430.5 121 c 128,-1,68
 415 85 415 85 386.5 55.5 c 128,-1,69
 358 26 358 26 319 7.5 c 128,-1,70
 280 -11 280 -11 233 -11 c 0,71,72
 191 -11 191 -11 150 2.5 c 128,-1,73
 109 16 109 16 74 39 c 1,0,1
EndSplineSet
EndChar

StartChar: six
Encoding: 54 54 21
Width: 500
Flags: W
LayerCount: 2
Fore
SplineSet
302 551 m 0,0,1
 255 510 255 510 213.5 451.5 c 128,-1,2
 172 393 172 393 149 328 c 1,3,4
 206 365 206 365 270 365 c 0,5,6
 308 365 308 365 340.5 353.5 c 128,-1,7
 373 342 373 342 397 319.5 c 128,-1,8
 421 297 421 297 434.5 264.5 c 128,-1,9
 448 232 448 232 448 190 c 0,10,11
 448 145 448 145 434.5 109 c 128,-1,12
 421 73 421 73 396 48.5 c 128,-1,13
 371 24 371 24 337 11 c 128,-1,14
 303 -2 303 -2 261 -2 c 0,15,16
 214 -2 214 -2 171 16 c 128,-1,17
 128 34 128 34 102 69 c 0,18,19
 88 88 88 88 80 100 c 128,-1,20
 72 112 72 112 67 124 c 128,-1,21
 62 136 62 136 58.5 150 c 128,-1,22
 55 164 55 164 50 187 c 0,23,24
 47 204 47 204 47 222 c 0,25,26
 47 273 47 273 62.5 326.5 c 128,-1,27
 78 380 78 380 105 431 c 128,-1,28
 132 482 132 482 168 527.5 c 128,-1,29
 204 573 204 573 244 609 c 0,30,31
 260 622 260 622 277 622 c 0,32,33
 293 622 293 622 304 611 c 128,-1,34
 315 600 315 600 315 584 c 0,35,36
 315 567 315 567 302 551 c 0,0,1
143 211 m 0,37,38
 140 207 140 207 136.5 204 c 128,-1,39
 133 201 133 201 130 199 c 0,40,41
 131 188 131 188 135 177.5 c 128,-1,42
 139 167 139 167 142 156 c 0,43,44
 171 112 171 112 199.5 96.5 c 128,-1,45
 228 81 228 81 259 81 c 0,46,47
 298 81 298 81 319 94.5 c 128,-1,48
 340 108 340 108 350 125.5 c 128,-1,49
 360 143 360 143 362 160.5 c 128,-1,50
 364 178 364 178 364 187 c 0,51,52
 364 214 364 214 356 232.5 c 128,-1,53
 348 251 348 251 334.5 262 c 128,-1,54
 321 273 321 273 305 278 c 128,-1,55
 289 283 289 283 272 283 c 0,56,57
 234 283 234 283 200.5 263.5 c 128,-1,58
 167 244 167 244 143 211 c 0,37,38
EndSplineSet
EndChar

StartChar: seven
Encoding: 55 55 22
Width: 500
Flags: W
LayerCount: 2
Fore
SplineSet
142 262 m 4,0,1
 120 265 120 265 109.5 277 c 132,-1,2
 99 289 99 289 99 303 c 260,3,4
 99 317 99 317 110.5 330.5 c 132,-1,5
 122 344 122 344 145 344 c 4,6,7
 157 344 157 344 185.5 344 c 132,-1,8
 214 344 214 344 228.5 344.5 c 132,-1,9
 243 345 243 345 281.5 345 c 132,-1,10
 320 345 320 345 421 345 c 5,11,12
 440 340 440 340 449 328.5 c 132,-1,13
 458 317 458 317 458 304 c 4,14,15
 458 290 458 290 448 279 c 132,-1,16
 438 268 438 268 418 263 c 5,17,18
 351 263 351 263 240.5 262.5 c 4,19,20
 142 262 l 4,0,1
240 10 m 1,21,22
 233 -7 233 -7 222 -15 c 128,-1,23
 211 -23 211 -23 199 -23 c 0,24,25
 185 -23 185 -23 173 -12 c 128,-1,26
 161 -1 161 -1 159 20 c 1,27,28
 165 81 165 81 182 148 c 128,-1,29
 199 215 199 215 224 280 c 132,-1,30
 249 345 249 345 282 405.5 c 128,-1,31
 315 466 315 466 352 514 c 1,32,-1
 66 514 l 2,33,34
 44 517 44 517 33.5 529 c 128,-1,35
 23 541 23 541 23 555 c 0,36,37
 23 570 23 570 34.5 582.5 c 128,-1,38
 46 595 46 595 69 596 c 2,39,-1
 442 596 l 1,40,41
 477 587 477 587 477 556 c 0,42,43
 477 547 477 547 472 534 c 1,44,45
 458 517 458 517 444.5 500.5 c 128,-1,46
 431 484 431 484 418 466 c 0,47,48
 384 417 384 417 354 362 c 132,-1,49
 324 307 324 307 300.5 249 c 132,-1,50
 277 191 277 191 261.5 130.5 c 128,-1,51
 246 70 246 70 240 10 c 1,21,22
EndSplineSet
EndChar

StartChar: eight
Encoding: 56 56 23
Width: 500
Flags: W
LayerCount: 2
Fore
SplineSet
40 145 m 1,0,1
 47 175 47 175 54 202 c 128,-1,2
 61 229 61 229 86 254 c 0,3,4
 103 274 103 274 124.5 288.5 c 128,-1,5
 146 303 146 303 169 317 c 1,6,7
 127 348 127 348 98.5 389.5 c 128,-1,8
 70 431 70 431 70 485 c 0,9,10
 70 523 70 523 89 548.5 c 128,-1,11
 108 574 108 574 138 590 c 128,-1,12
 168 606 168 606 204 612.5 c 128,-1,13
 240 619 240 619 274 619 c 0,14,15
 302 619 302 619 331.5 612.5 c 128,-1,16
 361 606 361 606 385.5 591.5 c 128,-1,17
 410 577 410 577 425.5 553 c 128,-1,18
 441 529 441 529 441 494 c 0,19,20
 441 462 441 462 432.5 437 c 128,-1,21
 424 412 424 412 408 391 c 128,-1,22
 392 370 392 370 368.5 352 c 128,-1,23
 345 334 345 334 315 316 c 1,24,25
 341 300 341 300 366.5 281.5 c 128,-1,26
 392 263 392 263 412.5 241.5 c 128,-1,27
 433 220 433 220 445.5 195.5 c 128,-1,28
 458 171 458 171 458 141 c 0,29,30
 458 114 458 114 443 87.5 c 128,-1,31
 428 61 428 61 404.5 39.5 c 128,-1,32
 381 18 381 18 352.5 3.5 c 128,-1,33
 324 -11 324 -11 298 -15 c 0,34,35
 260 -22 260 -22 227 -22 c 0,36,37
 190 -22 190 -22 157.5 -11.5 c 128,-1,38
 125 -1 125 -1 90 25 c 0,39,40
 61 46 61 46 54 74 c 128,-1,41
 47 102 47 102 42 132 c 2,42,-1
 40 145 l 1,0,1
133 175 m 0,43,44
 131 167 131 167 129 158.5 c 128,-1,45
 127 150 127 150 125 142 c 0,46,47
 127 133 127 133 128 124 c 128,-1,48
 129 115 129 115 131 107 c 0,49,50
 142 89 142 89 155 78.5 c 128,-1,51
 168 68 168 68 182.5 62.5 c 128,-1,52
 197 57 197 57 211 56 c 128,-1,53
 225 55 225 55 237 55 c 0,54,55
 255 55 255 55 276.5 59.5 c 128,-1,56
 298 64 298 64 317 75 c 128,-1,57
 336 86 336 86 350.5 104 c 128,-1,58
 365 122 365 122 371 149 c 1,59,60
 368 168 368 168 353 185 c 128,-1,61
 338 202 338 202 318.5 217.5 c 128,-1,62
 299 233 299 233 277.5 246.5 c 128,-1,63
 256 260 256 260 238 271 c 1,64,65
 201 247 201 247 177 227.5 c 128,-1,66
 153 208 153 208 133 175 c 0,43,44
156 456 m 0,67,68
 173 427 173 427 195.5 405 c 128,-1,69
 218 383 218 383 246 363 c 1,70,71
 278 382 278 382 304.5 404 c 128,-1,72
 331 426 331 426 351 458 c 0,73,74
 353 466 353 466 354 474 c 128,-1,75
 355 482 355 482 357 489 c 0,76,77
 355 494 355 494 354.5 499.5 c 128,-1,78
 354 505 354 505 352 510 c 0,79,80
 335 530 335 530 313.5 536 c 128,-1,81
 292 542 292 542 267 542 c 0,82,83
 252 542 252 542 233.5 539 c 128,-1,84
 215 536 215 536 198 529.5 c 128,-1,85
 181 523 181 523 168 512 c 128,-1,86
 155 501 155 501 152 485 c 0,87,88
 153 478 153 478 154 470.5 c 128,-1,89
 155 463 155 463 156 456 c 0,67,68
EndSplineSet
EndChar

StartChar: nine
Encoding: 57 57 24
Width: 500
Flags: W
LayerCount: 2
Fore
SplineSet
198 -28 m 0,0,1
 194 -29 194 -29 191 -29.5 c 128,-1,2
 188 -30 188 -30 184 -30 c 0,3,4
 164 -30 164 -30 152.5 -19 c 128,-1,5
 141 -8 141 -8 141 7 c 0,6,7
 141 27 141 27 161 43 c 1,8,9
 227 75 227 75 275.5 125 c 128,-1,10
 324 175 324 175 350 239 c 1,11,12
 298 217 298 217 246 217 c 0,13,14
 195 217 195 217 157 234 c 128,-1,15
 119 251 119 251 94 277.5 c 128,-1,16
 69 304 69 304 56.5 336.5 c 128,-1,17
 44 369 44 369 44 401 c 0,18,19
 44 439 44 439 58.5 476 c 128,-1,20
 73 513 73 513 101.5 542.5 c 128,-1,21
 130 572 130 572 171.5 590.5 c 128,-1,22
 213 609 213 609 267 609 c 0,23,24
 292 609 292 609 313 602 c 0,25,26
 357 590 357 590 384.5 568 c 128,-1,27
 412 546 412 546 428 517 c 128,-1,28
 444 488 444 488 450.5 452.5 c 128,-1,29
 457 417 457 417 458 376 c 0,30,31
 458 311 458 311 440.5 250.5 c 128,-1,32
 423 190 423 190 389.5 138 c 128,-1,33
 356 86 356 86 308 44 c 128,-1,34
 260 2 260 2 198 -28 c 0,0,1
150 337 m 0,35,36
 171 316 171 316 195 306.5 c 128,-1,37
 219 297 219 297 245 297 c 0,38,39
 279 297 279 297 312 310.5 c 128,-1,40
 345 324 345 324 371 344 c 0,41,42
 373 344 373 344 373.5 348 c 128,-1,43
 374 352 374 352 374 357.5 c 128,-1,44
 374 363 374 363 374 368 c 128,-1,45
 374 373 374 373 374 376 c 0,46,47
 374 405 374 405 369 433 c 128,-1,48
 364 461 364 461 351.5 482.5 c 128,-1,49
 339 504 339 504 317 517 c 128,-1,50
 295 530 295 530 262 530 c 0,51,52
 235 530 235 530 210.5 520 c 128,-1,53
 186 510 186 510 167 492.5 c 128,-1,54
 148 475 148 475 137 451 c 128,-1,55
 126 427 126 427 126 400 c 0,56,57
 126 383 126 383 131.5 367 c 128,-1,58
 137 351 137 351 150 337 c 0,35,36
EndSplineSet
EndChar

StartChar: colon
Encoding: 58 58 25
Width: 500
Flags: W
LayerCount: 2
Fore
SplineSet
252 152 m 0,0,1
 281 152 281 152 305 129 c 128,-1,2
 329 106 329 106 329 75 c 0,3,4
 329 43 329 43 305 20.5 c 128,-1,5
 281 -2 281 -2 252 -2 c 0,6,7
 222 -2 222 -2 197.5 20.5 c 128,-1,8
 173 43 173 43 173 75 c 0,9,10
 173 106 173 106 197.5 129 c 128,-1,11
 222 152 222 152 252 152 c 0,0,1
250 457 m 256,12,13
 280 457 280 457 304.5 433.5 c 128,-1,14
 329 410 329 410 329 378 c 0,15,16
 329 345 329 345 304.5 323 c 128,-1,17
 280 301 280 301 250 301 c 256,18,19
 220 301 220 301 195.5 323 c 128,-1,20
 171 345 171 345 171 378 c 0,21,22
 171 410 171 410 195.5 433.5 c 128,-1,23
 220 457 220 457 250 457 c 256,12,13
EndSplineSet
EndChar

StartChar: semicolon
Encoding: 59 59 26
Width: 500
Flags: W
LayerCount: 2
Fore
SplineSet
221 117 m 0,0,1
 201 79 201 79 183 40 c 128,-1,2
 165 1 165 1 127 -80 c 0,3,4
 126 -84 126 -84 126 -87.5 c 128,-1,5
 126 -91 126 -91 126 -94 c 0,6,7
 126 -114 126 -114 140 -124.5 c 128,-1,8
 154 -135 154 -135 169 -137 c 256,9,10
 184 -139 184 -139 198.5 -131 c 128,-1,11
 213 -123 213 -123 217 -113 c 0,12,13
 237 -75 237 -75 265 -16 c 128,-1,14
 293 43 293 43 312 81 c 0,15,16
 317 94 317 94 317 103 c 0,17,18
 317 121 317 121 297.5 134 c 128,-1,19
 278 147 278 147 260 143 c 0,20,21
 235 141 235 141 221 117 c 0,0,1
252 455 m 0,22,23
 280 455 280 455 304.5 432 c 128,-1,24
 329 409 329 409 329 378 c 0,25,26
 329 346 329 346 304.5 323.5 c 128,-1,27
 280 301 280 301 252 301 c 0,28,29
 223 301 223 301 200 323.5 c 128,-1,30
 177 346 177 346 177 378 c 0,31,32
 177 409 177 409 200 432 c 128,-1,33
 223 455 223 455 252 455 c 0,22,23
EndSplineSet
EndChar

StartChar: less
Encoding: 60 60 27
Width: 500
Flags: W
LayerCount: 2
Fore
SplineSet
442 175 m 0,0,1
 437 185 437 185 344.5 222.5 c 128,-1,2
 252 260 252 260 165 303 c 1,3,4
 279 356 279 356 440 450 c 1,5,6
 455 466 455 466 453 483 c 0,7,8
 453 499 453 499 442 510 c 128,-1,9
 431 521 431 521 414 521 c 0,10,11
 405 521 405 521 392 516 c 1,12,13
 382 517 382 517 353.5 497 c 128,-1,14
 325 477 325 477 220.5 423 c 128,-1,15
 116 369 116 369 98.5 355 c 128,-1,16
 81 341 81 341 76 337 c 0,17,18
 57 322 57 322 57 302 c 0,19,20
 57 285 57 285 73 269 c 0,21,22
 98 251 98 251 368 124 c 0,23,24
 381 118 381 118 414 107 c 1,25,26
 431 107 431 107 442 117.5 c 128,-1,27
 453 128 453 128 453 144 c 256,28,29
 453 160 453 160 442 175 c 0,0,1
EndSplineSet
EndChar

StartChar: equal
Encoding: 61 61 28
Width: 500
Flags: W
LayerCount: 2
Fore
SplineSet
455 393 m 0,0,1
 455 368 455 368 439 357 c 128,-1,2
 423 346 423 346 398 346 c 2,3,-1
 100 346 l 2,4,5
 75 346 75 346 58.5 357 c 128,-1,6
 42 368 42 368 42 393 c 0,7,8
 44 408 44 408 51 414 c 0,9,10
 62 431 62 431 100 431 c 2,11,-1
 398 431 l 2,12,13
 434 431 434 431 445 414 c 0,14,15
 455 398 455 398 455 393 c 0,0,1
450 234 m 1,16,17
 452 201 452 201 435 188.5 c 128,-1,18
 418 176 418 176 392 176 c 2,19,-1
 99 175 l 2,20,21
 72 175 72 175 57 186.5 c 128,-1,22
 42 198 42 198 42 217.5 c 128,-1,23
 42 237 42 237 58.5 248.5 c 128,-1,24
 75 260 75 260 99 260 c 2,25,-1
 392 261 l 2,26,27
 441 261 441 261 450 234 c 1,16,17
EndSplineSet
EndChar

StartChar: greater
Encoding: 62 62 29
Width: 500
Flags: W
LayerCount: 2
Fore
SplineSet
63 169 m 0,0,1
 68 179 68 179 158.5 216 c 128,-1,2
 249 253 249 253 337 303 c 1,3,4
 87 427 87 427 65 449 c 0,5,6
 51 465 51 465 52 482 c 0,7,8
 52 498 52 498 63 509 c 128,-1,9
 74 520 74 520 91 520 c 0,10,11
 96 522 96 522 130 510 c 0,12,13
 142 502 142 502 165 489 c 128,-1,14
 188 476 188 476 285 424 c 128,-1,15
 382 372 382 372 409 354 c 128,-1,16
 436 336 436 336 431 336 c 1,17,18
 450 321 450 321 450 301 c 0,19,20
 450 284 450 284 434 268 c 0,21,22
 409 250 409 250 138 116 c 0,23,24
 125 110 125 110 91 101 c 1,25,26
 74 101 74 101 63 111.5 c 128,-1,27
 52 122 52 122 52 138 c 256,28,29
 52 154 52 154 63 169 c 0,0,1
EndSplineSet
EndChar

StartChar: question
Encoding: 63 63 30
Width: 500
Flags: W
LayerCount: 2
Fore
SplineSet
293 247 m 1,0,1
 279 237 279 237 273 214.5 c 128,-1,2
 267 192 267 192 273 178 c 128,-1,3
 279 164 279 164 261 154 c 128,-1,4
 243 144 243 144 216 156 c 0,5,6
 198 166 198 166 194.5 183.5 c 128,-1,7
 191 201 191 201 196 233 c 0,8,9
 194 238 194 238 210 271 c 1,10,11
 224 285 224 285 239 305 c 0,12,13
 263 339 263 339 283.5 359.5 c 128,-1,14
 304 380 304 380 318.5 405 c 128,-1,15
 333 430 333 430 340.5 448.5 c 128,-1,16
 348 467 348 467 341.5 486.5 c 128,-1,17
 335 506 335 506 306 527 c 0,18,19
 303 528 303 528 300 529 c 128,-1,20
 297 530 297 530 293 531 c 0,21,22
 236 541 236 541 200 515.5 c 128,-1,23
 164 490 164 490 160 445 c 1,24,25
 146 429 146 429 125.5 427.5 c 128,-1,26
 105 426 105 426 93 434.5 c 128,-1,27
 81 443 81 443 77.5 459.5 c 128,-1,28
 74 476 74 476 86 495 c 1,29,30
 97 529 97 529 119 553 c 128,-1,31
 141 577 141 577 177 591 c 128,-1,32
 213 605 213 605 253 609.5 c 128,-1,33
 293 614 293 614 320 608 c 128,-1,34
 347 602 347 602 375.5 578 c 128,-1,35
 404 554 404 554 418 516 c 0,36,37
 429 490 429 490 427 463 c 128,-1,38
 425 436 425 436 414.5 413.5 c 128,-1,39
 404 391 404 391 388 368.5 c 128,-1,40
 372 346 372 346 351 318 c 128,-1,41
 330 290 330 290 317.5 277.5 c 128,-1,42
 305 265 305 265 293 247 c 1,0,1
253 123 m 256,43,44
 277 123 277 123 297 104.5 c 128,-1,45
 317 86 317 86 317 60 c 0,46,47
 317 33 317 33 297 15 c 128,-1,48
 277 -3 277 -3 253 -3 c 256,49,50
 229 -3 229 -3 208.5 15 c 128,-1,51
 188 33 188 33 188 60 c 0,52,53
 188 86 188 86 208.5 104.5 c 128,-1,54
 229 123 229 123 253 123 c 256,43,44
EndSplineSet
EndChar

StartChar: at
Encoding: 64 64 31
Width: 500
Flags: W
LayerCount: 2
Fore
SplineSet
166 349 m 0,0,1
 192 412 192 412 221.5 421 c 128,-1,2
 251 430 251 430 272 431 c 0,3,4
 316 429 316 429 326 419 c 128,-1,5
 336 409 336 409 337.5 383.5 c 128,-1,6
 339 358 339 358 341 343 c 128,-1,7
 343 328 343 328 346 295 c 1,8,9
 344 238 344 238 348 224 c 1,10,11
 355 226 355 226 361 229 c 128,-1,12
 367 232 367 232 370.5 237.5 c 128,-1,13
 374 243 374 243 383 264.5 c 128,-1,14
 392 286 392 286 393 297 c 128,-1,15
 394 308 394 308 398 329 c 0,16,17
 401 377 401 377 383 425 c 0,18,19
 365 475 365 475 344 497 c 0,20,21
 324 523 324 523 308 528 c 0,22,23
 277 537 277 537 244 531 c 0,24,25
 212 522 212 522 182 484 c 0,26,27
 150 447 150 447 124 372 c 0,28,29
 110 328 110 328 110 276 c 0,30,31
 109 220 109 220 124 164 c 0,32,33
 137 125 137 125 167 99 c 0,34,35
 187 79 187 79 224 70 c 1,36,37
 259 66 259 66 283 75 c 0,38,39
 311 85 311 85 345 95 c 0,40,41
 359 101 359 101 369 101 c 0,42,43
 387 101 387 101 396.5 90 c 128,-1,44
 406 79 406 79 408 64 c 0,45,46
 410 40 410 40 367.5 25 c 128,-1,47
 325 10 325 10 299 3 c 0,48,49
 274 -3 274 -3 250 -4 c 256,50,51
 226 -5 226 -5 198 -1 c 0,52,53
 164 3 164 3 151 17 c 1,54,55
 115 41 115 41 97 65 c 0,56,57
 71 97 71 97 51 160 c 0,58,59
 35 211 35 211 38 281 c 0,60,61
 41 356 41 356 68 419 c 0,62,63
 94 483 94 483 132 527 c 1,64,65
 166 577 166 577 229 599 c 1,66,67
 299 615 299 615 339 595 c 128,-1,68
 379 575 379 575 407 529 c 256,69,70
 435 483 435 483 443 445 c 1,71,72
 460 396 460 396 462 336 c 0,73,74
 460 308 460 308 453 271 c 1,75,76
 443 240 443 240 429 215 c 128,-1,77
 415 190 415 190 381.5 173.5 c 128,-1,78
 348 157 348 157 322 147 c 0,79,80
 312 143 312 143 286 137 c 128,-1,81
 260 131 260 131 218 137 c 0,82,83
 200 141 200 141 186.5 159.5 c 128,-1,84
 173 178 173 178 163 208 c 128,-1,85
 153 238 153 238 154 278 c 0,86,87
 154 317 154 317 166 349 c 0,0,1
227 348 m 0,88,89
 217 328 217 328 212.5 303 c 128,-1,90
 208 278 208 278 208 257 c 0,91,92
 208 246 208 246 216 222 c 128,-1,93
 224 198 224 198 232.5 196.5 c 128,-1,94
 241 195 241 195 255 195 c 0,95,96
 277 200 277 200 283 206 c 128,-1,97
 289 212 289 212 289 224 c 128,-1,98
 289 236 289 236 286 258.5 c 128,-1,99
 283 281 283 281 286 297 c 0,100,101
 286 311 286 311 284.5 325.5 c 128,-1,102
 283 340 283 340 282 348 c 128,-1,103
 281 356 281 356 274.5 363.5 c 128,-1,104
 268 371 268 371 264 371 c 0,105,106
 253 370 253 370 244 364 c 128,-1,107
 235 358 235 358 227 348 c 0,88,89
EndSplineSet
EndChar

StartChar: A
Encoding: 65 65 32
Width: 500
Flags: W
LayerCount: 2
Fore
SplineSet
463 35 m 0,0,1
 462 16 462 16 453 4 c 128,-1,2
 444 -8 444 -8 431 -10.5 c 128,-1,3
 418 -13 418 -13 405 -6 c 128,-1,4
 392 1 392 1 383 18 c 1,5,6
 377 65 377 65 366 110.5 c 128,-1,7
 355 156 355 156 340 201 c 1,8,-1
 169 199 l 2,9,10
 167 199 167 199 164.5 199.5 c 128,-1,11
 162 200 162 200 160 200 c 0,12,13
 135 115 135 115 115 24 c 0,14,15
 107 3 107 3 92 -4 c 128,-1,16
 77 -11 77 -11 63.5 -7 c 128,-1,17
 50 -3 50 -3 41.5 11 c 128,-1,18
 33 25 33 25 37 47 c 0,19,20
 70 192 70 192 117 343 c 128,-1,21
 164 494 164 494 197 601 c 1,22,23
 209 616 209 616 228 621 c 0,24,25
 239 625 239 625 252 620.5 c 128,-1,26
 265 616 265 616 272 609 c 0,27,28
 273 609 273 609 270 610.5 c 128,-1,29
 267 612 267 612 268 612 c 0,30,31
 313 550 313 550 334 489.5 c 128,-1,32
 355 429 355 429 370 381 c 0,33,34
 376 368 376 368 386 337.5 c 128,-1,35
 396 307 396 307 402 286 c 2,36,-1
 426 202 l 2,37,38
 439 161 439 161 448.5 119.5 c 128,-1,39
 458 78 458 78 463 35 c 0,0,1
243 516 m 1,40,41
 231 467 231 467 211 399 c 128,-1,42
 191 331 191 331 176 279 c 1,43,-1
 319 283 l 1,44,45
 311 311 311 311 305 341 c 128,-1,46
 299 371 299 371 289 399 c 0,47,48
 279 429 279 429 268.5 458 c 128,-1,49
 258 487 258 487 243 516 c 1,40,41
EndSplineSet
EndChar

StartChar: B
Encoding: 66 66 33
Width: 500
Flags: W
LayerCount: 2
Fore
SplineSet
97 -5 m 0,0,1
 75 -3 75 -3 64.5 9.5 c 128,-1,2
 54 22 54 22 54 36 c 0,3,4
 54 43 54 43 58 53 c 0,5,6
 59 547 59 547 61 555 c 0,7,8
 64 573 64 573 80.5 587.5 c 128,-1,9
 97 602 97 602 128 612 c 128,-1,10
 159 622 159 622 225 624 c 0,11,12
 270 624 270 624 306.5 609 c 128,-1,13
 343 594 343 594 368.5 570.5 c 128,-1,14
 394 547 394 547 407.5 518.5 c 128,-1,15
 421 490 421 490 421 463 c 0,16,17
 421 425 421 425 401.5 389.5 c 128,-1,18
 382 354 382 354 347 328 c 1,19,20
 397 303 397 303 421 264.5 c 128,-1,21
 445 226 445 226 445 184 c 0,22,23
 445 156 445 156 435 129.5 c 128,-1,24
 425 103 425 103 407.5 80 c 128,-1,25
 390 57 390 57 366 39.5 c 128,-1,26
 342 22 342 22 313 13 c 0,27,28
 276 1 276 1 237.5 -2.5 c 128,-1,29
 199 -6 199 -6 152 -6 c 0,30,31
 138 -6 138 -6 124.5 -6 c 128,-1,32
 111 -6 111 -6 97 -5 c 0,0,1
325 246 m 0,33,34
 302 262 302 262 274.5 269.5 c 128,-1,35
 247 277 247 277 218 280 c 0,36,37
 197 281 197 281 175 279.5 c 128,-1,38
 153 278 153 278 140 275 c 1,39,-1
 140 75 l 1,40,41
 161 75 161 75 201.5 77 c 128,-1,42
 242 79 242 79 276.5 88.5 c 128,-1,43
 311 98 311 98 336.5 119 c 128,-1,44
 362 140 362 140 362 178 c 0,45,46
 362 198 362 198 353 216 c 128,-1,47
 344 234 344 234 325 246 c 0,33,34
140 364 m 1,48,49
 151 362 151 362 166.5 361.5 c 128,-1,50
 182 361 182 361 212 362 c 0,51,52
 226 363 226 363 248 369.5 c 128,-1,53
 270 376 270 376 290 387.5 c 128,-1,54
 310 399 310 399 324.5 416 c 128,-1,55
 339 433 339 433 339 456 c 0,56,57
 339 478 339 478 328 494 c 128,-1,58
 317 510 317 510 300 520.5 c 128,-1,59
 283 531 283 531 261.5 536 c 128,-1,60
 240 541 240 541 220 541 c 0,61,62
 182 541 182 541 140 528 c 1,63,-1
 140 364 l 1,64,-1
 140 364 l 1,48,49
EndSplineSet
EndChar

StartChar: C
Encoding: 67 67 34
Width: 500
Flags: W
LayerCount: 2
Fore
SplineSet
384 169 m 1,0,1
 400 182 400 182 417 182 c 0,2,3
 433 182 433 182 444 171 c 128,-1,4
 455 160 455 160 455 143 c 0,5,6
 455 134 455 134 450 121 c 0,7,8
 433 95 433 95 412.5 70.5 c 128,-1,9
 392 46 392 46 367 27.5 c 128,-1,10
 342 9 342 9 312.5 -2.5 c 128,-1,11
 283 -14 283 -14 247 -14 c 0,12,13
 193 -14 193 -14 169 5.5 c 128,-1,14
 145 25 145 25 112.5 63 c 128,-1,15
 80 101 80 101 62.5 152.5 c 128,-1,16
 45 204 45 204 45 263 c 0,17,18
 45 305 45 305 56 341 c 0,19,20
 70 388 70 388 88 424 c 128,-1,21
 106 460 106 460 131.5 496 c 128,-1,22
 157 532 157 532 188.5 551.5 c 128,-1,23
 220 571 220 571 242 583 c 0,24,25
 272 596 272 596 297.5 603 c 128,-1,26
 323 610 323 610 346 610 c 0,27,28
 381 610 381 610 409 590 c 128,-1,29
 437 570 437 570 462 522 c 0,30,31
 465 513 465 513 465 504 c 0,32,33
 465 486 465 486 454 475 c 128,-1,34
 443 464 443 464 427 464 c 0,35,36
 408 464 408 464 392 480 c 1,37,38
 378 507 378 507 367 518 c 128,-1,39
 356 529 356 529 342 529 c 0,40,41
 331 529 331 529 314 526.5 c 128,-1,42
 297 524 297 524 275 516 c 0,43,44
 231 494 231 494 208.5 468.5 c 128,-1,45
 186 443 186 443 171 416 c 128,-1,46
 156 389 156 389 143.5 344 c 128,-1,47
 131 299 131 299 127 255 c 0,48,49
 127 219 127 219 138 184.5 c 128,-1,50
 149 150 149 150 169.5 122.5 c 128,-1,51
 190 95 190 95 205.5 80 c 128,-1,52
 221 65 221 65 248 67 c 0,53,54
 270 69 270 69 290.5 77 c 128,-1,55
 311 85 311 85 328 100 c 128,-1,56
 345 115 345 115 359 133 c 128,-1,57
 373 151 373 151 384 169 c 1,0,1
EndSplineSet
EndChar

StartChar: D
Encoding: 68 68 35
Width: 500
Flags: W
LayerCount: 2
Fore
SplineSet
100 -18 m 0,0,1
 85 -16 85 -16 75 -9.5 c 128,-1,2
 65 -3 65 -3 60 6 c 2,3,-1
 57 12 l 2,4,5
 55 17 55 17 53 22.5 c 128,-1,6
 51 28 51 28 51 33 c 2,7,-1
 50 530 l 2,8,9
 53 551 53 551 72.5 566 c 128,-1,10
 92 581 92 581 128 590 c 128,-1,11
 164 599 164 599 202 596 c 0,12,13
 273 593 273 593 303 571 c 128,-1,14
 333 549 333 549 370.5 505 c 128,-1,15
 408 461 408 461 430 411 c 128,-1,16
 452 361 452 361 450 299 c 0,17,18
 450 239 450 239 428 181.5 c 128,-1,19
 406 124 406 124 361 81 c 0,20,21
 330 51 330 51 292 31.5 c 128,-1,22
 254 12 254 12 203 1.5 c 128,-1,23
 152 -9 152 -9 146.5 -11.5 c 128,-1,24
 141 -14 141 -14 100 -18 c 0,0,1
201 514 m 0,25,26
 175 517 175 517 162.5 513.5 c 128,-1,27
 150 510 150 510 133 507 c 1,28,-1
 133 67 l 1,29,30
 168 70 168 70 196 74.5 c 128,-1,31
 224 79 224 79 256 100 c 128,-1,32
 288 121 288 121 303 139 c 0,33,34
 335 174 335 174 351.5 218 c 128,-1,35
 368 262 368 262 368 308 c 0,36,37
 368 348 368 348 353.5 385 c 128,-1,38
 339 422 339 422 310.5 450.5 c 128,-1,39
 282 479 282 479 261 495 c 128,-1,40
 240 511 240 511 201 514 c 0,25,26
EndSplineSet
EndChar

StartChar: E
Encoding: 69 69 36
Width: 500
Flags: W
LayerCount: 2
Fore
SplineSet
401 89 m 0,0,1
 420 90 420 90 432.5 81.5 c 128,-1,2
 445 73 445 73 448.5 60.5 c 128,-1,3
 452 48 452 48 446.5 34.5 c 128,-1,4
 441 21 441 21 424 11 c 1,5,6
 388 1 388 1 344.5 2 c 128,-1,7
 301 3 301 3 259 1.5 c 128,-1,8
 217 0 217 0 176.5 0.5 c 128,-1,9
 136 1 136 1 99 10 c 0,10,11
 83 18 83 18 76 29.5 c 128,-1,12
 69 41 69 41 70 52 c 2,13,-1
 70 53 l 1,14,-1
 70 508 l 1,15,16
 63 527 63 527 61 541 c 128,-1,17
 59 555 59 555 63 565 c 128,-1,18
 67 575 67 575 76 585 c 1,19,20
 117 593 117 593 156 596 c 128,-1,21
 195 599 195 599 239 597 c 128,-1,22
 283 595 283 595 321 599 c 128,-1,23
 359 603 359 603 401 601 c 0,24,25
 423 602 423 602 435.5 591 c 128,-1,26
 448 580 448 580 450 566 c 128,-1,27
 452 552 452 552 442.5 538.5 c 128,-1,28
 433 525 433 525 411 520 c 0,29,30
 351 517 351 517 283.5 518 c 128,-1,31
 216 519 216 519 154 513 c 1,32,-1
 153 333 l 1,33,34
 205 331 205 331 257.5 333.5 c 128,-1,35
 310 336 310 336 363 341 c 0,36,37
 385 342 385 342 397.5 331 c 128,-1,38
 410 320 410 320 412 306 c 128,-1,39
 414 292 414 292 404.5 278.5 c 128,-1,40
 395 265 395 265 373 260 c 0,41,42
 318 255 318 255 262.5 252 c 128,-1,43
 207 249 207 249 153 251 c 1,44,-1
 152 83 l 1,45,46
 212 74 212 74 276.5 78.5 c 128,-1,47
 341 83 341 83 401 89 c 0,0,1
EndSplineSet
EndChar

StartChar: F
Encoding: 70 70 37
Width: 500
Flags: W
LayerCount: 2
Fore
SplineSet
139 27 m 1,0,1
 138 4 138 4 125.5 -7.5 c 128,-1,2
 113 -19 113 -19 98 -19 c 0,3,4
 84 -19 84 -19 72 -8.5 c 128,-1,5
 60 2 60 2 57 24 c 2,6,-1
 57 273 l 2,7,8
 57 307 57 307 57 354 c 0,9,10
 57 366 57 366 57.5 382.5 c 128,-1,11
 58 399 58 399 58 418 c 0,12,13
 58 447 58 447 55 474 c 128,-1,14
 52 501 52 501 41 517 c 0,15,16
 35 531 35 531 35 542 c 0,17,18
 35 571 35 571 66 581 c 1,19,20
 103 587 103 587 140.5 588.5 c 128,-1,21
 178 590 178 590 234 591.5 c 128,-1,22
 290 593 290 593 328 594 c 128,-1,23
 366 595 366 595 403 600 c 0,24,25
 427 600 427 600 439.5 589 c 128,-1,26
 452 578 452 578 452 561 c 0,27,28
 452 547 452 547 442.5 535.5 c 128,-1,29
 433 524 433 524 413 519 c 0,30,31
 352 511 352 511 291 511.5 c 128,-1,32
 230 512 230 512 132 506 c 1,33,34
 137 485 137 485 138.5 462.5 c 128,-1,35
 140 440 140 440 140 418 c 0,36,37
 140 401 140 401 139.5 386 c 128,-1,38
 139 371 139 371 139 357 c 2,39,-1
 139 347 l 1,40,41
 193 347 193 347 268.5 350.5 c 128,-1,42
 344 354 344 354 388 357 c 0,43,44
 411 357 411 357 424 346 c 128,-1,45
 437 335 437 335 437 318 c 0,46,47
 437 293 437 293 409 280.5 c 128,-1,48
 381 268 381 268 340 268 c 128,-1,49
 299 268 299 268 254 268 c 128,-1,50
 209 268 209 268 139 266 c 1,51,-1
 139 27 l 1,52,-1
 139 27 l 1,0,1
EndSplineSet
EndChar

StartChar: G
Encoding: 71 71 38
Width: 500
Flags: W
LayerCount: 2
Fore
SplineSet
421 336 m 0,0,1
 440 331 440 331 449 319.5 c 128,-1,2
 458 308 458 308 458 295 c 0,3,4
 458 283 458 283 450 272.5 c 128,-1,5
 442 262 442 262 427 256 c 1,6,-1
 427 106 l 2,7,8
 427 84 427 84 412.5 69 c 128,-1,9
 398 54 398 54 385 41 c 0,10,11
 353 9 353 9 306 -6 c 128,-1,12
 259 -21 259 -21 214 -13 c 1,13,14
 162 4 162 4 139.5 25 c 128,-1,15
 117 46 117 46 91 91 c 128,-1,16
 65 136 65 136 55 181 c 128,-1,17
 45 226 45 226 42 288 c 0,18,19
 42 322 42 322 44 355 c 128,-1,20
 46 388 46 388 60 427 c 128,-1,21
 74 466 74 466 90 499 c 128,-1,22
 106 532 106 532 140 558 c 0,23,24
 156 573 156 573 190.5 589.5 c 128,-1,25
 225 606 225 606 282 614 c 0,26,27
 298 614 298 614 322.5 610.5 c 128,-1,28
 347 607 347 607 369.5 599.5 c 128,-1,29
 392 592 392 592 408 579 c 128,-1,30
 424 566 424 566 424 547 c 0,31,32
 424 531 424 531 413 520 c 128,-1,33
 402 509 402 509 385 509 c 0,34,35
 376 509 376 509 364 513 c 128,-1,36
 352 517 352 517 338.5 521.5 c 128,-1,37
 325 526 325 526 310.5 530 c 128,-1,38
 296 534 296 534 282 534 c 0,39,40
 272 534 272 534 259.5 529 c 128,-1,41
 247 524 247 524 238 521 c 0,42,43
 203 502 203 502 179.5 481 c 128,-1,44
 156 460 156 460 137.5 412.5 c 128,-1,45
 119 365 119 365 123 293 c 0,46,47
 126 229 126 229 135.5 195.5 c 128,-1,48
 145 162 145 162 169 124 c 128,-1,49
 193 86 193 86 211 78 c 0,50,51
 245 63 245 63 281 76 c 128,-1,52
 317 89 317 89 345 117 c 1,53,-1
 345 253 l 1,54,55
 307 252 307 252 290 251 c 128,-1,56
 273 250 273 250 235 250 c 0,57,58
 213 253 213 253 202.5 265 c 128,-1,59
 192 277 192 277 192 291 c 256,60,61
 192 305 192 305 203.5 318.5 c 128,-1,62
 215 332 215 332 238 332 c 0,63,64
 248 332 248 332 280.5 332.5 c 128,-1,65
 313 333 313 333 329.5 334 c 128,-1,66
 346 335 346 335 378.5 335.5 c 128,-1,67
 411 336 411 336 421 336 c 0,0,1
EndSplineSet
EndChar

StartChar: H
Encoding: 72 72 39
Width: 500
Flags: W
LayerCount: 2
Fore
SplineSet
450 324 m 2,0,1
 450 256 450 256 450 39 c 0,2,3
 450 8 450 8 434.5 -3 c 128,-1,4
 419 -14 419 -14 401 -14 c 0,5,6
 386 -14 386 -14 373.5 -1 c 128,-1,7
 361 12 361 12 361 39 c 2,8,-1
 360 261 l 1,9,-1
 140 233 l 1,10,-1
 140 40 l 2,11,12
 140 9 140 9 124.5 -2 c 128,-1,13
 109 -13 109 -13 92 -13 c 0,14,15
 77 -13 77 -13 65 0 c 128,-1,16
 53 13 53 13 53 40 c 2,17,-1
 53 557 l 2,18,19
 53 574 53 574 58 585 c 128,-1,20
 63 596 63 596 71.5 602 c 128,-1,21
 80 608 80 608 90 610 c 128,-1,22
 100 612 100 612 109 612 c 0,23,24
 122 612 122 612 131 601 c 128,-1,25
 140 590 140 590 140 567 c 2,26,-1
 140 324 l 1,27,-1
 360 346 l 1,28,-1
 361 557 l 2,29,30
 361 574 361 574 366.5 585 c 128,-1,31
 372 596 372 596 380 602 c 128,-1,32
 388 608 388 608 398.5 610 c 128,-1,33
 409 612 409 612 418 612 c 0,34,35
 432 612 432 612 441 601 c 128,-1,36
 450 590 450 590 450 567 c 2,37,-1
 450 324 l 2,0,1
EndSplineSet
EndChar

StartChar: I
Encoding: 73 73 40
Width: 500
Flags: W
LayerCount: 2
Fore
SplineSet
400 81 m 0,0,1
 422 82 422 82 434.5 71 c 128,-1,2
 447 60 447 60 449 46 c 128,-1,3
 451 32 451 32 441.5 18.5 c 128,-1,4
 432 5 432 5 410 0 c 1,5,6
 358 -2 358 -2 278 -1 c 128,-1,7
 198 0 198 0 92 0 c 0,8,9
 70 3 70 3 59.5 15.5 c 128,-1,10
 49 28 49 28 49.5 42.5 c 128,-1,11
 50 57 50 57 61.5 69 c 128,-1,12
 73 81 73 81 95 82 c 0,13,14
 110 82 110 82 151.5 82 c 128,-1,15
 193 82 193 82 208 81 c 1,16,-1
 208 518 l 1,17,-1
 89 517 l 2,18,19
 67 520 67 520 56.5 532.5 c 128,-1,20
 46 545 46 545 46.5 559.5 c 128,-1,21
 47 574 47 574 58.5 586 c 128,-1,22
 70 598 70 598 92 599 c 1,23,24
 47 597 47 597 182 599 c 0,25,26
 242 596 242 596 305 600 c 128,-1,27
 368 604 368 604 412 602 c 1,28,29
 431 596 431 596 440 584 c 128,-1,30
 449 572 449 572 448.5 559.5 c 128,-1,31
 448 547 448 547 438 535.5 c 128,-1,32
 428 524 428 524 409 520 c 2,33,-1
 290 518 l 1,34,-1
 290 80 l 1,35,36
 303 80 303 80 344.5 80 c 128,-1,37
 386 80 386 80 400 81 c 0,0,1
EndSplineSet
EndChar

StartChar: J
Encoding: 74 74 41
Width: 500
Flags: W
LayerCount: 2
Fore
SplineSet
452 602 m 2,0,1
 473 601 473 601 484.5 588.5 c 128,-1,2
 496 576 496 576 495 561 c 0,3,4
 495 547 495 547 485 536 c 128,-1,5
 475 525 475 525 455 521 c 0,6,7
 437 520 437 520 414 520 c 128,-1,8
 391 520 391 520 374 520 c 1,9,-1
 375 160 l 2,10,11
 375 104 375 104 348 61 c 0,12,13
 335 40 335 40 316 23 c 128,-1,14
 297 6 297 6 274.5 -5.5 c 128,-1,15
 252 -17 252 -17 227.5 -23.5 c 128,-1,16
 203 -30 203 -30 178 -30 c 0,17,18
 144 -30 144 -30 125 -18.5 c 128,-1,19
 106 -7 106 -7 83 20 c 0,20,21
 80 23 80 23 72 34 c 128,-1,22
 64 45 64 45 55 57.5 c 128,-1,23
 46 70 46 70 39 81 c 128,-1,24
 32 92 32 92 32 94 c 0,25,26
 22 107 22 107 22 122 c 0,27,28
 22 138 22 138 32.5 149 c 128,-1,29
 43 160 43 160 60 160 c 0,30,31
 76 160 76 160 91 149 c 0,32,33
 100 140 100 140 106 130.5 c 128,-1,34
 112 121 112 121 117 111.5 c 128,-1,35
 122 102 122 102 125 95.5 c 128,-1,36
 128 89 128 89 137 75 c 0,37,38
 148 63 148 63 168 53 c 128,-1,39
 188 43 188 43 215 53 c 128,-1,40
 242 63 242 63 261 84 c 0,41,42
 268 90 268 90 272 95 c 128,-1,43
 276 100 276 100 278.5 104.5 c 128,-1,44
 281 109 281 109 283.5 114.5 c 128,-1,45
 286 120 286 120 289 128 c 0,46,47
 294 167 294 167 295.5 206 c 128,-1,48
 297 245 297 245 297 284 c 0,49,50
 297 311 297 311 296.5 340.5 c 128,-1,51
 296 370 296 370 295.5 401 c 128,-1,52
 295 432 295 432 294 462 c 128,-1,53
 293 492 293 492 292 519 c 1,54,55
 233 517 233 517 191.5 517 c 128,-1,56
 150 517 150 517 184 517 c 1,57,58
 164 520 164 520 153 532.5 c 128,-1,59
 142 545 142 545 143 559 c 0,60,61
 143 585 143 585 177 599 c 1,62,63
 274 600 274 600 312 600 c 128,-1,64
 350 600 350 600 448 602 c 2,65,-1
 452 602 l 2,0,1
EndSplineSet
EndChar

StartChar: K
Encoding: 75 75 42
Width: 500
Flags: W
LayerCount: 2
Fore
SplineSet
128 40 m 0,0,1
 127 17 127 17 114.5 5.5 c 128,-1,2
 102 -6 102 -6 87 -6 c 0,3,4
 73 -6 73 -6 60 5 c 128,-1,5
 47 16 47 16 44 38 c 0,6,7
 45 168 45 168 45 296 c 128,-1,8
 45 424 45 424 44 563 c 1,9,10
 49 583 49 583 60 593 c 128,-1,11
 71 603 71 603 85 603 c 0,12,13
 98 603 98 603 109.5 594 c 128,-1,14
 121 585 121 585 126 566 c 1,15,16
 126 509 126 509 125.5 457 c 128,-1,17
 125 405 125 405 125 347 c 1,18,19
 169 366 169 366 200.5 390 c 128,-1,20
 232 414 232 414 259 443.5 c 128,-1,21
 286 473 286 473 313 508.5 c 128,-1,22
 340 544 340 544 375 585 c 0,23,24
 391 598 391 598 408 598 c 0,25,26
 424 598 424 598 435 587 c 128,-1,27
 446 576 446 576 446 559 c 0,28,29
 446 550 446 550 441 537 c 1,30,31
 411 502 411 502 387 471.5 c 128,-1,32
 363 441 363 441 340 414 c 128,-1,33
 317 387 317 387 293.5 363.5 c 128,-1,34
 270 340 270 340 242 320 c 1,35,36
 301 257 301 257 359 195.5 c 128,-1,37
 417 134 417 134 475 71 c 0,38,39
 486 57 486 57 486 40 c 256,40,41
 486 23 486 23 475 12.5 c 128,-1,42
 464 2 464 2 448 2 c 0,43,44
 440 2 440 2 430.5 5.5 c 128,-1,45
 421 9 421 9 413 18 c 0,46,47
 406 26 406 26 387 46 c 128,-1,48
 368 66 368 66 343.5 92.5 c 128,-1,49
 319 119 319 119 291.5 148.5 c 128,-1,50
 264 178 264 178 239.5 204.5 c 128,-1,51
 215 231 215 231 196 251 c 128,-1,52
 177 271 177 271 170 279 c 1,53,54
 151 270 151 270 124 260 c 1,55,56
 124 202 124 202 125 149.5 c 128,-1,57
 126 97 126 97 128 40 c 0,0,1
EndSplineSet
EndChar

StartChar: L
Encoding: 76 76 43
Width: 500
Flags: W
LayerCount: 2
Fore
SplineSet
404 88 m 1,0,1
 423 82 423 82 432 70 c 128,-1,2
 441 58 441 58 440.5 45.5 c 128,-1,3
 440 33 440 33 430 21.5 c 128,-1,4
 420 10 420 10 401 6 c 0,5,6
 324 4 324 4 248 3.5 c 128,-1,7
 172 3 172 3 98 -8 c 1,8,9
 59 -4 59 -4 55 35 c 1,10,11
 55 167 55 167 56 298 c 128,-1,12
 57 429 57 429 57 562 c 1,13,14
 61 581 61 581 72.5 591 c 128,-1,15
 84 601 84 601 96.5 601.5 c 128,-1,16
 109 602 109 602 121 593 c 128,-1,17
 133 584 133 584 139 565 c 1,18,19
 139 441 139 441 138 319.5 c 128,-1,20
 137 198 137 198 137 74 c 1,21,22
 204 76 204 76 270 81 c 128,-1,23
 336 86 336 86 404 88 c 1,0,1
EndSplineSet
EndChar

StartChar: M
Encoding: 77 77 44
Width: 500
Flags: W
LayerCount: 2
Fore
SplineSet
467 34 m 1,0,1
 466 11 466 11 453.5 -0.5 c 128,-1,2
 441 -12 441 -12 426 -12 c 0,3,4
 412 -12 412 -12 399.5 -1.5 c 128,-1,5
 387 9 387 9 385 31 c 0,6,7
 384 91 384 91 386 136 c 1,8,9
 382 188 382 188 380 240 c 1,10,11
 372 284 372 284 372 322 c 1,12,13
 368 358 368 358 358 449 c 1,14,15
 347 399 347 399 335.5 353.5 c 128,-1,16
 324 308 324 308 314 265.5 c 128,-1,17
 304 223 304 223 289 190 c 1,18,19
 274 172 274 172 254 171 c 1,20,21
 232 178 232 178 222 194 c 1,22,23
 201 256 201 256 191 286.5 c 128,-1,24
 181 317 181 317 149 429 c 1,25,26
 144 381 144 381 139 328 c 128,-1,27
 134 275 134 275 129.5 221 c 128,-1,28
 125 167 125 167 120 114 c 128,-1,29
 115 61 115 61 110 13 c 1,30,31
 103 -4 103 -4 92 -12 c 128,-1,32
 81 -20 81 -20 69 -20 c 0,33,34
 55 -20 55 -20 43 -9 c 128,-1,35
 31 2 31 2 29 23 c 0,36,37
 35 87 35 87 41.5 155.5 c 128,-1,38
 48 224 48 224 54.5 293.5 c 128,-1,39
 61 363 61 363 67.5 432 c 128,-1,40
 74 501 74 501 80 565 c 0,41,42
 84 583 84 583 95.5 593 c 128,-1,43
 107 603 107 603 121 603 c 0,44,45
 143 603 143 603 158 581 c 1,46,47
 203 474 203 474 197 490 c 128,-1,48
 191 506 191 506 211 439.5 c 128,-1,49
 231 373 231 373 255 287 c 1,50,51
 262 321 262 321 275 388.5 c 128,-1,52
 288 456 288 456 297 494 c 128,-1,53
 306 532 306 532 328 584 c 0,54,55
 336 597 336 597 346 603 c 128,-1,56
 356 609 356 609 367 609 c 0,57,58
 379 609 379 609 389.5 601.5 c 128,-1,59
 400 594 400 594 409 576 c 0,60,61
 421 543 421 543 435.5 423.5 c 128,-1,62
 450 304 450 304 450 306 c 128,-1,63
 450 308 450 308 460 169 c 128,-1,64
 470 30 470 30 467 34 c 1,0,1
EndSplineSet
EndChar

StartChar: N
Encoding: 78 78 45
Width: 500
Flags: W
LayerCount: 2
Fore
SplineSet
360 586 m 1,0,1
 365 606 365 606 376 616 c 128,-1,2
 387 626 387 626 401 626 c 0,3,4
 414 626 414 626 425.5 617 c 128,-1,5
 437 608 437 608 442 589 c 1,6,7
 442 446 442 446 440 312 c 128,-1,8
 438 178 438 178 430 35 c 1,9,10
 430 35 430 35 431 34 c 1,11,-1
 430 34 l 1,12,13
 429 29 429 29 429 25.5 c 128,-1,14
 429 22 429 22 429 18 c 0,15,16
 423 2 423 2 412.5 -6 c 128,-1,17
 402 -14 402 -14 390 -14 c 0,18,19
 372 -14 372 -14 356 2 c 0,20,21
 354 6 354 6 352 9 c 128,-1,22
 350 12 350 12 348 15 c 2,23,-1
 347 15 l 1,24,-1
 347 17 l 1,25,26
 307 87 307 87 285 143.5 c 128,-1,27
 263 200 263 200 239 245 c 128,-1,28
 215 290 215 290 187 338.5 c 128,-1,29
 159 387 159 387 127 456 c 1,30,31
 127 403 127 403 127 353.5 c 128,-1,32
 127 304 127 304 127 253.5 c 128,-1,33
 127 203 127 203 127.5 148 c 128,-1,34
 128 93 128 93 128 29 c 0,35,36
 127 6 127 6 114.5 -5.5 c 128,-1,37
 102 -17 102 -17 87 -17 c 0,38,39
 73 -17 73 -17 61 -6.5 c 128,-1,40
 49 4 49 4 46 26 c 0,41,42
 46 161 46 161 45.5 299.5 c 128,-1,43
 45 438 45 438 45 573 c 1,44,45
 49 591 49 591 60 601 c 128,-1,46
 71 611 71 611 85 611 c 0,47,48
 99 610 99 610 115 600 c 1,49,50
 163 534 163 534 227 420.5 c 128,-1,51
 291 307 291 307 305 281 c 128,-1,52
 319 255 319 255 353 163 c 1,53,54
 357 273 357 273 358.5 374 c 128,-1,55
 360 475 360 475 360 586 c 1,0,1
EndSplineSet
EndChar

StartChar: O
Encoding: 79 79 46
Width: 500
Flags: W
LayerCount: 2
Fore
SplineSet
368 273 m 0,0,1
 370 293 370 293 372 312 c 128,-1,2
 374 331 374 331 374 352 c 0,3,4
 374 378 374 378 369 405 c 128,-1,5
 364 432 364 432 351 455 c 0,6,7
 328 498 328 498 307 523 c 128,-1,8
 286 548 286 548 254 545 c 0,9,10
 222 539 222 539 194 495.5 c 128,-1,11
 166 452 166 452 150 400 c 128,-1,12
 134 348 134 348 132 330 c 128,-1,13
 130 312 130 312 124 264 c 1,14,15
 126 215 126 215 136 177 c 128,-1,16
 146 139 146 139 162 115 c 128,-1,17
 178 91 178 91 188 81 c 0,18,19
 210 66 210 66 227 70 c 1,20,21
 246 70 246 70 256 71.5 c 128,-1,22
 266 73 266 73 284 88 c 0,23,24
 304 106 304 106 316 126 c 128,-1,25
 328 146 328 146 338.5 170 c 128,-1,26
 349 194 349 194 359 220 c 128,-1,27
 369 246 369 246 368 273 c 0,0,1
446 260 m 0,28,29
 443 223 443 223 429.5 183 c 128,-1,30
 416 143 416 143 397.5 109 c 128,-1,31
 379 75 379 75 353.5 49 c 128,-1,32
 328 23 328 23 300 9 c 0,33,34
 284 3 284 3 266.5 -3 c 128,-1,35
 249 -9 249 -9 233 -11 c 0,36,37
 205 -8 205 -8 188 -6 c 0,38,39
 147 9 147 9 122 40.5 c 128,-1,40
 97 72 97 72 79.5 107.5 c 128,-1,41
 62 143 62 143 54.5 183 c 128,-1,42
 47 223 47 223 47 263 c 0,43,44
 47 278 47 278 48 292.5 c 128,-1,45
 49 307 49 307 51 321 c 0,46,47
 56 353 56 353 66 391.5 c 128,-1,48
 76 430 76 430 91 467 c 128,-1,49
 106 504 106 504 124 534.5 c 128,-1,50
 142 565 142 565 164 587 c 0,51,52
 176 599 176 599 203.5 609 c 128,-1,53
 231 619 231 619 273 621 c 1,54,55
 332 613 332 613 362 585 c 128,-1,56
 392 557 392 557 423 492 c 0,57,58
 440 460 440 460 447 424.5 c 128,-1,59
 454 389 454 389 454 353 c 0,60,61
 454 330 454 330 452 306.5 c 128,-1,62
 450 283 450 283 446 260 c 0,28,29
EndSplineSet
EndChar

StartChar: P
Encoding: 80 80 47
Width: 500
Flags: W
LayerCount: 2
Fore
SplineSet
51 556 m 1,0,1
 56 576 56 576 67 585.5 c 128,-1,2
 78 595 78 595 92 595 c 0,3,4
 100 595 100 595 104 593 c 0,5,6
 142 610 142 610 179.5 620 c 128,-1,7
 217 630 217 630 233 630 c 0,8,9
 261 630 261 630 287.5 624.5 c 128,-1,10
 314 619 314 619 339 605 c 0,11,12
 366 591 366 591 388 569 c 128,-1,13
 410 547 410 547 425 520.5 c 128,-1,14
 440 494 440 494 448.5 464 c 128,-1,15
 457 434 457 434 457 404 c 0,16,17
 457 346 457 346 426 297 c 0,18,19
 393 246 393 246 345 215.5 c 128,-1,20
 297 185 297 185 235 180 c 0,21,22
 223 179 223 179 210.5 178.5 c 128,-1,23
 198 178 198 178 187 178 c 0,24,25
 171 178 171 178 159 181 c 128,-1,26
 147 184 147 184 133 187 c 1,27,28
 133 149 133 149 133 101 c 128,-1,29
 133 53 133 53 134 15 c 0,30,31
 133 -8 133 -8 120.5 -19.5 c 128,-1,32
 108 -31 108 -31 93 -31 c 0,33,34
 79 -31 79 -31 67 -20.5 c 128,-1,35
 55 -10 55 -10 52 12 c 2,36,-1
 51 288 l 1,37,-1
 51 556 l 1,38,-1
 51 556 l 1,0,1
300 533 m 0,39,40
 269 549 269 549 232 549 c 0,41,42
 197 547 197 547 179 539 c 128,-1,43
 161 531 161 531 133 516 c 1,44,-1
 133 270 l 1,45,46
 154 265 154 265 175 262.5 c 128,-1,47
 196 260 196 260 218 260 c 0,48,49
 239 260 239 260 275 272.5 c 128,-1,50
 311 285 311 285 333 308 c 0,51,52
 353 330 353 330 363 356 c 128,-1,53
 373 382 373 382 373 408 c 0,54,55
 373 446 373 446 354.5 479.5 c 128,-1,56
 336 513 336 513 300 533 c 0,39,40
EndSplineSet
EndChar

StartChar: Q
Encoding: 81 81 48
Width: 500
Flags: W
LayerCount: 2
Fore
SplineSet
450 13 m 0,0,1
 474 -1 474 -1 475 -26 c 0,2,3
 476 -41 476 -41 467.5 -52 c 128,-1,4
 459 -63 459 -63 443 -65 c 0,5,6
 429 -65 429 -65 419 -58 c 0,7,8
 369 -2 369 -2 331 30 c 0,9,10
 329 29 329 29 292 3 c 0,11,12
 277 -5 277 -5 264.5 -11 c 128,-1,13
 252 -17 252 -17 232 -17 c 0,14,15
 216 -20 216 -20 194 -13 c 0,16,17
 168 -6 168 -6 134 24 c 128,-1,18
 100 54 100 54 86 80 c 128,-1,19
 72 106 72 106 61 154.5 c 128,-1,20
 50 203 50 203 47 239 c 0,21,22
 45 254 45 254 46.5 268.5 c 128,-1,23
 48 283 48 283 48 297 c 0,24,25
 50 330 50 330 57 371 c 128,-1,26
 64 412 64 412 80.5 449.5 c 128,-1,27
 97 487 97 487 118.5 521.5 c 128,-1,28
 140 556 140 556 168 578 c 0,29,30
 188 593 188 593 221.5 606.5 c 128,-1,31
 255 620 255 620 311.5 599 c 128,-1,32
 368 578 368 578 410 514 c 0,33,34
 430 482 430 482 440 447 c 128,-1,35
 450 412 450 412 453 375 c 0,36,37
 458 327 458 327 453 280 c 0,38,39
 444 226 444 226 430 177.5 c 128,-1,40
 416 129 416 129 377 83 c 1,41,42
 399 60 399 60 419.5 41 c 128,-1,43
 440 22 440 22 450 13 c 0,0,1
320 143 m 1,44,45
 352 177 352 177 357 208.5 c 128,-1,46
 362 240 362 240 372 286 c 0,47,48
 373 306 373 306 373.5 326.5 c 128,-1,49
 374 347 374 347 372 367 c 0,50,51
 369 395 369 395 362 421 c 128,-1,52
 355 447 355 447 341 470 c 0,53,54
 314 512 314 512 287 524 c 128,-1,55
 260 536 260 536 212 506 c 1,56,57
 185 482 185 482 171.5 452 c 128,-1,58
 158 422 158 422 146 386 c 128,-1,59
 134 350 134 350 130.5 312 c 128,-1,60
 127 274 127 274 130 241 c 0,61,62
 131 206 131 206 141 162 c 128,-1,63
 151 118 151 118 171 96 c 128,-1,64
 191 74 191 74 219 60 c 128,-1,65
 247 46 247 46 280 85 c 1,66,67
 272 95 272 95 256 113 c 0,68,69
 246 127 246 127 229 140.5 c 128,-1,70
 212 154 212 154 206.5 164 c 128,-1,71
 201 174 201 174 199 189 c 0,72,73
 197 205 197 205 208.5 217 c 128,-1,74
 220 229 220 229 230 225 c 1,75,76
 245 226 245 226 261 210 c 0,77,78
 281 188 281 188 295.5 169.5 c 128,-1,79
 310 151 310 151 320 143 c 1,44,45
EndSplineSet
EndChar

StartChar: R
Encoding: 82 82 49
Width: 500
Flags: W
LayerCount: 2
Fore
SplineSet
146 29 m 1,0,1
 145 6 145 6 132.5 -5.5 c 128,-1,2
 120 -17 120 -17 105 -17 c 0,3,4
 91 -17 91 -17 79 -6.5 c 128,-1,5
 67 4 67 4 64 26 c 0,6,7
 66 478 66 478 63 556 c 0,8,9
 66 580 66 580 74.5 589 c 128,-1,10
 83 598 83 598 90 603 c 0,11,12
 133 628 133 628 166 634 c 128,-1,13
 199 640 199 640 216 638 c 0,14,15
 260 638 260 638 300.5 626 c 128,-1,16
 341 614 341 614 375 587 c 0,17,18
 415 555 415 555 433 517 c 128,-1,19
 451 479 451 479 451 439 c 0,20,21
 451 407 451 407 440.5 376 c 128,-1,22
 430 345 430 345 411 317.5 c 128,-1,23
 392 290 392 290 365.5 267.5 c 128,-1,24
 339 245 339 245 306 230 c 1,25,26
 344 187 344 187 388 139 c 128,-1,27
 432 91 432 91 470 49 c 0,28,29
 481 35 481 35 481 18 c 256,30,31
 481 1 481 1 470 -9.5 c 128,-1,32
 459 -20 459 -20 443 -20 c 0,33,34
 435 -20 435 -20 425.5 -16.5 c 128,-1,35
 416 -13 416 -13 408 -4 c 0,36,37
 402 3 402 3 387 19.5 c 128,-1,38
 372 36 372 36 353 56.5 c 128,-1,39
 334 77 334 77 313 100.5 c 128,-1,40
 292 124 292 124 273.5 144.5 c 128,-1,41
 255 165 255 165 240 181 c 128,-1,42
 225 197 225 197 219 204 c 1,43,44
 192 199 192 199 165 197 c 128,-1,45
 138 195 138 195 146 194 c 1,46,-1
 146 29 l 1,47,-1
 146 29 l 1,0,1
322 525 m 0,48,49
 298 542 298 542 269.5 549 c 128,-1,50
 241 556 241 556 211 556 c 0,51,52
 185 556 185 556 169.5 554 c 128,-1,53
 154 552 154 552 146 537 c 1,54,-1
 146 276 l 1,55,56
 184 278 184 278 204.5 282 c 128,-1,57
 225 286 225 286 262 300 c 0,58,59
 284 308 284 308 303.5 323 c 128,-1,60
 323 338 323 338 338 357 c 128,-1,61
 353 376 353 376 361.5 397.5 c 128,-1,62
 370 419 370 419 370 440 c 0,63,64
 370 463 370 463 359 485 c 128,-1,65
 348 507 348 507 322 525 c 0,48,49
EndSplineSet
EndChar

StartChar: S
Encoding: 83 83 50
Width: 500
Flags: W
LayerCount: 2
Fore
SplineSet
48 75 m 1,0,1
 42 89 42 89 42 101 c 0,2,3
 42 118 42 118 52.5 128.5 c 128,-1,4
 63 139 63 139 79 139 c 256,5,6
 95 139 95 139 110 128 c 1,7,8
 127 108 127 108 149.5 94.5 c 128,-1,9
 172 81 172 81 197.5 73.5 c 128,-1,10
 223 66 223 66 238 63.5 c 128,-1,11
 253 61 253 61 279 61 c 0,12,13
 300 59 300 59 306.5 64 c 128,-1,14
 313 69 313 69 317 71 c 128,-1,15
 321 73 321 73 326 77 c 128,-1,16
 331 81 331 81 345 91 c 0,17,18
 350 98 350 98 354 104 c 128,-1,19
 358 110 358 110 363 117 c 2,20,-1
 372 144 l 2,21,22
 372 151 372 151 372 157.5 c 128,-1,23
 372 164 372 164 371 172 c 0,24,25
 369 179 369 179 366 185.5 c 128,-1,26
 363 192 363 192 360 199 c 0,27,28
 354 206 354 206 348.5 212 c 128,-1,29
 343 218 343 218 337 225 c 0,30,31
 328 230 328 230 319 236 c 128,-1,32
 310 242 310 242 299 245 c 0,33,34
 258 259 258 259 232.5 264.5 c 128,-1,35
 207 270 207 270 176.5 278.5 c 128,-1,36
 146 287 146 287 119 305 c 128,-1,37
 92 323 92 323 66 363 c 0,38,39
 61 371 61 371 60 375 c 128,-1,40
 59 379 59 379 58 389 c 0,41,42
 57 397 57 397 56.5 404.5 c 128,-1,43
 56 412 56 412 56 419 c 0,44,45
 56 437 56 437 59.5 451 c 128,-1,46
 63 465 63 465 70 478 c 128,-1,47
 77 491 77 491 88 504.5 c 128,-1,48
 99 518 99 518 114 534 c 0,49,50
 131 552 131 552 153 563.5 c 128,-1,51
 175 575 175 575 199 581.5 c 128,-1,52
 223 588 223 588 239.5 590.5 c 128,-1,53
 256 593 256 593 280 593 c 0,54,55
 288 593 288 593 294.5 593 c 128,-1,56
 301 593 301 593 308 592 c 0,57,58
 331 590 331 590 351.5 581 c 128,-1,59
 372 572 372 572 394 566 c 1,60,61
 417 550 417 550 417 527 c 0,62,63
 417 512 417 512 405.5 500.5 c 128,-1,64
 394 489 394 489 373 489 c 0,65,66
 371 489 371 489 368.5 489.5 c 128,-1,67
 366 490 366 490 364 490 c 0,68,69
 332 500 332 500 307.5 505.5 c 128,-1,70
 283 511 283 511 260 511 c 1,71,72
 234 506 234 506 220 503 c 128,-1,73
 206 500 206 500 171 476 c 0,74,75
 165 468 165 468 159 461.5 c 128,-1,76
 153 455 153 455 147 448 c 0,77,78
 144 442 144 442 141.5 436 c 128,-1,79
 139 430 139 430 137 424 c 0,80,81
 137 418 137 418 137.5 412 c 128,-1,82
 138 406 138 406 139 401 c 0,83,84
 143 396 143 396 146 391 c 128,-1,85
 149 386 149 386 153 381 c 2,86,-1
 194 359 l 1,87,88
 225 350 225 350 242 345 c 128,-1,89
 259 340 259 340 283 333.5 c 128,-1,90
 307 327 307 327 330.5 318 c 128,-1,91
 354 309 354 309 381 294 c 0,92,93
 395 286 395 286 405 273.5 c 128,-1,94
 415 261 415 261 424 250 c 0,95,96
 440 231 440 231 447.5 207 c 128,-1,97
 455 183 455 183 455 157 c 0,98,99
 455 121 455 121 441 87 c 128,-1,100
 427 53 427 53 401 31 c 0,101,102
 392 23 392 23 382.5 16.5 c 128,-1,103
 373 10 373 10 364 4 c 0,104,105
 343 -10 343 -10 317 -17 c 128,-1,106
 291 -24 291 -24 262 -24 c 0,107,108
 229 -24 229 -24 204.5 -16.5 c 128,-1,109
 180 -9 180 -9 149 4.5 c 128,-1,110
 118 18 118 18 92 36 c 128,-1,111
 66 54 66 54 48 75 c 1,0,1
EndSplineSet
EndChar

StartChar: T
Encoding: 84 84 51
Width: 500
Flags: W
LayerCount: 2
Fore
SplineSet
439 593 m 0,0,1
 457 587 457 587 466 575 c 128,-1,2
 475 563 475 563 474 550 c 0,3,4
 473 536 473 536 463 525.5 c 128,-1,5
 453 515 453 515 433 511 c 1,6,-1
 293 513 l 1,7,-1
 294 25 l 2,8,9
 293 2 293 2 280.5 -9.5 c 128,-1,10
 268 -21 268 -21 253 -21 c 0,11,12
 239 -21 239 -21 227 -10.5 c 128,-1,13
 215 0 215 0 212 22 c 2,14,-1
 211 513 l 1,15,-1
 64 517 l 2,16,17
 43 521 43 521 32.5 533.5 c 128,-1,18
 22 546 22 546 23 560 c 0,19,20
 24 575 24 575 35.5 587 c 128,-1,21
 47 599 47 599 70 599 c 0,22,23
 82 599 82 599 112.5 599 c 128,-1,24
 143 599 143 599 175.5 598 c 128,-1,25
 208 597 208 597 255 596 c 128,-1,26
 302 595 302 595 341.5 593.5 c 128,-1,27
 381 592 381 592 404 592.5 c 128,-1,28
 427 593 427 593 439 593 c 0,0,1
EndSplineSet
EndChar

StartChar: U
Encoding: 85 85 52
Width: 500
Flags: W
LayerCount: 2
Fore
SplineSet
369 575 m 1,0,1
 374 595 374 595 385 605 c 128,-1,2
 396 615 396 615 410 615 c 0,3,4
 423 615 423 615 434.5 606 c 128,-1,5
 446 597 446 597 451 578 c 1,6,7
 450 515 450 515 447.5 445.5 c 128,-1,8
 445 376 445 376 438.5 310.5 c 128,-1,9
 432 245 432 245 420.5 187.5 c 128,-1,10
 409 130 409 130 389 90 c 0,11,12
 375 66 375 66 357 48 c 128,-1,13
 339 30 339 30 309 18 c 128,-1,14
 279 6 279 6 256.5 0 c 128,-1,15
 234 -6 234 -6 224 -4 c 0,16,17
 177 -4 177 -4 161 5 c 128,-1,18
 145 14 145 14 131 24.5 c 128,-1,19
 117 35 117 35 101.5 58.5 c 128,-1,20
 86 82 86 82 80 110 c 0,21,22
 64 158 64 158 57 215.5 c 128,-1,23
 50 273 50 273 48.5 334 c 128,-1,24
 47 395 47 395 48 455 c 128,-1,25
 49 515 49 515 49 568 c 1,26,27
 54 588 54 588 65 598 c 128,-1,28
 76 608 76 608 90 608 c 0,29,30
 103 608 103 608 114.5 599 c 128,-1,31
 126 590 126 590 131 571 c 1,32,33
 131 538 131 538 130 495.5 c 128,-1,34
 129 453 129 453 128.5 407.5 c 128,-1,35
 128 362 128 362 129.5 316.5 c 128,-1,36
 131 271 131 271 135.5 231 c 128,-1,37
 140 191 140 191 146.5 161 c 128,-1,38
 153 131 153 131 168 107 c 1,39,40
 189 85 189 85 196 81 c 128,-1,41
 203 77 203 77 228 77 c 0,42,43
 258 77 258 77 281.5 91 c 128,-1,44
 305 105 305 105 319 133 c 0,45,46
 327 149 327 149 336.5 180 c 128,-1,47
 346 211 346 211 351.5 251 c 128,-1,48
 357 291 357 291 360 336.5 c 128,-1,49
 363 382 363 382 365 426 c 128,-1,50
 367 470 367 470 367.5 509 c 128,-1,51
 368 548 368 548 369 575 c 1,0,1
EndSplineSet
EndChar

StartChar: V
Encoding: 86 86 53
Width: 500
Flags: W
LayerCount: 2
Fore
SplineSet
391 585 m 1,0,1
 407 611 407 611 430 611 c 0,2,3
 445 611 445 611 457 600 c 128,-1,4
 469 589 469 589 469 571 c 0,5,6
 469 562 469 562 464 549 c 0,7,8
 418 400 418 400 372.5 290 c 128,-1,9
 327 180 327 180 288 21 c 0,10,11
 282 5 282 5 268.5 -5 c 128,-1,12
 255 -15 255 -15 243 -15 c 0,13,14
 232 -15 232 -15 221.5 -8 c 128,-1,15
 211 -1 211 -1 204 13 c 0,16,17
 151 150 151 150 99.5 286 c 128,-1,18
 48 422 48 422 28 557 c 0,19,20
 28 559 28 559 27.5 561.5 c 128,-1,21
 27 564 27 564 27 566 c 0,22,23
 27 587 27 587 38.5 598.5 c 128,-1,24
 50 610 50 610 65 610 c 0,25,26
 88 610 88 610 104 587 c 1,27,28
 130 520 130 520 137.5 465.5 c 128,-1,29
 145 411 145 411 165 357.5 c 128,-1,30
 185 304 185 304 202.5 250 c 128,-1,31
 220 196 220 196 242 136 c 1,32,33
 250 174 250 174 259 201.5 c 128,-1,34
 268 229 268 229 277 256 c 0,35,36
 310 350 310 350 338 430.5 c 128,-1,37
 366 511 366 511 391 585 c 1,0,1
EndSplineSet
EndChar

StartChar: W
Encoding: 87 87 54
Width: 500
Flags: W
LayerCount: 2
Fore
SplineSet
404 590 m 0,0,1
 409 610 409 610 420.5 619.5 c 128,-1,2
 432 629 432 629 446 629 c 0,3,4
 461 629 461 629 473 617.5 c 128,-1,5
 485 606 485 606 485 582 c 2,6,-1
 485 578 l 1,7,8
 473 503 473 503 468 453.5 c 128,-1,9
 463 404 463 404 448 281 c 0,10,11
 439 211 439 211 420 138.5 c 128,-1,12
 401 66 401 66 386 3 c 1,13,14
 370 -15 370 -15 358 -15 c 0,15,16
 337 -11 337 -11 333 7 c 0,17,18
 310 67 310 67 300 115 c 128,-1,19
 290 163 290 163 282 197.5 c 128,-1,20
 274 232 274 232 267 280 c 1,21,22
 259 262 259 262 251 234 c 128,-1,23
 243 206 243 206 227 138 c 128,-1,24
 211 70 211 70 184 -2 c 1,25,26
 168 -21 168 -21 166 -19 c 0,27,28
 141 -19 141 -19 127 9 c 0,29,30
 94 99 94 99 78 187 c 0,31,32
 70 225 70 225 61.5 268.5 c 128,-1,33
 53 312 53 312 44 358 c 256,34,35
 35 404 35 404 26.5 456 c 128,-1,36
 18 508 18 508 14 553 c 0,37,38
 12 571 12 571 15 578 c 0,39,40
 15 595 15 595 26 606 c 128,-1,41
 37 617 37 617 53 617 c 0,42,43
 63 617 63 617 73 612 c 128,-1,44
 83 607 83 607 91 595 c 1,45,46
 96 547 96 547 105 487.5 c 128,-1,47
 114 428 114 428 120 390 c 0,48,49
 132 320 132 320 135 290 c 128,-1,50
 138 260 138 260 165 174 c 1,51,52
 174 211 174 211 183.5 238.5 c 128,-1,53
 193 266 193 266 199 299 c 0,54,55
 208 345 208 345 216.5 368.5 c 128,-1,56
 225 392 225 392 233 407 c 0,57,58
 236 416 236 416 264 432 c 1,59,60
 286 429 286 429 298 413 c 0,61,62
 311 402 311 402 321.5 340 c 128,-1,63
 332 278 332 278 334 268 c 128,-1,64
 336 258 336 258 340 238 c 128,-1,65
 344 218 344 218 351 194 c 1,66,67
 358 230 358 230 360 250 c 128,-1,68
 362 270 362 270 370 304 c 0,69,70
 385 380 385 380 388.5 449 c 128,-1,71
 392 518 392 518 404 590 c 0,0,1
EndSplineSet
EndChar

StartChar: X
Encoding: 88 88 55
Width: 500
Flags: W
LayerCount: 2
Fore
SplineSet
380 601 m 1,0,1
 396 615 396 615 412 613 c 0,2,3
 428 613 428 613 439 602 c 128,-1,4
 450 591 450 591 450 574 c 0,5,6
 450 565 450 565 445 552 c 0,7,8
 414 488 414 488 378 426.5 c 128,-1,9
 342 365 342 365 303 293 c 1,10,11
 336 235 336 235 384.5 162 c 128,-1,12
 433 89 433 89 456 51 c 0,13,14
 459 42 459 42 459 33 c 0,15,16
 459 15 459 15 448 4 c 128,-1,17
 437 -7 437 -7 421 -7 c 0,18,19
 402 -7 402 -7 386 9 c 1,20,21
 344 73 344 73 321 115 c 128,-1,22
 298 157 298 157 257 223 c 1,23,24
 207 161 207 161 182 114.5 c 128,-1,25
 157 68 157 68 104 7 c 1,26,27
 89 -2 89 -2 78 -4 c 0,28,29
 61 -4 61 -4 50.5 6.5 c 128,-1,30
 40 17 40 17 40 34 c 0,31,32
 40 48 40 48 49 63 c 0,33,34
 96 139 96 139 133.5 191.5 c 128,-1,35
 171 244 171 244 204 298 c 1,36,37
 156 368 156 368 120 432 c 128,-1,38
 84 496 84 496 57 542 c 0,39,40
 48 550 48 550 44.5 559.5 c 128,-1,41
 41 569 41 569 41 577 c 0,42,43
 41 593 41 593 51.5 604 c 128,-1,44
 62 615 62 615 79 615 c 0,45,46
 96 614 96 614 110 604 c 1,47,48
 149 546 149 546 181 490 c 128,-1,49
 213 434 213 434 254 370 c 1,50,51
 293 439 293 439 315.5 482.5 c 128,-1,52
 338 526 338 526 380 601 c 1,0,1
EndSplineSet
EndChar

StartChar: Y
Encoding: 89 89 56
Width: 500
Flags: W
LayerCount: 2
Fore
SplineSet
288 37 m 0,0,1
 287 14 287 14 274.5 2.5 c 128,-1,2
 262 -9 262 -9 247 -9 c 0,3,4
 233 -9 233 -9 221 1.5 c 128,-1,5
 209 12 209 12 206 34 c 0,6,7
 206 95 206 95 205.5 155.5 c 128,-1,8
 205 216 205 216 205 278 c 1,9,10
 150 348 150 348 100.5 414 c 128,-1,11
 51 480 51 480 18 554 c 0,12,13
 18 556 18 556 15.5 561 c 128,-1,14
 13 566 13 566 13 568 c 0,15,16
 13 589 13 589 24.5 600.5 c 128,-1,17
 36 612 36 612 51 612 c 0,18,19
 74 611 74 611 90 589 c 0,20,21
 124 533 124 533 161 473.5 c 128,-1,22
 198 414 198 414 245 352 c 1,23,24
 288 412 288 412 329 469.5 c 128,-1,25
 370 527 370 527 410 590 c 0,26,27
 418 604 418 604 428.5 610 c 128,-1,28
 439 616 439 616 449 616 c 0,29,30
 464 616 464 616 476 605 c 128,-1,31
 488 594 488 594 488 576 c 0,32,33
 488 567 488 567 483 554 c 0,34,35
 432 476 432 476 386 412 c 128,-1,36
 340 348 340 348 291 280 c 1,37,-1
 287 276 l 1,38,39
 287 216 287 216 287 156.5 c 128,-1,40
 287 97 287 97 288 37 c 0,0,1
EndSplineSet
EndChar

StartChar: Z
Encoding: 90 90 57
Width: 500
Flags: W
LayerCount: 2
Fore
SplineSet
126 262 m 0,0,1
 104 265 104 265 93.5 277 c 128,-1,2
 83 289 83 289 83 303 c 256,3,4
 83 317 83 317 94.5 330.5 c 128,-1,5
 106 344 106 344 129 344 c 0,6,7
 141 344 141 344 169.5 344 c 128,-1,8
 198 344 198 344 212.5 344.5 c 128,-1,9
 227 345 227 345 255.5 345 c 128,-1,10
 284 345 284 345 385 345 c 5,11,12
 404 340 404 340 413 328.5 c 132,-1,13
 422 317 422 317 422 304 c 4,14,15
 422 290 422 290 412 279 c 132,-1,16
 402 268 402 268 382 263 c 5,17,18
 335 263 335 263 224.5 262.5 c 0,19,20
 126 262 l 0,0,1
208 280 m 1024,21,-1
338 362 m 0,22,23
 308 307 308 307 284.5 249 c 1024,24,-1
208.5 317.5 m 1024,25,-1
337.5 373 m 0,26,27
 282 300 282 300 250 234 c 1025,28,-1
81 -3 m 2,29,30
 58 -3 58 -3 48 17 c 0,31,32
 42 26 42 26 42 37 c 256,33,34
 42 48 42 48 48 57 c 0,35,36
 49 59 49 59 49.5 61 c 128,-1,37
 50 63 50 63 52 65 c 0,38,39
 154 206 154 206 224.5 317.5 c 128,-1,40
 295 429 295 429 355 535 c 1,41,42
 298 535 298 535 262.5 535 c 128,-1,43
 227 535 227 535 171 533 c 0,44,45
 159 533 159 533 130.5 532 c 128,-1,46
 102 531 102 531 89 533 c 0,47,48
 67 536 67 536 56 546 c 128,-1,49
 45 556 45 556 45 570 c 0,50,51
 45 585 45 585 56.5 597.5 c 128,-1,52
 68 610 68 610 91 611 c 0,53,54
 120 609 120 609 148 609 c 128,-1,55
 176 609 176 609 204 609 c 0,56,57
 280 609 280 609 315.5 611 c 128,-1,58
 351 613 351 613 426 613 c 1,59,60
 461 602 461 602 461 573 c 0,61,62
 461 565 461 565 458 557 c 128,-1,63
 455 549 455 549 448 541 c 0,64,65
 409 446 409 446 353.5 373 c 128,-1,66
 298 300 298 300 266 234 c 1,67,68
 244 206 244 206 214.5 161.5 c 128,-1,69
 185 117 185 117 152 82 c 1,70,-1
 190 82 l 2,71,72
 196 82 196 82 221 79.5 c 128,-1,73
 246 77 246 77 279 77 c 0,74,75
 315 75 315 75 349 80 c 128,-1,76
 383 85 383 85 420 94 c 1,77,-1
 421 94 l 2,78,79
 442 96 442 96 453 84.5 c 128,-1,80
 464 73 464 73 466 58 c 0,81,82
 466 47 466 47 460 37 c 128,-1,83
 454 27 454 27 440 19 c 1,84,85
 417 13 417 13 395 8 c 128,-1,86
 373 3 373 3 350 1 c 0,87,88
 336 -1 336 -1 322 -1 c 128,-1,89
 308 -1 308 -1 294 -1 c 0,90,91
 243 -1 243 -1 227.5 1.5 c 128,-1,92
 212 4 212 4 191 4 c 0,93,94
 158 4 158 4 134.5 3 c 128,-1,95
 111 2 111 2 85 -3 c 1,96,-1
 81 -3 l 2,29,30
EndSplineSet
EndChar

StartChar: bracketleft
Encoding: 91 91 58
Width: 500
Flags: W
LayerCount: 2
Fore
SplineSet
373 -4 m 1,0,1
 392 -10 392 -10 401 -22 c 128,-1,2
 410 -34 410 -34 409.5 -46.5 c 128,-1,3
 409 -59 409 -59 399 -70.5 c 128,-1,4
 389 -82 389 -82 370 -86 c 1,5,6
 341 -86 341 -86 296 -85 c 128,-1,7
 251 -84 251 -84 222 -84 c 0,8,9
 183 -80 183 -80 179 -41 c 1,10,-1
 179 701 l 1,11,12
 184 721 184 721 194.5 730 c 128,-1,13
 205 739 205 739 225 740 c 2,14,-1
 373 740 l 1,15,16
 392 734 392 734 401 722 c 128,-1,17
 410 710 410 710 409.5 697.5 c 128,-1,18
 409 685 409 685 399 673.5 c 128,-1,19
 389 662 389 662 370 658 c 1,20,-1
 261 658 l 1,21,-1
 261 -3 l 1,22,-1
 373 -4 l 1,23,-1
 373 -4 l 1,0,1
EndSplineSet
EndChar

StartChar: backslash
Encoding: 92 92 59
Width: 500
Flags: W
LayerCount: 2
Fore
SplineSet
69 643 m 0,0,1
 69 645 69 645 68.5 647.5 c 128,-1,2
 68 650 68 650 68 652 c 0,3,4
 68 673 68 673 79.5 684.5 c 128,-1,5
 91 696 91 696 106 696 c 0,6,7
 129 696 129 696 145 673 c 1,8,9
 220 502 220 502 295.5 334.5 c 128,-1,10
 371 167 371 167 447 -4 c 0,11,12
 450 -13 450 -13 450 -22 c 0,13,14
 450 -41 450 -41 438.5 -52 c 128,-1,15
 427 -63 427 -63 412 -63 c 0,16,17
 401 -63 401 -63 389.5 -56 c 128,-1,18
 378 -49 378 -49 371 -34 c 0,19,20
 362 -14 362 -14 338.5 38.5 c 128,-1,21
 315 91 315 91 284.5 159.5 c 128,-1,22
 254 228 254 228 220 304.5 c 128,-1,23
 186 381 186 381 155.5 449.5 c 128,-1,24
 125 518 125 518 101.5 570.5 c 128,-1,25
 78 623 78 623 69 643 c 0,0,1
EndSplineSet
EndChar

StartChar: bracketright
Encoding: 93 93 60
Width: 500
Flags: W
LayerCount: 2
Fore
SplineSet
115 -3 m 1,0,1
 96 -9 96 -9 87 -21 c 128,-1,2
 78 -33 78 -33 78.5 -45.5 c 128,-1,3
 79 -58 79 -58 89 -69.5 c 128,-1,4
 99 -81 99 -81 118 -85 c 1,5,6
 147 -85 147 -85 198 -85 c 128,-1,7
 249 -85 249 -85 278 -85 c 0,8,9
 317 -81 317 -81 321 -42 c 1,10,-1
 321 700 l 1,11,12
 316 720 316 720 305.5 729 c 128,-1,13
 295 738 295 738 275 739 c 2,14,-1
 115 739 l 1,15,16
 96 733 96 733 87 721 c 128,-1,17
 78 709 78 709 78.5 696.5 c 128,-1,18
 79 684 79 684 89 672.5 c 128,-1,19
 99 661 99 661 118 657 c 1,20,-1
 239 657 l 1,21,-1
 239 -4 l 1,22,-1
 115 -3 l 1,23,-1
 115 -3 l 1,0,1
EndSplineSet
EndChar

StartChar: asciicircum
Encoding: 94 94 61
Width: 500
Flags: W
LayerCount: 2
Fore
SplineSet
443 410 m 0,0,1
 443 386 443 386 433.5 379.5 c 128,-1,2
 424 373 424 373 400 373 c 0,3,4
 372 373 372 373 356 398 c 1,5,-1
 252 520 l 1,6,-1
 144 401 l 2,7,8
 127 378 127 378 101 378 c 0,9,10
 77 378 77 378 68 384.5 c 128,-1,11
 59 391 59 391 59 415 c 0,12,13
 59 434 59 434 72 450 c 0,14,15
 128 503 128 503 187 574 c 1,16,17
 224 611 224 611 253 611 c 0,18,19
 281 611 281 611 317 572 c 0,20,21
 344 542 344 542 431 444 c 0,22,23
 443 428 443 428 443 410 c 0,0,1
EndSplineSet
EndChar

StartChar: underscore
Encoding: 95 95 62
Width: 500
Flags: W
LayerCount: 2
Fore
SplineSet
47 -82 m 1,0,1
 25 -80 25 -80 14.5 -67.5 c 128,-1,2
 4 -55 4 -55 4 -41 c 0,3,4
 4 -26 4 -26 15.5 -14 c 128,-1,5
 27 -2 27 -2 50 0 c 2,6,-1
 459 0 l 1,7,8
 478 -5 478 -5 487 -17 c 128,-1,9
 496 -29 496 -29 496 -41 c 0,10,11
 496 -55 496 -55 486 -66 c 128,-1,12
 476 -77 476 -77 456 -82 c 1,13,-1
 47 -82 l 1,14,-1
 47 -82 l 1,0,1
EndSplineSet
EndChar

StartChar: grave
Encoding: 96 96 63
Width: 500
Flags: W
LayerCount: 2
Fore
SplineSet
220 603 m 0,0,1
 260 571 260 571 302.5 535.5 c 128,-1,2
 345 500 345 500 365 479 c 0,3,4
 382 458 382 458 378 442 c 128,-1,5
 374 426 374 426 362 414 c 128,-1,6
 350 402 350 402 331.5 398 c 128,-1,7
 313 394 313 394 301 403 c 0,8,9
 283 421 283 421 242 454.5 c 128,-1,10
 201 488 201 488 157 527 c 1,11,12
 144 545 144 545 145.5 564 c 128,-1,13
 147 583 147 583 157 595 c 0,14,15
 185 627 185 627 220 603 c 0,0,1
EndSplineSet
EndChar

StartChar: a
Encoding: 97 97 64
Width: 500
Flags: W
LayerCount: 2
Fore
SplineSet
472 44 m 0,0,1
 472 43 472 43 471 43 c 1,2,3
 477 29 477 29 474 17 c 128,-1,4
 471 5 471 5 462.5 -2.5 c 128,-1,5
 454 -10 454 -10 440.5 -12 c 128,-1,6
 427 -14 427 -14 411 -6 c 1,7,8
 402 3 402 3 392.5 18.5 c 128,-1,9
 383 34 383 34 377 45 c 1,10,11
 355 32 355 32 337 17 c 128,-1,12
 319 2 319 2 295 -7 c 1,13,14
 255 -9 255 -9 203.5 -11 c 128,-1,15
 152 -13 152 -13 117 12 c 0,16,17
 88 33 88 33 72.5 62 c 128,-1,18
 57 91 57 91 50.5 125 c 128,-1,19
 44 159 44 159 50.5 201 c 128,-1,20
 57 243 57 243 65 261 c 0,21,22
 74 283 74 283 78.5 294.5 c 128,-1,23
 83 306 83 306 91 318 c 0,24,25
 103 344 103 344 120 360 c 128,-1,26
 137 376 137 376 151 385 c 0,27,28
 163 395 163 395 177 404 c 128,-1,29
 191 413 191 413 205 420 c 0,30,31
 217 426 217 426 244 432 c 128,-1,32
 271 438 271 438 293 441.5 c 128,-1,33
 315 445 315 445 337.5 443 c 128,-1,34
 360 441 360 441 375 435 c 0,35,36
 391 429 391 429 403.5 424 c 128,-1,37
 416 419 416 419 423 399 c 1,38,39
 423 331 423 331 422 262 c 128,-1,40
 421 193 421 193 431 125 c 0,41,42
 432 116 432 116 438.5 103.5 c 128,-1,43
 445 91 445 91 452.5 79 c 128,-1,44
 460 67 460 67 466 57 c 128,-1,45
 472 47 472 47 472 44 c 0,0,1
347 121 m 0,46,47
 349 123 349 123 350 123.5 c 128,-1,48
 351 124 351 124 353 125 c 0,49,50
 340 185 340 185 339.5 245.5 c 128,-1,51
 339 306 339 306 340 360 c 1,52,53
 329 367 329 367 317 365.5 c 128,-1,54
 305 364 305 364 293 361 c 128,-1,55
 281 358 281 358 277.5 356 c 128,-1,56
 274 354 274 354 260 351 c 0,57,58
 240 343 240 343 202.5 319.5 c 128,-1,59
 165 296 165 296 149 266 c 128,-1,60
 133 236 133 236 129 200.5 c 128,-1,61
 125 165 125 165 133 134 c 0,62,63
 135 126 135 126 138 118 c 128,-1,64
 141 110 141 110 143 102 c 0,65,66
 148 97 148 97 153.5 91 c 128,-1,67
 159 85 159 85 165 80 c 0,68,69
 174 76 174 76 183 73 c 128,-1,70
 192 70 192 70 201 67 c 0,71,72
 218 67 218 67 244.5 66.5 c 128,-1,73
 271 66 271 66 287 71 c 1,74,75
 302 81 302 81 317 91 c 128,-1,76
 332 101 332 101 347 121 c 0,46,47
EndSplineSet
EndChar

StartChar: b
Encoding: 98 98 65
Width: 500
Flags: W
LayerCount: 2
Fore
SplineSet
131 16 m 0,0,1
 114 6 114 6 99 7.5 c 128,-1,2
 84 9 84 9 75 18 c 128,-1,3
 66 27 66 27 64.5 42 c 128,-1,4
 63 57 63 57 73 74 c 1,5,-1
 76 77 l 1,6,-1
 76 597 l 1,7,8
 80 616 80 616 91.5 626 c 128,-1,9
 103 636 103 636 115.5 636.5 c 128,-1,10
 128 637 128 637 140 628 c 128,-1,11
 152 619 152 619 158 600 c 1,12,-1
 158 362 l 1,13,14
 180 383 180 383 205 395 c 1,15,16
 231 413 231 413 247 417 c 128,-1,17
 263 421 263 421 274 423 c 0,18,19
 300 427 300 427 323 418 c 128,-1,20
 346 409 346 409 368 396 c 0,21,22
 397 379 397 379 412 349 c 128,-1,23
 427 319 427 319 433 284.5 c 128,-1,24
 439 250 439 250 438 214.5 c 128,-1,25
 437 179 437 179 432 151 c 0,26,27
 430 135 430 135 423 120.5 c 128,-1,28
 416 106 416 106 408 92 c 0,29,30
 394 64 394 64 370 44.5 c 128,-1,31
 346 25 346 25 316.5 13.5 c 128,-1,32
 287 2 287 2 255.5 -2.5 c 128,-1,33
 224 -7 224 -7 217 -6 c 0,34,35
 194 -4 194 -4 173 1 c 128,-1,36
 152 6 152 6 132 18 c 1,37,38
 132 17 132 17 131 16 c 0,0,1
158 238 m 1,39,-1
 158 98 l 2,40,41
 161 96 161 96 169 92 c 0,42,43
 171 90 171 90 173 89 c 128,-1,44
 175 88 175 88 177 86 c 0,45,46
 229 66 229 66 265.5 79.5 c 128,-1,47
 302 93 302 93 338 135 c 1,48,49
 348 159 348 159 352.5 179.5 c 128,-1,50
 357 200 357 200 357 220.5 c 128,-1,51
 357 241 357 241 353 262 c 128,-1,52
 349 283 349 283 340 307 c 0,53,54
 335 312 335 312 331.5 317.5 c 128,-1,55
 328 323 328 323 323 328 c 0,56,57
 318 330 318 330 313.5 333 c 128,-1,58
 309 336 309 336 304 338 c 0,59,60
 299 339 299 339 293 340 c 128,-1,61
 287 341 287 341 282 342 c 0,62,63
 234 334 234 334 213.5 309 c 128,-1,64
 193 284 193 284 166 246 c 1,65,-1
 158 238 l 1,39,-1
EndSplineSet
EndChar

StartChar: c
Encoding: 99 99 66
Width: 500
Flags: W
LayerCount: 2
Fore
SplineSet
346 105 m 0,0,1
 363 119 363 119 379.5 118 c 128,-1,2
 396 117 396 117 406 107 c 128,-1,3
 416 97 416 97 417 80.5 c 128,-1,4
 418 64 418 64 404 47 c 0,5,6
 371 11 371 11 326.5 -4 c 128,-1,7
 282 -19 282 -19 227 -12 c 128,-1,8
 172 -5 172 -5 135 23 c 128,-1,9
 98 51 98 51 80 99 c 0,10,11
 69 126 69 126 64 156 c 128,-1,12
 59 186 59 186 61 215 c 0,13,14
 64 263 64 263 83.5 311.5 c 128,-1,15
 103 360 103 360 136.5 396 c 128,-1,16
 170 432 170 432 215.5 448.5 c 128,-1,17
 261 465 261 465 338 447 c 0,18,19
 365 438 365 438 387 425 c 128,-1,20
 409 412 409 412 429 392 c 0,21,22
 440 376 440 376 440 361 c 128,-1,23
 440 346 440 346 431.5 336.5 c 128,-1,24
 423 327 423 327 408.5 324 c 128,-1,25
 394 321 394 321 376 330 c 1,26,27
 343 363 343 363 312 369.5 c 128,-1,28
 281 376 281 376 243 364.5 c 128,-1,29
 205 353 205 353 184.5 326.5 c 128,-1,30
 164 300 164 300 153 266.5 c 128,-1,31
 142 233 142 233 142 196.5 c 128,-1,32
 142 160 142 160 156 129 c 0,33,34
 168 101 168 101 188.5 86 c 128,-1,35
 209 71 209 71 232 68.5 c 128,-1,36
 255 66 255 66 291 75 c 128,-1,37
 327 84 327 84 346 105 c 0,0,1
EndSplineSet
EndChar

StartChar: d
Encoding: 100 100 67
Width: 500
Flags: W
LayerCount: 2
Fore
SplineSet
446 71 m 0,0,1
 459 53 459 53 456.5 36.5 c 128,-1,2
 454 20 454 20 443.5 10.5 c 128,-1,3
 433 1 433 1 416.5 1.5 c 128,-1,4
 400 2 400 2 384 18 c 0,5,6
 379 23 379 23 375 28.5 c 128,-1,7
 371 34 371 34 369 39 c 1,8,9
 339 13 339 13 299.5 -1.5 c 128,-1,10
 260 -16 260 -16 226.5 -14.5 c 128,-1,11
 193 -13 193 -13 154.5 5 c 128,-1,12
 116 23 116 23 91 58 c 0,13,14
 72 85 72 85 63.5 118.5 c 128,-1,15
 55 152 55 152 55 186.5 c 128,-1,16
 55 221 55 221 63.5 254.5 c 128,-1,17
 72 288 72 288 85 317 c 0,18,19
 97 343 97 343 119.5 364 c 128,-1,20
 142 385 142 385 167 398 c 0,21,22
 190 411 190 411 220 418 c 128,-1,23
 250 425 250 425 262 423 c 0,24,25
 286 423 286 423 310 422 c 128,-1,26
 334 421 334 421 357 414 c 1,27,28
 356 486 356 486 355.5 535.5 c 128,-1,29
 355 585 355 585 355 602 c 0,30,31
 359 621 359 621 370.5 631 c 128,-1,32
 382 641 382 641 394.5 641.5 c 128,-1,33
 407 642 407 642 419 633 c 128,-1,34
 431 624 431 624 437 605 c 1,35,-1
 437 82 l 2,36,37
 439 79 439 79 441.5 76.5 c 128,-1,38
 444 74 444 74 446 71 c 0,0,1
358 143 m 1,39,-1
 358 157 l 2,40,41
 358 194 358 194 358 238.5 c 128,-1,42
 358 283 358 283 357 323 c 1,43,-1
 351 326 l 2,44,45
 348 328 348 328 345.5 330 c 128,-1,46
 343 332 343 332 340 334 c 0,47,48
 310 343 310 343 277 342 c 128,-1,49
 244 341 244 341 222 331 c 128,-1,50
 200 321 200 321 176 300.5 c 128,-1,51
 152 280 152 280 143 246 c 0,52,53
 135 215 135 215 137 192 c 128,-1,54
 139 169 139 169 143 138 c 0,55,56
 147 130 147 130 150.5 122 c 128,-1,57
 154 114 154 114 158 106 c 2,58,-1
 178 86 l 1,59,60
 190 82 190 82 197 75 c 1,61,62
 237 71 237 71 267 76.5 c 128,-1,63
 297 82 297 82 328 109 c 0,64,65
 329 111 329 111 332.5 114.5 c 128,-1,66
 336 118 336 118 340 122 c 128,-1,67
 344 126 344 126 347.5 129.5 c 128,-1,68
 351 133 351 133 352 134 c 2,69,-1
 358 143 l 1,39,-1
EndSplineSet
EndChar

StartChar: e
Encoding: 101 101 68
Width: 500
Flags: W
LayerCount: 2
Fore
SplineSet
389 129 m 0,0,1
 410 137 410 137 425 131 c 128,-1,2
 440 125 440 125 446.5 112 c 128,-1,3
 453 99 453 99 448.5 83 c 128,-1,4
 444 67 444 67 425 56 c 0,5,6
 392 37 392 37 354 21 c 128,-1,7
 316 5 316 5 277 -1 c 128,-1,8
 238 -7 238 -7 208 -0.5 c 128,-1,9
 178 6 178 6 143 30 c 0,10,11
 101 59 101 59 79 108.5 c 128,-1,12
 57 158 57 158 56 211.5 c 128,-1,13
 55 265 55 265 75.5 314.5 c 128,-1,14
 96 364 96 364 140 394 c 0,15,16
 186 425 186 425 232 440.5 c 128,-1,17
 278 456 278 456 333 444 c 0,18,19
 360 438 360 438 382 418.5 c 128,-1,20
 404 399 404 399 417.5 373.5 c 128,-1,21
 431 348 431 348 432 319.5 c 128,-1,22
 433 291 433 291 418 266 c 0,23,24
 401 238 401 238 369 218.5 c 128,-1,25
 337 199 337 199 299.5 185.5 c 128,-1,26
 262 172 262 172 224 163.5 c 128,-1,27
 186 155 186 155 172 149 c 0,28,29
 160 147 160 147 152 145 c 1,30,31
 167 113 167 113 196.5 92.5 c 128,-1,32
 226 72 226 72 254 75 c 0,33,34
 289 77 289 77 324.5 94.5 c 128,-1,35
 360 112 360 112 389 129 c 0,0,1
210 342 m 1,36,37
 173 323 173 323 155 288.5 c 128,-1,38
 137 254 137 254 137 216 c 1,39,40
 154 224 154 224 152 224 c 1,41,42
 172 230 172 230 183 233 c 128,-1,43
 194 236 194 236 210 245 c 0,44,45
 219 249 219 249 241 254.5 c 128,-1,46
 263 260 263 260 285 268 c 128,-1,47
 307 276 307 276 325 286.5 c 128,-1,48
 343 297 343 297 349 310 c 1,49,50
 351 343 351 343 333 355 c 128,-1,51
 315 367 315 367 290 367 c 128,-1,52
 265 367 265 367 238 358.5 c 128,-1,53
 211 350 211 350 210 342 c 1,36,37
EndSplineSet
EndChar

StartChar: f
Encoding: 102 102 69
Width: 500
Flags: W
LayerCount: 2
Fore
SplineSet
272 29 m 1,0,1
 271 6 271 6 258.5 -5.5 c 128,-1,2
 246 -17 246 -17 231 -17 c 0,3,4
 217 -17 217 -17 205 -6.5 c 128,-1,5
 193 4 193 4 190 26 c 2,6,-1
 190 310 l 1,7,-1
 96 310 l 2,8,9
 74 313 74 313 63.5 325 c 128,-1,10
 53 337 53 337 53 351 c 256,11,12
 53 365 53 365 64.5 378.5 c 128,-1,13
 76 392 76 392 99 392 c 2,14,-1
 190 392 l 1,15,-1
 190 452 l 2,16,17
 190 487 190 487 201 517 c 128,-1,18
 212 547 212 547 231.5 568.5 c 128,-1,19
 251 590 251 590 278 602 c 128,-1,20
 305 614 305 614 338 614 c 0,21,22
 355 617 355 617 385.5 609.5 c 128,-1,23
 416 602 416 602 435.5 591.5 c 128,-1,24
 455 581 455 581 470.5 567.5 c 128,-1,25
 486 554 486 554 486 536 c 0,26,27
 486 520 486 520 475 509 c 128,-1,28
 464 498 464 498 447 498 c 0,29,30
 438 501 438 501 426 503 c 128,-1,31
 414 505 414 505 404 515 c 128,-1,32
 394 525 394 525 380 527 c 128,-1,33
 366 529 366 529 337 532 c 0,34,35
 311 532 311 532 294.5 514.5 c 128,-1,36
 278 497 278 497 272 459 c 1,37,-1
 272 394 l 1,38,39
 300 395 300 395 332.5 395.5 c 128,-1,40
 365 396 365 396 394 397 c 1,41,42
 413 392 413 392 422 380.5 c 128,-1,43
 431 369 431 369 431 356 c 0,44,45
 431 336 431 336 414 327 c 128,-1,46
 397 318 397 318 372 315 c 128,-1,47
 347 312 347 312 320 312.5 c 128,-1,48
 293 313 293 313 272 312 c 1,49,-1
 272 29 l 1,0,1
EndSplineSet
EndChar

StartChar: g
Encoding: 103 103 70
Width: 500
Flags: W
LayerCount: 2
Fore
SplineSet
80 -167 m 1,0,1
 67 -154 67 -154 64.5 -139 c 128,-1,2
 62 -124 62 -124 68.5 -113 c 128,-1,3
 75 -102 75 -102 89 -96.5 c 128,-1,4
 103 -91 103 -91 122 -97 c 0,5,6
 135 -104 135 -104 144 -109.5 c 128,-1,7
 153 -115 153 -115 162 -119.5 c 128,-1,8
 171 -124 171 -124 180.5 -127 c 128,-1,9
 190 -130 190 -130 203 -133 c 0,10,11
 221 -137 221 -137 242 -137 c 128,-1,12
 263 -137 263 -137 283.5 -132 c 128,-1,13
 304 -127 304 -127 321.5 -116 c 128,-1,14
 339 -105 339 -105 349 -87 c 0,15,16
 356 -75 356 -75 357 -58 c 128,-1,17
 358 -41 358 -41 358 -27 c 2,18,-1
 358 56 l 1,19,20
 349 46 349 46 331.5 34 c 128,-1,21
 314 22 314 22 293 12 c 1,22,23
 269 7 269 7 245 5.5 c 128,-1,24
 221 4 221 4 197 9 c 0,25,26
 145 18 145 18 110 51 c 128,-1,27
 75 84 75 84 57.5 129 c 128,-1,28
 40 174 40 174 39.5 211.5 c 128,-1,29
 39 249 39 249 56 294 c 0,30,31
 70 330 70 330 97 360 c 128,-1,32
 124 390 124 390 158 407.5 c 128,-1,33
 192 425 192 425 231 428 c 128,-1,34
 270 431 270 431 307 414 c 0,35,36
 336 400 336 400 362 383 c 1,37,38
 368 397 368 397 379 403.5 c 128,-1,39
 390 410 390 410 402 408.5 c 128,-1,40
 414 407 414 407 424.5 398 c 128,-1,41
 435 389 435 389 440 372 c 1,42,-1
 440 -24 l 2,43,44
 440 -78 440 -78 424 -116.5 c 128,-1,45
 408 -155 408 -155 362 -185 c 0,46,47
 343 -197 343 -197 321 -206 c 128,-1,48
 299 -215 299 -215 277 -217 c 0,49,50
 229 -223 229 -223 185 -213 c 0,51,52
 153 -206 153 -206 131 -194.5 c 128,-1,53
 109 -183 109 -183 80 -167 c 1,0,1
351 148 m 0,54,55
 355 150 355 150 358 151 c 2,56,-1
 358 283 l 1,57,58
 357 283 357 283 357 284 c 0,59,60
 337 303 337 303 311.5 320 c 128,-1,61
 286 337 286 337 258 345 c 1,62,63
 246 344 246 344 234 343 c 128,-1,64
 222 342 222 342 210 341 c 0,65,66
 202 337 202 337 193.5 333 c 128,-1,67
 185 329 185 329 177 325 c 0,68,69
 127 274 127 274 122.5 221 c 128,-1,70
 118 168 118 168 147 131 c 0,71,72
 152 125 152 125 158 119 c 128,-1,73
 164 113 164 113 169 107 c 0,74,75
 269 70 269 70 351 148 c 0,54,55
EndSplineSet
EndChar

StartChar: h
Encoding: 104 104 71
Width: 500
Flags: W
LayerCount: 2
Fore
SplineSet
146 31 m 1,0,1
 145 9 145 9 133 -2.5 c 128,-1,2
 121 -14 121 -14 106.5 -14.5 c 128,-1,3
 92 -15 92 -15 79.5 -4.5 c 128,-1,4
 67 6 67 6 64 28 c 2,5,-1
 64 584 l 1,6,7
 68 603 68 603 79.5 613 c 128,-1,8
 91 623 91 623 103.5 623.5 c 128,-1,9
 116 624 116 624 128 615 c 128,-1,10
 140 606 140 606 146 587 c 1,11,-1
 146 323 l 1,12,13
 161 356 161 356 171 371 c 0,14,15
 195 397 195 397 213.5 410 c 128,-1,16
 232 423 232 423 255 428 c 0,17,18
 273 433 273 433 291.5 430 c 128,-1,19
 310 427 310 427 328 422 c 0,20,21
 358 413 358 413 379.5 393 c 128,-1,22
 401 373 401 373 415.5 346.5 c 128,-1,23
 430 320 430 320 437 290 c 128,-1,24
 444 260 444 260 442 216 c 0,25,26
 443 168 443 168 442.5 121.5 c 128,-1,27
 442 75 442 75 443 27 c 0,28,29
 442 5 442 5 430 -6.5 c 128,-1,30
 418 -18 418 -18 403.5 -18.5 c 128,-1,31
 389 -19 389 -19 376.5 -8.5 c 128,-1,32
 364 2 364 2 361 24 c 0,33,34
 361 72 361 72 361 118.5 c 128,-1,35
 361 165 361 165 360 213 c 0,36,37
 359 249 359 249 348 286 c 128,-1,38
 337 323 337 323 306 343 c 0,39,40
 287 356 287 356 261 342 c 0,41,42
 236 329 236 329 221 311 c 0,43,44
 207 296 207 296 180 259 c 0,45,46
 160 232 160 232 146 196 c 1,47,-1
 146 31 l 1,48,-1
 146 31 l 1,0,1
EndSplineSet
EndChar

StartChar: i
Encoding: 105 105 72
Width: 500
Flags: W
LayerCount: 2
Fore
SplineSet
173 625 m 0,0,1
 195 625 195 625 215 607 c 128,-1,2
 235 589 235 589 235 565 c 0,3,4
 235 540 235 540 215 523.5 c 128,-1,5
 195 507 195 507 173 507 c 0,6,7
 150 507 150 507 132 523.5 c 128,-1,8
 114 540 114 540 114 565 c 0,9,10
 114 589 114 589 132 607 c 128,-1,11
 150 625 150 625 173 625 c 0,0,1
217 90 m 0,12,13
 228 75 228 75 241 76 c 128,-1,14
 254 77 254 77 285 94 c 0,15,16
 301 102 301 102 316 110 c 0,17,18
 350 124 350 124 373 92 c 0,19,20
 379 83 379 83 378.5 67.5 c 128,-1,21
 378 52 378 52 364 43 c 0,22,23
 330 20 330 20 294 5 c 128,-1,24
 258 -10 258 -10 223 -7 c 0,25,26
 193 -3 193 -3 177 8 c 128,-1,27
 161 19 161 19 151 31 c 0,28,29
 136 52 136 52 133 68 c 0,30,31
 129 95 129 95 129 130 c 0,32,33
 127 271 127 271 129 353 c 0,34,35
 129 411 129 411 129 421 c 0,36,37
 134 435 134 435 143.5 440 c 128,-1,38
 153 445 153 445 167.5 446.5 c 128,-1,39
 182 448 182 448 196.5 441 c 128,-1,40
 211 434 211 434 212 418 c 0,41,42
 210 215 210 215 212 146 c 0,43,44
 210 124 210 124 212 116 c 0,45,46
 210 100 210 100 217 90 c 0,12,13
EndSplineSet
EndChar

StartChar: j
Encoding: 106 106 73
Width: 500
Flags: W
LayerCount: 2
Fore
SplineSet
58 -121 m 1,0,1
 52 -108 52 -108 52 -96 c 0,2,3
 52 -79 52 -79 62.5 -68 c 128,-1,4
 73 -57 73 -57 89 -57 c 0,5,6
 105 -58 105 -58 120 -68 c 0,7,8
 129 -76 129 -76 134.5 -83.5 c 128,-1,9
 140 -91 140 -91 142 -94 c 128,-1,10
 144 -97 144 -97 152.5 -105.5 c 128,-1,11
 161 -114 161 -114 176 -120 c 256,12,13
 191 -126 191 -126 255 -120 c 1,14,15
 282 -112 282 -112 292 -90 c 128,-1,16
 302 -68 302 -68 302 -42 c 0,17,18
 304 -4 304 -4 295 420 c 0,19,20
 293 441 293 441 303.5 451 c 128,-1,21
 314 461 314 461 334.5 461.5 c 128,-1,22
 355 462 355 462 366.5 451.5 c 128,-1,23
 378 441 378 441 377 417 c 2,24,-1
 384 -45 l 2,25,26
 382 -85 382 -85 374.5 -105.5 c 128,-1,27
 367 -126 367 -126 354 -146 c 0,28,29
 346 -160 346 -160 334 -169 c 128,-1,30
 322 -178 322 -178 309 -186 c 0,31,32
 281 -203 281 -203 184 -203 c 1,33,34
 141 -199 141 -199 119 -181 c 128,-1,35
 97 -163 97 -163 58 -121 c 1,0,1
336 636 m 0,36,37
 359 636 359 636 378 618 c 128,-1,38
 397 600 397 600 397 576 c 0,39,40
 397 551 397 551 378 534 c 128,-1,41
 359 517 359 517 336 517 c 0,42,43
 312 517 312 517 292.5 534 c 128,-1,44
 273 551 273 551 273 576 c 0,45,46
 273 600 273 600 292.5 618 c 128,-1,47
 312 636 312 636 336 636 c 0,36,37
EndSplineSet
EndChar

StartChar: k
Encoding: 107 107 74
Width: 500
Flags: W
LayerCount: 2
Fore
SplineSet
148 36 m 1,0,1
 147 14 147 14 135 2.5 c 128,-1,2
 123 -9 123 -9 108.5 -9.5 c 128,-1,3
 94 -10 94 -10 81.5 0.5 c 128,-1,4
 69 11 69 11 66 33 c 2,5,-1
 66 603 l 1,6,7
 70 622 70 622 81.5 632 c 128,-1,8
 93 642 93 642 105.5 642.5 c 128,-1,9
 118 643 118 643 130 634 c 128,-1,10
 142 625 142 625 148 606 c 1,11,-1
 148 313 l 1,12,13
 180 316 180 316 212 337 c 128,-1,14
 244 358 244 358 268 378 c 128,-1,15
 292 398 292 398 316 420 c 128,-1,16
 340 442 340 442 367 464 c 0,17,18
 384 478 384 478 400.5 477 c 128,-1,19
 417 476 417 476 427 466 c 128,-1,20
 437 456 437 456 438 439.5 c 128,-1,21
 439 423 439 423 425 406 c 0,22,23
 387 362 387 362 347 333.5 c 128,-1,24
 307 305 307 305 271 279 c 1,25,26
 322 222 322 222 367.5 171.5 c 128,-1,27
 413 121 413 121 464 64 c 0,28,29
 477 46 477 46 474.5 29.5 c 128,-1,30
 472 13 472 13 461.5 3.5 c 128,-1,31
 451 -6 451 -6 434.5 -5.5 c 128,-1,32
 418 -5 418 -5 402 11 c 0,33,34
 349 70 349 70 302 123 c 128,-1,35
 255 176 255 176 202 234 c 1,36,37
 183 230 183 230 173 226 c 128,-1,38
 163 222 163 222 148 220 c 1,39,-1
 148 36 l 1,0,1
EndSplineSet
EndChar

StartChar: l
Encoding: 108 108 75
Width: 500
Flags: W
LayerCount: 2
Fore
SplineSet
236 58 m 0,0,1
 250 46 250 46 288 65 c 0,2,3
 308 79 308 79 328 94 c 128,-1,4
 348 109 348 109 363 112 c 0,5,6
 385 114 385 114 399.5 96 c 128,-1,7
 414 78 414 78 400 52 c 1,8,9
 374 26 374 26 336.5 -0.5 c 128,-1,10
 299 -27 299 -27 244 -29 c 0,11,12
 220 -27 220 -27 198.5 -16 c 128,-1,13
 177 -5 177 -5 163 9 c 1,14,15
 143 42 143 42 140 68 c 0,16,17
 138 92 138 92 139 109 c 0,18,19
 137 149 137 149 139 292 c 0,20,21
 137 452 137 452 140 600 c 0,22,23
 144 616 144 616 155 623 c 128,-1,24
 166 630 166 630 182 632 c 128,-1,25
 198 634 198 634 212 623 c 128,-1,26
 226 612 226 612 226 600 c 0,27,28
 224 399 224 399 225 305 c 0,29,30
 225 168 225 168 225 96 c 0,31,32
 227 62 227 62 236 58 c 0,0,1
EndSplineSet
EndChar

StartChar: m
Encoding: 109 109 76
Width: 500
Flags: W
LayerCount: 2
Fore
SplineSet
192 222 m 0,0,1
 178 249 178 249 154.5 283.5 c 128,-1,2
 131 318 131 318 123 332 c 1,3,4
 123 302 123 302 123 217 c 0,5,6
 124 73 124 73 122 35 c 0,7,8
 120 13 120 13 108 1 c 128,-1,9
 96 -11 96 -11 81 -11 c 0,10,11
 67 -11 67 -11 55 -0.5 c 128,-1,12
 43 10 43 10 40 32 c 0,13,14
 40 210 40 210 40 292 c 0,15,16
 39 326 39 326 39 330 c 0,17,18
 36 426 36 426 52 438 c 1,19,20
 66 460 66 460 95 463 c 128,-1,21
 124 466 124 466 137 453 c 0,22,23
 147 444 147 444 159 428 c 0,24,25
 179 398 179 398 201 362 c 128,-1,26
 223 326 223 326 256 269 c 1,27,28
 289 330 289 330 310.5 363 c 128,-1,29
 332 396 332 396 342 406 c 0,30,31
 374 428 374 428 400.5 428 c 128,-1,32
 427 428 427 428 442.5 407 c 128,-1,33
 458 386 458 386 460 358 c 128,-1,34
 462 330 462 330 461 306 c 2,35,-1
 461 24 l 2,36,37
 460 1 460 1 447.5 -10.5 c 128,-1,38
 435 -22 435 -22 420 -22 c 0,39,40
 406 -22 406 -22 394 -11.5 c 128,-1,41
 382 -1 382 -1 379 21 c 2,42,-1
 380 293 l 2,43,44
 381 305 381 305 379 317 c 1,45,46
 376 311 376 311 356 284 c 0,47,48
 348 274 348 274 301 201 c 1,49,50
 278 175 278 175 252 173 c 0,51,52
 232 171 232 171 211 194 c 0,53,54
 201 204 201 204 192 222 c 0,0,1
EndSplineSet
EndChar

StartChar: n
Encoding: 110 110 77
Width: 500
Flags: W
LayerCount: 2
Fore
SplineSet
437 32 m 1,0,1
 436 9 436 9 423.5 -2.5 c 128,-1,2
 411 -14 411 -14 396 -14 c 0,3,4
 382 -14 382 -14 370 -3.5 c 128,-1,5
 358 7 358 7 355 29 c 0,6,7
 355 75 355 75 354.5 120.5 c 128,-1,8
 354 166 354 166 354 212 c 0,9,10
 354 245 354 245 354.5 278 c 128,-1,11
 355 311 355 311 350 344 c 1,12,13
 342 359 342 359 332.5 362.5 c 128,-1,14
 323 366 323 366 310 366 c 0,15,16
 279 372 279 372 235.5 329 c 128,-1,17
 192 286 192 286 147 235 c 1,18,19
 141 221 141 221 141 209 c 128,-1,20
 141 197 141 197 139 167 c 0,21,22
 139 116 139 116 140.5 101.5 c 128,-1,23
 142 87 142 87 143 36 c 0,24,25
 142 13 142 13 129.5 1.5 c 128,-1,26
 117 -10 117 -10 102 -10 c 0,27,28
 88 -10 88 -10 76 0.5 c 128,-1,29
 64 11 64 11 61 33 c 0,30,31
 61 81 61 81 61 126 c 128,-1,32
 61 171 61 171 60.5 215 c 128,-1,33
 60 259 60 259 60 304.5 c 128,-1,34
 60 350 60 350 60 398 c 1,35,36
 65 418 65 418 76 428 c 128,-1,37
 87 438 87 438 101 438 c 0,38,39
 114 438 114 438 125.5 429 c 128,-1,40
 137 420 137 420 137 362 c 2,41,-1
 136 330 l 1,42,43
 165 362 165 362 209 406 c 128,-1,44
 253 450 253 450 304 449 c 0,45,46
 341 449 341 449 373.5 432 c 128,-1,47
 406 415 406 415 426 377 c 0,48,49
 433 364 433 364 435.5 344.5 c 128,-1,50
 438 325 438 325 438.5 303.5 c 128,-1,51
 439 282 439 282 438 259.5 c 128,-1,52
 437 237 437 237 437 217 c 2,53,-1
 437 99 l 1,54,-1
 437 32 l 1,55,-1
 437 32 l 1,0,1
EndSplineSet
EndChar

StartChar: o
Encoding: 111 111 78
Width: 500
Flags: W
LayerCount: 2
Fore
SplineSet
58 264 m 2,0,1
 69 296 69 296 85 326.5 c 128,-1,2
 101 357 101 357 123 382 c 128,-1,3
 145 407 145 407 173.5 425 c 128,-1,4
 202 443 202 443 237 451 c 0,5,6
 295 464 295 464 338.5 442 c 128,-1,7
 382 420 382 420 408 379 c 128,-1,8
 434 338 434 338 442.5 285.5 c 128,-1,9
 451 233 451 233 438 185 c 0,10,11
 423 126 423 126 385 75 c 128,-1,12
 347 24 347 24 289 1 c 0,13,14
 246 -16 246 -16 206.5 -11.5 c 128,-1,15
 167 -7 167 -7 135.5 14 c 128,-1,16
 104 35 104 35 82 69 c 128,-1,17
 60 103 60 103 52 146 c 0,18,19
 47 173 47 173 48.5 199 c 128,-1,20
 50 225 50 225 55 251 c 2,21,-1
 58 264 l 2,0,1
136 241 m 0,22,23
 132 220 132 220 130.5 202.5 c 128,-1,24
 129 185 129 185 132 163 c 0,25,26
 135 136 135 136 149 114.5 c 128,-1,27
 163 93 163 93 183 81.5 c 128,-1,28
 203 70 203 70 227.5 70.5 c 128,-1,29
 252 71 252 71 277 86 c 0,30,31
 310 106 310 106 329.5 138 c 128,-1,32
 349 170 349 170 359 207 c 0,33,34
 367 237 367 237 362.5 271 c 128,-1,35
 358 305 358 305 342 331 c 128,-1,36
 326 357 326 357 299 368.5 c 128,-1,37
 272 380 272 380 235 365 c 0,38,39
 195 348 195 348 172 314 c 128,-1,40
 149 280 149 280 136 241 c 0,22,23
EndSplineSet
EndChar

StartChar: p
Encoding: 112 112 79
Width: 500
Flags: W
LayerCount: 2
Fore
SplineSet
62 404 m 1,0,1
 67 424 67 424 78 434 c 128,-1,2
 89 444 89 444 103 444 c 0,3,4
 116 444 116 444 127.5 435 c 128,-1,5
 139 426 139 426 144 407 c 1,6,-1
 144 398 l 1,7,8
 167 418 167 418 196.5 427.5 c 128,-1,9
 226 437 226 437 254 437 c 0,10,11
 293 437 293 437 326.5 420 c 128,-1,12
 360 403 360 403 385 374 c 128,-1,13
 410 345 410 345 424 306.5 c 128,-1,14
 438 268 438 268 438 224 c 0,15,16
 438 176 438 176 422.5 136 c 128,-1,17
 407 96 407 96 377 67 c 128,-1,18
 347 38 347 38 302.5 21.5 c 128,-1,19
 258 5 258 5 199 5 c 0,20,21
 185 5 185 5 171.5 6 c 128,-1,22
 158 7 158 7 144 9 c 1,23,-1
 144 -202 l 2,24,25
 143 -225 143 -225 130.5 -236.5 c 128,-1,26
 118 -248 118 -248 103 -248 c 0,27,28
 89 -248 89 -248 77 -237.5 c 128,-1,29
 65 -227 65 -227 62 -205 c 2,30,-1
 62 404 l 1,31,-1
 62 404 l 1,0,1
154 291 m 0,32,33
 152 288 152 288 149 285.5 c 128,-1,34
 146 283 146 283 144 281 c 2,35,-1
 144 92 l 1,36,37
 158 89 158 89 171.5 87 c 128,-1,38
 185 85 185 85 199 85 c 0,39,40
 233 85 233 85 262 94 c 128,-1,41
 291 103 291 103 312.5 120 c 128,-1,42
 334 137 334 137 346 162 c 128,-1,43
 358 187 358 187 358 219 c 0,44,45
 358 243 358 243 350.5 267.5 c 128,-1,46
 343 292 343 292 329.5 312 c 128,-1,47
 316 332 316 332 298 344.5 c 128,-1,48
 280 357 280 357 258 357 c 0,49,50
 241 357 241 357 226 351 c 128,-1,51
 211 345 211 345 198 335.5 c 128,-1,52
 185 326 185 326 174 314.5 c 128,-1,53
 163 303 163 303 154 291 c 0,32,33
EndSplineSet
EndChar

StartChar: q
Encoding: 113 113 80
Width: 500
Flags: W
LayerCount: 2
Fore
SplineSet
438 -205 m 1,0,1
 437 -227 437 -227 425 -238.5 c 128,-1,2
 413 -250 413 -250 398.5 -250.5 c 128,-1,3
 384 -251 384 -251 371.5 -240.5 c 128,-1,4
 359 -230 359 -230 356 -208 c 2,5,-1
 356 19 l 1,6,7
 320 5 320 5 284 2 c 0,8,9
 263 0 263 0 230 1.5 c 128,-1,10
 197 3 197 3 177 9 c 0,11,12
 126 23 126 23 97.5 58 c 128,-1,13
 69 93 69 93 59 137.5 c 128,-1,14
 49 182 49 182 55 230.5 c 128,-1,15
 61 279 61 279 78 321 c 0,16,17
 91 353 91 353 115.5 376 c 128,-1,18
 140 399 140 399 171 413.5 c 128,-1,19
 202 428 202 428 236.5 434 c 128,-1,20
 271 440 271 440 316 437 c 0,21,22
 349 434 349 434 375 421 c 1,23,24
 391 432 391 432 410.5 425 c 128,-1,25
 430 418 430 418 438 392 c 1,26,-1
 438 -205 l 1,27,-1
 438 -205 l 1,0,1
175 98 m 0,28,29
 217 81 217 81 267.5 83.5 c 128,-1,30
 318 86 318 86 356 109 c 1,31,-1
 356 336 l 1,32,33
 351 339 351 339 350 343 c 0,34,35
 326 353 326 353 298.5 355 c 128,-1,36
 271 357 271 357 239 350 c 128,-1,37
 207 343 207 343 186 327 c 128,-1,38
 165 311 165 311 152 286 c 0,39,40
 135 253 135 253 135 215 c 128,-1,41
 135 177 135 177 141 141 c 0,42,43
 145 135 145 135 148.5 128.5 c 128,-1,44
 152 122 152 122 156 115 c 0,45,46
 161 110 161 110 165.5 106.5 c 128,-1,47
 170 103 170 103 175 98 c 0,28,29
EndSplineSet
EndChar

StartChar: r
Encoding: 114 114 81
Width: 500
Flags: W
LayerCount: 2
Fore
SplineSet
93 350 m 0,0,1
 78 358 78 358 67 371 c 128,-1,2
 56 384 56 384 56 395 c 0,3,4
 56 410 56 410 67 421.5 c 128,-1,5
 78 433 78 433 97 433 c 0,6,7
 111 433 111 433 136 421 c 128,-1,8
 161 409 161 409 172 387 c 1,9,10
 203 413 203 413 236.5 435 c 128,-1,11
 270 457 270 457 365 457 c 0,12,13
 375 457 375 457 394 452 c 128,-1,14
 413 447 413 447 431.5 437 c 128,-1,15
 450 427 450 427 464 411 c 128,-1,16
 478 395 478 395 478 374 c 0,17,18
 478 357 478 357 467 346.5 c 128,-1,19
 456 336 456 336 440 336 c 0,20,21
 429 336 429 336 420.5 342.5 c 128,-1,22
 412 349 412 349 403.5 356.5 c 128,-1,23
 395 364 395 364 385 368.5 c 128,-1,24
 375 373 375 373 363 379 c 0,25,26
 336 391 336 391 295 376 c 128,-1,27
 254 361 254 361 240 347 c 128,-1,28
 226 333 226 333 209 318.5 c 128,-1,29
 192 304 192 304 181 286 c 1,30,-1
 182 30 l 2,31,32
 181 7 181 7 168.5 -4.5 c 128,-1,33
 156 -16 156 -16 141 -16 c 0,34,35
 127 -16 127 -16 115 -5.5 c 128,-1,36
 103 5 103 5 100 27 c 2,37,-1
 100 300 l 2,38,39
 100 302 100 302 99.5 304.5 c 128,-1,40
 99 307 99 307 99 309 c 256,41,42
 99 311 99 311 99.5 313.5 c 128,-1,43
 100 316 100 316 100 318 c 2,44,-1
 100 347 l 1,45,46
 96 349 96 349 93 350 c 0,0,1
EndSplineSet
EndChar

StartChar: s
Encoding: 115 115 82
Width: 500
Flags: W
LayerCount: 2
Fore
SplineSet
69 89 m 0,0,1
 60 107 60 107 63 121.5 c 128,-1,2
 66 136 66 136 75.5 144.5 c 128,-1,3
 85 153 85 153 100 152.5 c 128,-1,4
 115 152 115 152 131 142 c 0,5,6
 154 121 154 121 186 95 c 128,-1,7
 218 69 218 69 289 73 c 1,8,-1
 310 79 l 2,9,10
 318 85 318 85 321 87 c 128,-1,11
 324 89 324 89 325.5 90.5 c 128,-1,12
 327 92 327 92 329.5 95 c 128,-1,13
 332 98 332 98 338 106 c 0,14,15
 340 110 340 110 341 113 c 128,-1,16
 342 116 342 116 342.5 127 c 128,-1,17
 343 138 343 138 343 143 c 0,18,19
 341 157 341 157 337 161 c 0,20,21
 329 169 329 169 323 172 c 0,22,23
 296 186 296 186 258.5 192.5 c 128,-1,24
 221 199 221 199 193 208.5 c 128,-1,25
 165 218 165 218 142.5 230 c 128,-1,26
 120 242 120 242 100 269 c 0,27,28
 82 290 82 290 82 317 c 128,-1,29
 82 344 82 344 94 369.5 c 128,-1,30
 106 395 106 395 130.5 420 c 128,-1,31
 155 445 155 445 179 449 c 0,32,33
 219 457 219 457 281.5 447.5 c 128,-1,34
 344 438 344 438 382 418 c 0,35,36
 400 405 400 405 403 388.5 c 128,-1,37
 406 372 406 372 398.5 360 c 128,-1,38
 391 348 391 348 375.5 343 c 128,-1,39
 360 338 360 338 340 348 c 0,40,41
 316 361 316 361 280.5 371.5 c 128,-1,42
 245 382 245 382 200 370 c 0,43,44
 197 368 197 368 193.5 367 c 128,-1,45
 190 366 190 366 187 364 c 0,46,47
 178 358 178 358 172 343.5 c 128,-1,48
 166 329 166 329 175 312 c 0,49,50
 176 308 176 308 180 300 c 0,51,52
 181 296 181 296 184 293 c 128,-1,53
 187 290 187 290 192 286 c 0,54,55
 215 272 215 272 250.5 271.5 c 128,-1,56
 286 271 286 271 318.5 260.5 c 128,-1,57
 351 250 351 250 374 234.5 c 128,-1,58
 397 219 397 219 410 189 c 0,59,60
 434 132 434 132 419 87.5 c 128,-1,61
 404 43 404 43 354 10 c 0,62,63
 341 2 341 2 325 -3.5 c 128,-1,64
 309 -9 309 -9 295 -9 c 0,65,66
 223 -12 223 -12 163 16.5 c 128,-1,67
 103 45 103 45 69 89 c 0,0,1
EndSplineSet
EndChar

StartChar: t
Encoding: 116 116 83
Width: 500
Flags: W
LayerCount: 2
Fore
SplineSet
72 350 m 5,0,1
 50 353 50 353 39.5 365 c 132,-1,2
 29 377 29 377 29 391 c 260,3,4
 29 405 29 405 40.5 418.5 c 132,-1,5
 52 432 52 432 75 432 c 6,6,-1
 215 437 l 5,7,-1
 215 522 l 5,8,9
 220 542 220 542 231 552 c 132,-1,10
 242 562 242 562 256 562 c 4,11,12
 269 562 269 562 280.5 553 c 132,-1,13
 292 544 292 544 297 525 c 5,14,-1
 297 439 l 5,15,-1
 433 446 l 5,16,17
 452 441 452 441 461 429.5 c 132,-1,18
 470 418 470 418 470 405 c 4,19,20
 470 391 470 391 460 380 c 132,-1,21
 450 369 450 369 430 364 c 6,22,-1
 297 357 l 5,23,24
 296 280 296 280 297 198.5 c 132,-1,25
 298 117 298 117 298 40 c 4,26,27
 298 17 298 17 284.5 5.5 c 132,-1,28
 271 -6 271 -6 257 -6 c 260,29,30
 243 -6 243 -6 231 4.5 c 132,-1,31
 219 15 219 15 216 37 c 4,32,33
 216 115 216 115 215.5 197 c 132,-1,34
 215 279 215 279 215 355 c 5,35,-1
 72 350 l 5,36,-1
 72 350 l 5,0,1
EndSplineSet
EndChar

StartChar: u
Encoding: 117 117 84
Width: 500
Flags: W
LayerCount: 2
Fore
SplineSet
435 56 m 0,0,1
 446 42 446 42 446 25 c 256,2,3
 446 8 446 8 435 -2.5 c 128,-1,4
 424 -13 424 -13 408 -13 c 0,5,6
 380 -14 380 -14 369.5 7 c 128,-1,7
 359 28 359 28 347 84 c 1,8,9
 320 41 320 41 299.5 23 c 128,-1,10
 279 5 279 5 230 -8 c 1,11,12
 203 -8 203 -8 174.5 -1.5 c 128,-1,13
 146 5 146 5 124.5 21.5 c 128,-1,14
 103 38 103 38 86.5 60 c 128,-1,15
 70 82 70 82 62 106 c 0,16,17
 54 132 54 132 51 163.5 c 128,-1,18
 48 195 48 195 48 229 c 0,19,20
 48 270 48 270 50 309 c 128,-1,21
 52 348 52 348 53 390 c 1,22,23
 58 410 58 410 69 420 c 128,-1,24
 80 430 80 430 94 430 c 0,25,26
 107 430 107 430 118.5 421 c 128,-1,27
 130 412 130 412 135 393 c 1,28,29
 135 346 135 346 133 296.5 c 128,-1,30
 131 247 131 247 131 198 c 0,31,32
 131 142 131 142 155 106 c 128,-1,33
 179 70 179 70 220 70 c 0,34,35
 235 70 235 70 250 76 c 128,-1,36
 265 82 265 82 277 95 c 128,-1,37
 289 108 289 108 297.5 120.5 c 128,-1,38
 306 133 306 133 321 169 c 0,39,40
 323 178 323 178 329 198 c 1,41,42
 327 238 327 238 328 249 c 0,43,44
 329 278 329 278 328.5 307.5 c 128,-1,45
 328 337 328 337 333 368 c 128,-1,46
 338 399 338 399 348.5 414.5 c 128,-1,47
 359 430 359 430 378 430 c 0,48,49
 393 430 393 430 405 418.5 c 128,-1,50
 417 407 417 407 417 385 c 0,51,52
 417 362 417 362 413.5 322.5 c 128,-1,53
 410 283 410 283 410 247 c 0,54,55
 410 222 410 222 413.5 190 c 128,-1,56
 417 158 417 158 419 136 c 128,-1,57
 421 114 421 114 425 90 c 128,-1,58
 429 66 429 66 435 56 c 0,0,1
EndSplineSet
EndChar

StartChar: v
Encoding: 118 118 85
Width: 500
Flags: W
LayerCount: 2
Fore
SplineSet
365 427 m 1,0,1
 375 444 375 444 388.5 449.5 c 128,-1,2
 402 455 402 455 414.5 451.5 c 128,-1,3
 427 448 427 448 435.5 435.5 c 128,-1,4
 444 423 444 423 443 404 c 0,5,6
 429 350 429 350 410.5 298.5 c 128,-1,7
 392 247 392 247 374 195 c 0,8,9
 351 138 351 138 336 102 c 128,-1,10
 321 66 321 66 280 6 c 0,11,12
 262 -16 262 -16 240 -13 c 128,-1,13
 218 -10 218 -10 206 15 c 0,14,15
 166 109 166 109 128.5 202 c 128,-1,16
 91 295 91 295 49 386 c 0,17,18
 39 406 39 406 44 421.5 c 128,-1,19
 49 437 49 437 61 444.5 c 128,-1,20
 73 452 73 452 89.5 449 c 128,-1,21
 106 446 106 446 119 428 c 1,22,23
 152 356 152 356 187.5 283.5 c 128,-1,24
 223 211 223 211 254 139 c 1,25,26
 267 158 267 158 276 176 c 128,-1,27
 285 194 285 194 296 218 c 0,28,29
 314 270 314 270 332 321.5 c 128,-1,30
 350 373 350 373 365 427 c 1,0,1
EndSplineSet
EndChar

StartChar: w
Encoding: 119 119 86
Width: 500
Flags: W
LayerCount: 2
Fore
SplineSet
395 424 m 1,0,1
 405 441 405 441 418.5 446.5 c 128,-1,2
 432 452 432 452 444.5 448.5 c 128,-1,3
 457 445 457 445 465.5 432.5 c 128,-1,4
 474 420 474 420 473 401 c 0,5,6
 461 273 461 273 439.5 177 c 128,-1,7
 418 81 418 81 398 13 c 1,8,9
 383 -5 383 -5 365 -6 c 128,-1,10
 347 -7 347 -7 330 10 c 1,11,12
 302 66 302 66 287 115 c 128,-1,13
 272 164 272 164 260 227 c 0,14,15
 256 247 256 247 254 251 c 128,-1,16
 252 255 252 255 249 264 c 1,17,18
 236 232 236 232 226.5 205.5 c 128,-1,19
 217 179 217 179 205 147.5 c 128,-1,20
 193 116 193 116 184.5 80.5 c 128,-1,21
 176 45 176 45 161 7 c 1,22,23
 143 -15 143 -15 124 -12 c 128,-1,24
 105 -9 105 -9 93 17 c 1,25,26
 78 79 78 79 72 125.5 c 128,-1,27
 66 172 66 172 51 246 c 0,28,29
 43 285 43 285 36 320.5 c 128,-1,30
 29 356 29 356 23 394 c 0,31,32
 20 416 20 416 30 429.5 c 128,-1,33
 40 443 40 443 54 446 c 128,-1,34
 68 449 68 449 82.5 440.5 c 128,-1,35
 97 432 97 432 103 411 c 0,36,37
 112 347 112 347 120 291.5 c 128,-1,38
 128 236 128 236 140 173 c 1,39,40
 147 201 147 201 156.5 226.5 c 128,-1,41
 166 252 166 252 174.5 270 c 128,-1,42
 183 288 183 288 191 321 c 128,-1,43
 199 354 199 354 215 376 c 0,44,45
 224 385 224 385 235.5 391 c 128,-1,46
 247 397 247 397 258.5 395.5 c 128,-1,47
 270 394 270 394 280 385.5 c 128,-1,48
 290 377 290 377 295 361 c 0,49,50
 295 354 295 354 306.5 325 c 128,-1,51
 318 296 318 296 322 270 c 0,52,53
 328 249 328 249 333 227 c 128,-1,54
 338 205 338 205 353 163 c 1,55,56
 374 271 374 271 379 308.5 c 128,-1,57
 384 346 384 346 395 424 c 1,0,1
EndSplineSet
EndChar

StartChar: x
Encoding: 120 120 87
Width: 500
Flags: W
LayerCount: 2
Fore
SplineSet
376 439 m 0,0,1
 393 453 393 453 409.5 452 c 128,-1,2
 426 451 426 451 434 442.5 c 128,-1,3
 442 434 442 434 446.5 419.5 c 128,-1,4
 451 405 451 405 441 385 c 1,5,6
 405 346 405 346 373 309 c 128,-1,7
 341 272 341 272 307 234 c 1,8,9
 345 183 345 183 382.5 132.5 c 128,-1,10
 420 82 420 82 463 25 c 1,11,12
 469 6 469 6 463.5 -8 c 128,-1,13
 458 -22 458 -22 447 -28.5 c 128,-1,14
 436 -35 436 -35 421.5 -33 c 128,-1,15
 407 -31 407 -31 393 -17 c 0,16,17
 360 27 360 27 323 75.5 c 128,-1,18
 286 124 286 124 253 171 c 1,19,20
 187 90 187 90 131 18 c 0,21,22
 117 1 117 1 100.5 -1 c 128,-1,23
 84 -3 84 -3 72 5.5 c 128,-1,24
 60 14 60 14 60 31 c 128,-1,25
 60 48 60 48 68 66 c 1,26,27
 104 116 104 116 134.5 152.5 c 128,-1,28
 165 189 165 189 198 234 c 1,29,30
 163 277 163 277 137.5 306 c 128,-1,31
 112 335 112 335 76 377 c 0,32,33
 62 395 62 395 59.5 408.5 c 128,-1,34
 57 422 57 422 65.5 435.5 c 128,-1,35
 74 449 74 449 90.5 451.5 c 128,-1,36
 107 454 107 454 125 441 c 0,37,38
 159 406 159 406 189.5 368.5 c 128,-1,39
 220 331 220 331 252 296 c 1,40,41
 300 348 300 348 316 370 c 128,-1,42
 332 392 332 392 376 439 c 0,0,1
EndSplineSet
EndChar

StartChar: y
Encoding: 121 121 88
Width: 500
Flags: W
LayerCount: 2
Fore
SplineSet
381 428 m 1,0,1
 389 442 389 442 399 448 c 128,-1,2
 409 454 409 454 420 454 c 0,3,4
 437 454 437 454 448 441 c 128,-1,5
 459 428 459 428 459 405 c 1,6,7
 438 324 438 324 406 248 c 128,-1,8
 374 172 374 172 336 99 c 128,-1,9
 298 26 298 26 256 -45.5 c 128,-1,10
 214 -117 214 -117 174 -190 c 0,11,12
 166 -201 166 -201 156 -205.5 c 128,-1,13
 146 -210 146 -210 137 -210 c 0,14,15
 122 -210 122 -210 111 -199 c 128,-1,16
 100 -188 100 -188 100 -168 c 0,17,18
 100 -165 100 -165 100 -161.5 c 128,-1,19
 100 -158 100 -158 101 -154 c 0,20,21
 134 -93 134 -93 169 -34 c 128,-1,22
 204 25 204 25 237 85 c 1,23,24
 201 122 201 122 173 158.5 c 128,-1,25
 145 195 145 195 120.5 231.5 c 128,-1,26
 96 268 96 268 73.5 308.5 c 128,-1,27
 51 349 51 349 31 397 c 1,28,29
 27 421 27 421 39 435.5 c 128,-1,30
 51 450 51 450 69 450 c 0,31,32
 82 450 82 450 94.5 442 c 128,-1,33
 107 434 107 434 111 414 c 0,34,35
 126 376 126 376 144 344.5 c 128,-1,36
 162 313 162 313 183 281 c 128,-1,37
 204 249 204 249 225 218 c 128,-1,38
 246 187 246 187 275 159 c 1,39,40
 308 224 308 224 335.5 290 c 128,-1,41
 363 356 363 356 381 428 c 1,0,1
EndSplineSet
EndChar

StartChar: z
Encoding: 122 122 89
Width: 500
Flags: W
LayerCount: 2
Fore
SplineSet
90 183 m 0,0,1
 68 186 68 186 57.5 198 c 128,-1,2
 47 210 47 210 47 224 c 256,3,4
 47 238 47 238 58.5 251.5 c 128,-1,5
 70 265 70 265 93 265 c 0,6,7
 105 265 105 265 151.5 265 c 128,-1,8
 198 265 198 265 212.5 265.5 c 128,-1,9
 227 266 227 266 246 266 c 128,-1,10
 265 266 265 266 366 266 c 5,11,12
 385 261 385 261 394 249.5 c 132,-1,13
 403 238 403 238 403 225 c 4,14,15
 403 211 403 211 393 200 c 128,-1,16
 383 189 383 189 363 184 c 5,17,18
 335 184 335 184 224.5 183.5 c 0,19,20
 90 183 l 0,0,1
208 280 m 1024,21,-1
338 362 m 0,22,23
 308 307 308 307 284.5 249 c 1024,24,-1
208.5 317.5 m 1024,25,-1
337.5 373 m 0,26,27
 282 300 282 300 250 234 c 1025,28,-1
432 82 m 0,29,30
 454 83 454 83 463 67 c 128,-1,31
 472 51 472 51 467.5 33 c 128,-1,32
 463 15 463 15 449 9 c 128,-1,33
 435 3 435 3 415 2 c 0,34,35
 343 1 343 1 245 4.5 c 128,-1,36
 147 8 147 8 73 -4 c 1,37,38
 45 0 45 0 35.5 19.5 c 128,-1,39
 26 39 26 39 40 64 c 0,40,41
 94 145 94 145 168.5 223.5 c 128,-1,42
 243 302 243 302 309 374 c 1,43,44
 248 373 248 373 184.5 369 c 128,-1,45
 121 365 121 365 71 361 c 1,46,47
 47 365 47 365 40.5 372.5 c 128,-1,48
 34 380 34 380 30 391 c 128,-1,49
 26 402 26 402 34 415 c 128,-1,50
 42 428 42 428 60 435 c 1,51,52
 142 443 142 443 224 444.5 c 128,-1,53
 306 446 306 446 389 444 c 1,54,55
 416 436 416 436 422.5 414.5 c 128,-1,56
 429 393 429 393 411 372 c 0,57,58
 345 301 345 301 272.5 226 c 128,-1,59
 200 151 200 151 142 73 c 1,60,61
 212 81 212 81 311 80 c 128,-1,62
 410 79 410 79 432 82 c 0,29,30
EndSplineSet
EndChar

StartChar: braceleft
Encoding: 123 123 90
Width: 500
Flags: W
LayerCount: 2
Fore
SplineSet
363 -9 m 1,0,1
 400 -5 400 -5 418 -20 c 128,-1,2
 436 -35 436 -35 436 -56 c 128,-1,3
 436 -77 436 -77 413.5 -85 c 128,-1,4
 391 -93 391 -93 314 -89 c 1,5,6
 281 -76 281 -76 260 -61 c 128,-1,7
 239 -46 239 -46 230 -13 c 128,-1,8
 221 20 221 20 217 47 c 128,-1,9
 213 74 213 74 216 89 c 128,-1,10
 219 104 219 104 219 149 c 128,-1,11
 219 194 219 194 202 227 c 1,12,13
 181 241 181 241 168.5 251.5 c 128,-1,14
 156 262 156 262 125.5 282 c 128,-1,15
 95 302 95 302 93 327.5 c 128,-1,16
 91 353 91 353 142 385 c 0,17,18
 145 388 145 388 150 391.5 c 128,-1,19
 155 395 155 395 176 410 c 0,20,21
 196 422 196 422 196 423 c 128,-1,22
 196 424 196 424 210 432 c 1,23,24
 214 476 214 476 217 502 c 128,-1,25
 220 528 220 528 220 573 c 0,26,27
 220 603 220 603 226.5 637 c 128,-1,28
 233 671 233 671 256 696 c 128,-1,29
 279 721 279 721 303.5 732.5 c 128,-1,30
 328 744 328 744 392 739 c 1,31,32
 413 733 413 733 424 720.5 c 128,-1,33
 435 708 435 708 432 694 c 128,-1,34
 429 680 429 680 415.5 670 c 128,-1,35
 402 660 402 660 345 659 c 0,36,37
 340 658 340 658 338 659 c 0,38,39
 333 658 333 658 330 655 c 0,40,41
 315 643 315 643 309 603 c 128,-1,42
 303 563 303 563 303 541 c 128,-1,43
 303 519 303 519 301 497.5 c 128,-1,44
 299 476 299 476 296 437 c 1,45,46
 299 417 299 417 294.5 401.5 c 128,-1,47
 290 386 290 386 273 376 c 0,48,49
 252 365 252 365 233 356.5 c 128,-1,50
 214 348 214 348 191 331 c 1,51,52
 216 323 216 323 233.5 312 c 128,-1,53
 251 301 251 301 267 292 c 1,54,55
 278 280 278 280 281 274 c 128,-1,56
 284 268 284 268 291 248 c 0,57,58
 300 216 300 216 301 172.5 c 128,-1,59
 302 129 302 129 300.5 92.5 c 128,-1,60
 299 56 299 56 300 41 c 128,-1,61
 301 26 301 26 316 5 c 0,62,63
 323 0 323 0 327 -3.5 c 128,-1,64
 331 -7 331 -7 363 -9 c 1,0,1
EndSplineSet
EndChar

StartChar: bar
Encoding: 124 124 91
Width: 500
Flags: W
LayerCount: 2
Fore
SplineSet
211 575 m 1,0,1
 216 595 216 595 227 605 c 128,-1,2
 238 615 238 615 252 615 c 0,3,4
 265 615 265 615 276.5 606 c 128,-1,5
 288 597 288 597 293 578 c 1,6,-1
 292 -206 l 2,7,8
 291 -229 291 -229 278.5 -240.5 c 128,-1,9
 266 -252 266 -252 251 -252 c 0,10,11
 237 -252 237 -252 225 -241.5 c 128,-1,12
 213 -231 213 -231 210 -209 c 2,13,-1
 211 575 l 1,14,-1
 211 575 l 1,0,1
EndSplineSet
EndChar

StartChar: braceright
Encoding: 125 125 92
Width: 500
Flags: W
LayerCount: 2
Fore
SplineSet
141 -7 m 0,0,1
 119 -10 119 -10 104 -24.5 c 128,-1,2
 89 -39 89 -39 92.5 -54.5 c 128,-1,3
 96 -70 96 -70 109.5 -80 c 128,-1,4
 123 -90 123 -90 174 -90 c 0,5,6
 212 -88 212 -88 238 -61 c 128,-1,7
 264 -34 264 -34 268.5 -7 c 128,-1,8
 273 20 273 20 277 56 c 128,-1,9
 281 92 281 92 281 107 c 128,-1,10
 281 122 281 122 283.5 159.5 c 128,-1,11
 286 197 286 197 289 215 c 1,12,13
 310 229 310 229 333 239 c 128,-1,14
 356 249 356 249 391 270 c 128,-1,15
 426 291 426 291 425 315.5 c 128,-1,16
 424 340 424 340 370 372 c 0,17,18
 366 376 366 376 362.5 379 c 128,-1,19
 359 382 359 382 351 386.5 c 128,-1,20
 343 391 343 391 336 397 c 0,21,22
 321 407 321 407 318 410 c 128,-1,23
 315 413 315 413 302 419 c 1,24,25
 296 460 296 460 294 498 c 128,-1,26
 292 536 292 536 290 574 c 256,27,28
 288 612 288 612 284.5 639.5 c 128,-1,29
 281 667 281 667 263.5 691.5 c 128,-1,30
 246 716 246 716 219.5 729.5 c 128,-1,31
 193 743 193 743 132 738 c 1,32,33
 111 732 111 732 100 719.5 c 128,-1,34
 89 707 89 707 92 693 c 128,-1,35
 95 679 95 679 109.5 669 c 128,-1,36
 124 659 124 659 174 657 c 0,37,38
 182 657 182 657 190 653 c 0,39,40
 205 637 205 637 203 604 c 128,-1,41
 201 571 201 571 203 538 c 128,-1,42
 205 505 205 505 207 478 c 128,-1,43
 209 451 209 451 216 424 c 0,44,45
 219 403 219 403 220.5 388 c 128,-1,46
 222 373 222 373 239 363 c 0,47,48
 260 352 260 352 285 343.5 c 128,-1,49
 310 335 310 335 333 318 c 1,50,51
 308 310 308 310 269 295.5 c 128,-1,52
 230 281 230 281 226 279 c 0,53,54
 212 269 212 269 207.5 259.5 c 128,-1,55
 203 250 203 250 204 234 c 0,56,57
 205 206 205 206 200.5 172 c 128,-1,58
 196 138 196 138 196 102 c 128,-1,59
 196 66 196 66 194.5 55.5 c 128,-1,60
 193 45 193 45 189 6 c 1,61,62
 180 -2 180 -2 173.5 -4 c 128,-1,63
 167 -6 167 -6 141 -7 c 0,0,1
EndSplineSet
EndChar

StartChar: asciitilde
Encoding: 126 126 93
Width: 500
Flags: W
LayerCount: 2
Fore
SplineSet
384 332 m 0,0,1
 397 355 397 355 409 361 c 256,2,3
 421 367 421 367 435.5 352.5 c 128,-1,4
 450 338 450 338 448 317 c 0,5,6
 448 294 448 294 428.5 272 c 128,-1,7
 409 250 409 250 389 235 c 128,-1,8
 369 220 369 220 351 211 c 128,-1,9
 333 202 333 202 323 200 c 0,10,11
 319 198 319 198 310 198 c 128,-1,12
 301 198 301 198 291 201 c 0,13,14
 270 210 270 210 263 217 c 128,-1,15
 256 224 256 224 241.5 237 c 128,-1,16
 227 250 227 250 211 271.5 c 128,-1,17
 195 293 195 293 175 290 c 0,18,19
 155 284 155 284 145 270 c 128,-1,20
 135 256 135 256 121 241 c 128,-1,21
 107 226 107 226 97 217 c 128,-1,22
 87 208 87 208 76 204 c 1,23,24
 59 204 59 204 52.5 214.5 c 128,-1,25
 46 225 46 225 46 240 c 0,26,27
 46 257 46 257 62.5 275 c 128,-1,28
 79 293 79 293 101 315.5 c 128,-1,29
 123 338 123 338 145 352 c 128,-1,30
 167 366 167 366 191 363 c 0,31,32
 211 363 211 363 229.5 351.5 c 128,-1,33
 248 340 248 340 265.5 318.5 c 128,-1,34
 283 297 283 297 293.5 285 c 128,-1,35
 304 273 304 273 316 275 c 0,36,37
 336 278 336 278 351.5 294 c 128,-1,38
 367 310 367 310 384 332 c 0,0,1
EndSplineSet
EndChar
